<svg version="1.2" xmlns="http://www.w3.org/2000/svg" viewBox="0 0 2164 2081" width="2164" height="2081">
	<title>39608-ai</title>
	<style>
		.s0 { fill: #c4e7f2 } 
		.s1 { fill: #6d9b72 } 
		.s2 { fill: #fefefe } 
		.s3 { mix-blend-mode: multiply;fill: #c0e5eb } 
		.s4 { fill: #9ba564 } 
		.s5 { mix-blend-mode: multiply;fill: #c9decc } 
		.s6 { mix-blend-mode: multiply;fill: #d8ede4 } 
		.s7 { fill: #f3c5b0 } 
		.s8 { mix-blend-mode: multiply;fill: #d3d2d4 } 
		.s9 { fill: #f7a69f } 
		.s10 { fill: #34487c } 
		.s11 { fill: #b03839 } 
		.s12 { fill: #0b1d3c } 
		.s13 { fill: #051836 } 
		.s14 { fill: #00000a } 
		.s15 { fill: #dbd7d3 } 
		.s16 { fill: #d14446 } 
		.s17 { fill: #f0f1f0 } 
		.s18 { fill: #3e558f } 
		.s19 { fill: #f59387 } 
		.s20 { fill: #bcb6b1 } 
		.s21 { fill: none;stroke: #020627;stroke-linecap: round;stroke-linejoin: round;stroke-width: 1.1 } 
		.s22 { fill: #4f6db4 } 
		.s23 { fill: #0c2140 } 
		.s24 { fill: #f6a099 } 
		.s25 { fill: #454b7c } 
		.s26 { fill: #a0a6c5 } 
		.s27 { fill: #012242 } 
		.s28 { fill: #f8ae93 } 
		.s29 { fill: #b5bddf } 
		.s30 { fill: #8387c2 } 
		.s31 { fill: #000217 } 
		.s32 { fill: #000a28 } 
		.s33 { fill: #f59992 } 
		.s34 { fill: #f8bab4 } 
	</style>
	<g id="_Artboards_">
	</g>
	<g id="Capa 1">
		<g id="&lt;Group&gt;">
			<path id="&lt;Path&gt;" class="s0" d="m2000.4 1301.3c2.7-17.4 4-33.2 3.9-45.9-0.7-70.2-49.1-103.3-81.2-151.2-39.7-59.5-55.6-123.3-52.9-199.4 2.7-74.4-10.9-102.5-59.8-139.4-44-33.3-83.3-72.8-125.1-110.5-37.5-33.9-77.8-62.2-114.5-96.8-29.9-28.3-48.4-68-72.7-104.3-21.8-32.5-49.1-65.3-81.2-70.8-37.4-6.4-72.8 4.9-107.6 15.9-102.7 32.6-139.7-89.9-226.9-135.6-99.7-52.3-199.6 18.8-267.5 112.7-58.7 81.2-96.3 126.5-184.2 126.5-69.5 0-154.1-17-209.3 47.7-39.5 46.3-55.4 121.4-75.5 182.3-25.1 75.9-60.4 155.1-98 221.2-44.4 78.2-98.6 140.6-87.3 247.1 5 47.2 25.7 93.1 33.3 139 5.7 34.1-4.2 102.9 19.6 125.5 12.4 11.8 36 5.3 51.1 5.4q40.3 0.3 80.7 0.6 397.9 2.7 795.8 5.4 285.9 1.9 571.8 3.9c44.8 0.3 92-5.1 136.4 2.2 22.8 3.7 48.1 22.7 70.5 8.9 38.3-23.5 69.9-120 80.6-190.4z"/>
			<g id="&lt;Group&gt;">
				<g id="&lt;Group&gt;">
					<path id="&lt;Path&gt;" class="s1" d="m1928.3 1465c5.5-18.9-2-39.1-22.4-49.2-23.1-11.5-53.3-0.5-75.4 14.8 2.9-12.3-5.3-28.4-20.3-33.5-25.7-8.8-52.7 14.7-72.2 26.9 40.5-37.7-23.8-50-60.9-20.4 16.5-25.5-30.2-44.7-60.3-14.6 21.1-35.1-34.6-65.4-60.9-41.2 13.8-39.6 5.9-81.2-43.7-92.5-70.2-16.1-100.7 48.2-108.4 105.9 1-39.4-31.4-78-56.4-40.4 2.4-25-49.8-43.8-65.5-3.2 0.3-12.7-7.2-29.9-22.4-33.7-20.2-5.1-33.2 10.7-41.7 27.6 10.6-47.1-63.7-61.7-72.5-13.6 1.4-33.3 2.9-86.2-31.7-91.2-54.1-7.9-84 93-83.1 142.9-7.3-20.5-39.1-17.9-50.6 4.1 5.3-28.3-52.9-39-50.3 10.6-2.4-16.8-2.8-51.2-21.9-58.4-20-7.6-31.1 12.4-31.2 31.7-9.9-12.5-18.8-49.9-37.3-62.2-32.2-21.5-65.6 4.1-62.3 39-13.4-52.8-66.4-8.7-55.5 30.9-17.2-21.5-53.3 21.4-38 56.3-16.7-33.9-57.3-28.4-59.6 10.4-0.8 14.1 7 36.3 17.9 53z"/>
					<g id="&lt;Group&gt;" style="opacity: .2">
						<path id="&lt;Path&gt;" class="s2" d="m1801.1 1408.7q-1.2-0.1-2.4-0.1c0.9 0.2 1.6 0.2 2.4 0.1z"/>
						<path id="&lt;Path&gt;" class="s2" d="m1634.7 1392c3.9-1.7 8.1-2.6 12.4-2.6 7.2 0 13.8 2.5 18.9 6.7q1.5-2.5 0.9-3.6c-1.2-2.3-6.5-5.4-14.6-5.4-3.9 0-10.5 0.8-17.6 4.9z"/>
						<path id="&lt;Path&gt;" class="s2" d="m1276.2 1358.2c5.2-6.4 12.4-9.9 20.2-9.9 11.8 0 23.9 8.5 28.8 20.1 1.7 4.2 3.4 4.2 5 4.2 5.2 0 13.1-4 19-9.5 5.5-5.2 12.7-8.1 20.2-8.1 8.2 0 15.7 3.3 21.2 9.1q-0.3-1.6-0.3-3.3c0.4-16.4-6.1-30.7-12.7-37.4-2.7-2.9-5.6-4.5-7.7-4.5-3.2 0-7.3 3.4-11.3 9.3-3.4 5.2-9.9 7.4-15.7 5.3-5.8-2.1-9.5-7.8-8.9-14 0.2-1.9-1.1-3.8-2.3-5.1-3.8-4.2-10.8-7-17.3-7-6.4 0-15.1 2.6-19.9 15.1-2.4 6.1-8.8 9.6-15.3 8.3-6.4-1.2-11-7-10.8-13.5 0.2-7-4-18.3-12.1-20.3q-2.3-0.6-4.3-0.6c-7.6 0-15.1 7.1-22.2 21.1-3 6.1-10.1 8.9-16.6 6.6-6.4-2.3-10-9-8.5-15.6 1.5-7.1 0.4-13-3.3-17.7-4.5-5.7-12.4-9.1-20.6-9.1-5.7 0-19.1 1.8-22.2 18.6-1.3 6.9-7.7 11.7-14.8 11-7-0.8-12.2-6.9-11.9-14 1-24 3.1-73.9-20.2-77.3-9.8-1.4-19.1 2.5-28.2 11.7-24.1 24.5-40.1 81.7-39.5 117.6 0.1 6.6-4.6 12.3-11 13.5-6.5 1.2-12.9-2.5-15.1-8.7-1.5-4.1-5.6-5-8.7-5-5.8 0-13.4 3.4-17.3 10.8-3.1 6-10 8.7-16.3 6.6-6.3-2.2-10.1-8.6-8.9-15.2 0.3-1.6 0-2.8-1-4-2-2.4-6-4-10-4-2.4 0-5.8 0.6-8.5 3.3-3.1 3.3-4.6 9.2-4.2 17 0.4 7.2-5 13.4-12.2 14.1-7.2 0.7-13.6-4.4-14.6-11.6-0.3-2.6-0.7-5.6-1-8.9-1.2-11.5-3.8-35.5-12.3-38.7q-2-0.8-3.5-0.8c-4.9 0-9.4 9.5-9.4 19.9 0 5.8-3.6 10.8-9 12.7-5.4 1.9-11.4 0.2-15-4.3-4.7-6-8.5-14.5-12.9-24.4-5.8-13.1-13-29.4-21.4-35-5.6-3.7-11.2-5.6-16.7-5.6-6.5 0-12.6 2.8-17.3 7.9-5.6 6.1-8.3 14.9-7.4 24.2 0.6 7-4.2 13.3-11.2 14.5-6.9 1.2-13.6-3.1-15.3-9.9-1.7-6.8-5.1-14.1-9.3-14.1-3.3 0-8.7 2.9-13.6 9.3-5.1 6.7-9.6 17.9-6.6 28.9 1.7 6.1-1.1 12.6-6.8 15.5-5.7 2.9-12.7 1.4-16.7-3.6-0.5-0.6-0.8-0.7-0.8-0.8-2.4 0.1-8.5 5-12.6 13.4 6.4 2.4 11.7 7.2 14.6 13.5 0.7 1.7 1.4 2.8 1.9 3.5 1.5-1.1 3.9-3.5 6.6-8 5.3-8.8 14.6-14 24.8-14 13.1 0 24.4 8.4 28.1 20.9 0.3 0.8 0.5 1.3 0.7 1.6 4.4-0.1 13.3-5.2 19.7-11.3 5.6-5.3 12.7-8.2 19.9-8.2 9.3 0 18.4 4.7 24.4 12.6 1.2-0.4 2.6-0.8 4.3-1.2 6.4-1.6 12.4-2.3 18.2-2.2 7.3-5.7 17.3-8.2 18-8.3q3.4-0.9 6.9-0.9c12.5 0 22.1 7.5 26.6 11.9q1.9 1.8 3.3 3.3c4 4 4 4 8.2 4.3l1.2 0.1c10.7 0.7 21.8 1.4 32.4 1.2 25.7-0.3 46.2-4.8 64.4-14.1 4.4-2.3 9.3-3.5 14.4-3.5 11.1 0 20.8 5.9 25.3 15.3 3.3 6.9 6.9 7.9 10.2 7.9 9.2 0 24.2-8.5 37.3-21.2 5.5-5.4 12.7-8.3 20.1-8.3 9.9 0 19.2 5.1 24.9 13.5 0.4 0.6 0.7 0.9 0.9 1.1 2.8-0.2 8.6-3.7 12.5-6.1q2-1.2 3.8-2.2l2.6-1.5c13.1-7.6 27.9-16.2 45.2-17.2 18.9-1 27.2 10.1 33.3 18.1 1.6 2.1 3.1 4 4.7 5.8 0.3 0.3 0.5 0.4 0.5 0.4 2.6 0 10.6-4.8 18.9-14.9z"/>
						<path id="&lt;Path&gt;" class="s2" d="m1566.8 1371.4c4.5-2.7 9.5-4.1 14.6-4.1 9.9 0 19.1 5.3 24.5 13.6 2.7-5.1 2.8-9.8 0.2-14.4-4.5-8-15.9-13.9-26.6-13.9-4 0-9.8 0.9-14.4 5.1-4.5 4.2-11.3 4.8-16.5 1.4-5.2-3.4-7.4-9.9-5.4-15.7 7.2-20.7 7.1-39.4-0.3-52.7-6.2-11.1-17.5-18.6-33.8-22.3-6.2-1.4-12.3-2.2-17.9-2.2-56.7 0-71.1 74.1-74.1 96.7-0.3 2.3-1.1 4.3-2.3 6 5.9-2.3 12.6-5.8 19.4-10.3 24.6-16 38.4-31.7 41.1-46.7 2.4-13.6 12.5-22.4 25.7-22.4 13.8 0 29.3 10.2 31.5 27.2q0.7 5.3 1.4 10.9c1.7 15.4 3.6 31.3 9.4 43.6 3.5 7.3 5.8 7.3 6.6 7.3 4.9 0 14-5.4 16.9-7.1z"/>
						<path id="&lt;Path&gt;" class="s2" d="m1700.7 1415c3 0 5.6 0 7.6-0.1 5.7-0.2 13.4-0.4 21.1-1.2 5.9-5.6 7.5-9.1 7.9-10.5-1.4-0.9-5.4-2.6-13.1-2.6-10.4 0-26.1 3.5-38.6 13.5 3.7 0.5 8.6 0.9 15.1 0.9z"/>
					</g>
					<path id="&lt;Path&gt;" class="s3" d="m1905.9 1415.8c-2.9-1.4-5.9-2.5-8.9-3.3-0.2 0.3-0.3 0.7-0.4 1-10 23.9-29.8 28.4-50.5 20.2-21.6 17.4-47.6 26.2-71.7 12.4-21.6 11.4-49.5 14.2-72.8 13.5-20.8-0.7-48.3-4.7-62.1-21.7-25.6 7.6-50 1.1-64.7-20.7-23.2 9.5-48.7 9.6-64.9-14.3-7.4-11.1-11.9-23.8-14.9-37-33.4 38.5-93.3 68.9-127.8 39.3-24.1 15.2-52.8 15.8-71.7-3.4-14.1 11.5-32.9 20.4-49.5 15.5-9.7-2.8-17-8.2-23.3-16.1-1.8-2.3-3.4-4.6-5.1-7-0.9 0.2-2.1 0.5-3.9 1.2-17.1 6.8-32.2 21.4-50.8 24.4-14.2 2.3-25.5-0.6-34.9-8.2-30.3 22.9-73.9 36.4-98.5 4.7-26.5 10.7-54.6 14.4-83.6 13.4-13.7-0.5-33.4 1.7-45.9-4.8-6.5-3.3-10.7-9.4-16-14-5.3 3.2-9.9 7.8-17.1 7.8-8.4 0-13.8 0.9-22 3-13.5 3.4-23.7 0-32.4-7.4-22.7 14.9-51.7 19.4-69.5 2-17.3 13.8-39.8 17.1-56.3 3.6-10 11.6-23 21.6-36.6 24.1-7.5 1.4-14.1 0.8-19.8-1.2 3.1 7.7 7 15.4 11.4 22.2h1286.6c5.5-18.9-2-39.1-22.4-49.2z"/>
					<g id="&lt;Group&gt;" style="mix-blend-mode: multiply">
						<g id="&lt;Group&gt;">
							<g id="&lt;Group&gt;">
								<g id="&lt;Group&gt;">
									<path id="&lt;Path&gt;" class="s1" d="m812.4 1354.6c3-5 0.3-13.7-0.1-19.2-0.7-7.8-0.8-16 2.8-23.2q-1.2 0.3-2.4 0.6c7.3 4.7 10 16.7 12 24.6 1.2 4.4 2.1 8.9 2.9 13.4 0.5 3.4 0.5 7.6 3 10.2 0.7 0.6 1.8 0.5 2.3-0.3 2-3.3 0.6-7.8-0.1-11.3-1.1-5.6-2.4-11.1-4.2-16.5-2.7-8.6-6.6-17.7-14.1-23.1-0.8-0.6-2-0.2-2.5 0.6-3.9 6.7-4.1 14.4-3.5 21.9 0.3 4.1 0.9 8.2 1.3 12.2 0.4 3.4 0.2 7.1 2.1 10.1 0.1 0.1 0.4 0.1 0.5 0z"/>
								</g>
							</g>
							<g id="&lt;Group&gt;">
								<g id="&lt;Group&gt;">
									<path id="&lt;Path&gt;" class="s1" d="m832.7 1355.9c1.6-4.5 1.1-9.2 1.5-13.9 0.6-5.9 2-11.6 5.1-16.6q-1.4 0-2.9 0c4.9 9.4 3.8 20.1 6.5 30.1 0.3 1.4 2.6 1.1 2.6-0.4-0.1-10.6-1.4-21.8-6.2-31.4-0.6-1.2-2.2-1-2.9 0-5.7 8.6-7.9 22.3-4.5 32.2 0.2 0.4 0.7 0.4 0.8 0z"/>
								</g>
							</g>
							<g id="&lt;Group&gt;">
								<g id="&lt;Group&gt;">
									<path id="&lt;Path&gt;" class="s1" d="m818 1353.4c-7.2-6.6-27.3-10.8-33.1-0.2-0.5 0.8 0.2 1.8 1.1 1.5 2.5-0.7 4.7-2.2 7.2-2.8 3.1-0.8 6.4-0.7 9.5-0.2 5 0.7 9.8 2.9 15 2.4 0.3 0 0.6-0.4 0.3-0.7z"/>
								</g>
							</g>
						</g>
						<g id="&lt;Group&gt;">
							<g id="&lt;Group&gt;">
								<g id="&lt;Group&gt;">
									<path id="&lt;Path&gt;" class="s1" d="m1168.2 1359.1c3-5 0.3-13.7-0.1-19.2-0.6-7.8-0.8-16 2.8-23.2q-1.2 0.4-2.4 0.7c7.3 4.6 10 16.7 12 24.5 1.2 4.4 2.1 8.9 2.9 13.4 0.5 3.4 0.5 7.6 3 10.2 0.7 0.7 1.8 0.5 2.3-0.3 2-3.3 0.6-7.8-0.1-11.3-1.1-5.6-2.4-11.1-4.2-16.5-2.7-8.6-6.5-17.6-14.1-23.1-0.8-0.6-2-0.1-2.5 0.6-3.9 6.7-4.1 14.4-3.5 22 0.3 4 0.9 8.1 1.4 12.1 0.4 3.4 0.2 7.1 2 10.1 0.2 0.2 0.4 0.2 0.5 0z"/>
								</g>
							</g>
							<g id="&lt;Group&gt;">
								<g id="&lt;Group&gt;">
									<path id="&lt;Path&gt;" class="s1" d="m1188.5 1360.4c1.6-4.5 1.1-9.2 1.6-13.9 0.5-5.9 1.9-11.6 5-16.6q-1.4 0-2.8 0c4.8 9.4 3.7 20.1 6.4 30.1 0.4 1.4 2.6 1.2 2.6-0.4-0.1-10.6-1.4-21.8-6.2-31.4-0.5-1.2-2.2-1-2.8 0-5.8 8.6-8 22.4-4.5 32.2 0.1 0.4 0.6 0.4 0.7 0z"/>
								</g>
							</g>
							<g id="&lt;Group&gt;">
								<g id="&lt;Group&gt;">
									<path id="&lt;Path&gt;" class="s1" d="m1173.8 1358c-7.2-6.7-27.3-10.9-33.1-0.3-0.5 0.8 0.3 1.8 1.1 1.5 2.6-0.7 4.7-2.2 7.2-2.8 3.2-0.9 6.7-0.7 10-0.2 4.9 0.9 9.5 2.9 14.5 2.4 0.4 0 0.6-0.4 0.3-0.6z"/>
								</g>
							</g>
						</g>
						<g id="&lt;Group&gt;">
							<g id="&lt;Group&gt;">
								<g id="&lt;Group&gt;">
									<path id="&lt;Path&gt;" class="s1" d="m1478.2 1444c3-5 0.3-13.7-0.1-19.2-0.6-7.8-0.8-16 2.8-23.2q-1.2 0.3-2.4 0.6c7.3 4.7 10 16.7 12 24.6 1.2 4.4 2.1 8.9 2.9 13.4 0.6 3.4 0.5 7.6 3.1 10.2 0.6 0.6 1.7 0.5 2.2-0.3 2-3.3 0.6-7.8-0.1-11.3-1.1-5.6-2.4-11.1-4.1-16.5-2.8-8.6-6.6-17.7-14.2-23.1-0.8-0.6-2-0.2-2.5 0.6-3.9 6.7-4.1 14.4-3.5 21.9 0.3 4.1 0.9 8.2 1.4 12.2 0.4 3.4 0.2 7.1 2.1 10.1 0.1 0.1 0.3 0.1 0.4 0z"/>
								</g>
							</g>
							<g id="&lt;Group&gt;">
								<g id="&lt;Group&gt;">
									<path id="&lt;Path&gt;" class="s1" d="m1498.5 1445.3c1.6-4.5 1.1-9.2 1.6-13.9 0.5-5.9 1.9-11.6 5.1-16.6q-1.5 0-2.9 0c4.9 9.4 3.7 20.1 6.4 30.1 0.4 1.4 2.6 1.1 2.6-0.4-0.1-10.6-1.4-21.8-6.1-31.4-0.6-1.2-2.3-1-2.9 0-5.8 8.6-8 22.3-4.5 32.2 0.1 0.4 0.6 0.4 0.7 0z"/>
								</g>
							</g>
							<g id="&lt;Group&gt;">
								<g id="&lt;Group&gt;">
									<path id="&lt;Path&gt;" class="s1" d="m1483.8 1442.8c-7.2-6.6-27.3-10.9-33.1-0.2-0.4 0.8 0.3 1.7 1.1 1.5 2.6-0.7 4.7-2.2 7.2-2.9 3.2-0.8 6.7-0.6 10-0.1 4.9 0.8 9.5 2.9 14.6 2.4 0.3 0 0.5-0.4 0.2-0.7z"/>
								</g>
							</g>
						</g>
						<g id="&lt;Group&gt;">
							<g id="&lt;Group&gt;">
								<g id="&lt;Group&gt;">
									<path id="&lt;Path&gt;" class="s1" d="m1714.4 1444c2.1-2.3 2.6-5.3 3.6-8.2 1.3-4.3 2.8-8.5 3.9-12.9 2.1-7.3 3.4-14.9 0.8-22.2-0.4-1.1-1.6-1.6-2.6-1.1-8.5 4-14 12.4-18.3 20.4-2.4 4.5-4.6 9.3-6.5 14.1-1.5 3.5-4.1 8-2.7 11.8 0.3 0.8 1.3 1.5 2.1 0.9 2.7-1.9 3.5-5.1 4.5-8 1.7-4.7 3.6-9.4 5.8-13.9 3.4-7.3 8.4-18.9 16.4-22q-1.1-0.6-2.2-1.2c2.2 7.8 0.6 15.7-1.5 23.4-1.5 5.2-5.7 13.3-3.8 18.8 0.1 0.1 0.3 0.2 0.5 0.1z"/>
								</g>
							</g>
							<g id="&lt;Group&gt;">
								<g id="&lt;Group&gt;">
									<path id="&lt;Path&gt;" class="s1" d="m1694.5 1441.5c5.2-8.9 5.6-22.9 1.7-32.4-0.6-1.4-2.2-1.6-3.1-0.4-6.3 8.5-9.7 19.1-11.7 29.4-0.3 1.4 1.7 2.5 2.4 1 4.5-9.3 5.4-20.1 11.9-28.3q-1.4-0.4-2.8-0.8c2.2 5.5 2.5 11.3 2 17.1-0.5 4.8-1.9 9.5-1.2 14.4 0.1 0.3 0.6 0.3 0.8 0z"/>
								</g>
							</g>
							<g id="&lt;Group&gt;">
								<g id="&lt;Group&gt;">
									<path id="&lt;Path&gt;" class="s1" d="m1708.7 1442.4c4.9 1.5 10 0.3 15 0.4 2.8 0.1 5.7 0.5 8.4 1.5 2.8 1.1 4.9 3.3 7.6 4.7 0.8 0.4 1.8-0.3 1.6-1.2-3.7-11.5-24.3-11.4-32.7-6.1-0.2 0.2-0.2 0.6 0.1 0.7z"/>
								</g>
							</g>
						</g>
						<g id="&lt;Group&gt;">
							<g id="&lt;Group&gt;">
								<g id="&lt;Group&gt;">
									<path id="&lt;Path&gt;" class="s1" d="m1080.1 1304.6c5.2-11.4 5.2-30.9 17.9-37.1q-1.1-0.6-2.2-1.3c1.3 13.7-4.2 26-6.3 39.3-0.3 2 2.3 2.7 3 0.8 5.1-12.5 7.3-26.7 6.2-40.1-0.1-1.1-1.1-1.7-2.2-1.2-6.4 3.1-9.7 10.3-12 16.7-2.6 7.3-4.3 15.1-4.9 22.8 0 0.2 0.4 0.4 0.5 0.1z"/>
								</g>
							</g>
							<g id="&lt;Group&gt;">
								<g id="&lt;Group&gt;">
									<path id="&lt;Path&gt;" class="s1" d="m1091.9 1306.9c3.4-2.2 5.5-6.4 8-9.4 3.2-4 6.9-7.3 11.3-9.8q-1.1-0.6-2.2-1.3c-0.6 8.8-8.6 15.1-12.4 22.6-0.4 0.8 0.5 1.5 1.2 0.9 6.9-5.9 12.5-14 14.1-23.1 0.3-1.3-1-2.3-2.2-1.7-4.5 2.3-8.1 5.9-11.3 9.9-2.7 3.3-6.1 7.2-7.1 11.5-0.1 0.3 0.3 0.7 0.6 0.4z"/>
								</g>
							</g>
							<g id="&lt;Group&gt;">
								<g id="&lt;Group&gt;">
									<path id="&lt;Path&gt;" class="s1" d="m1082.9 1303.5c-1.6-1.9-3.9-3.3-6.6-2.7-2.6 0.6-4.7 2.9-6 5-0.9 1.4 1.2 3.1 2.3 1.8 2.4-3 6.4-3.5 10.1-3.5 0.3 0 0.4-0.3 0.2-0.6z"/>
								</g>
							</g>
						</g>
						<g id="&lt;Group&gt;">
							<g id="&lt;Group&gt;">
								<g id="&lt;Group&gt;">
									<path id="&lt;Path&gt;" class="s1" d="m1264.9 1413.4c-5.6-3-11.8-4.7-17.7-7-6.6-2.6-15.1-6.1-18-13.2q-0.7 0.9-1.4 1.8c13.7-0.3 25.6 6.2 38.7 9.2 1.6 0.4 2.9-2.1 1.2-2.9-12.2-6.1-26.2-9.3-39.9-9.2-0.8 0-1.7 0.9-1.4 1.8 2.7 6.8 9.4 10.6 15.7 13.4 7.2 3.1 14.8 5.4 22.5 6.6 0.3 0.1 0.6-0.3 0.3-0.5z"/>
								</g>
							</g>
							<g id="&lt;Group&gt;">
								<g id="&lt;Group&gt;">
									<path id="&lt;Path&gt;" class="s1" d="m1268 1401.8c-2-3.6-6-5.9-8.9-8.7-3.7-3.5-6.8-7.4-8.9-12q-0.9 1.1-1.7 2.2c8.9 1.2 14.6 9.6 21.9 14 0.7 0.4 1.6-0.4 1.1-1-5.5-7.4-13.2-13.6-22.2-15.9-1.4-0.4-2.2 1-1.7 2.2 2 4.7 5.3 8.6 9.1 12 3 2.8 6.8 6.5 10.8 7.8 0.4 0.1 0.7-0.3 0.5-0.6z"/>
								</g>
							</g>
							<g id="&lt;Group&gt;">
								<g id="&lt;Group&gt;">
									<path id="&lt;Path&gt;" class="s1" d="m1264 1410.5c-2 1.5-3.5 3.6-3.2 6.3 0.3 2.7 2.5 5.1 4.7 6.6 1.3 1 2.9-1.2 1.7-2.3-2.7-2.6-2.9-6.7-2.6-10.3 0-0.2-0.4-0.4-0.6-0.3z"/>
								</g>
							</g>
						</g>
						<g id="&lt;Group&gt;">
							<g id="&lt;Group&gt;">
								<g id="&lt;Group&gt;">
									<path id="&lt;Path&gt;" class="s1" d="m984.2 1402.8c2.7-4.4 0.9-11.5 1-16.3 0.2-6.7 1.1-13.8 6.4-18.6q-1.8-0.2-3.6-0.4c2.3 5.5 2.9 11.5 3.4 17.4 0.4 4.7 0.2 9.9 2 14.3 0.2 0.6 1.4 0.9 1.5 0 0.7-5.4 0.3-11.3 0-16.8-0.2-5.7-0.8-11.3-2.8-16.7-0.6-1.6-2.5-2.2-3.8-1-4.9 4.6-6.4 11.2-6.8 17.7-0.3 3.8-0.1 7.7 0 11.5 0.2 3 0 6.2 1.7 8.9 0.2 0.3 0.8 0.4 1 0z"/>
								</g>
							</g>
							<g id="&lt;Group&gt;">
								<g id="&lt;Group&gt;">
									<path id="&lt;Path&gt;" class="s1" d="m994.7 1398.7c5.3-8.7 4.3-19.8 12-27.5q-1.7-0.4-3.4-0.9c3.7 13.7-2.8 29-4.6 42.6-0.2 1.2 1.6 1.2 1.9 0.3 4.8-13.6 10.2-29.5 6.6-43.9-0.4-1.6-2.3-2-3.4-0.9-7.6 7.3-10.2 19.7-10.4 29.9 0 0.7 1 0.9 1.3 0.4z"/>
								</g>
							</g>
							<g id="&lt;Group&gt;">
								<g id="&lt;Group&gt;">
									<path id="&lt;Path&gt;" class="s1" d="m974.8 1408.9c2.2-2.8 4.9-4.7 8.3-5.7 2.6-0.8 6.7-0.1 8.9-1.8 0.6-0.4 0.8-1.2 0.2-1.9-2.5-2.8-8.5-1-11.4 0.4-3.5 1.6-6.4 4.8-6.3 8.8 0 0.2 0.2 0.3 0.3 0.2z"/>
								</g>
							</g>
						</g>
						<g id="&lt;Group&gt;">
							<g id="&lt;Group&gt;">
								<g id="&lt;Group&gt;">
									<path id="&lt;Path&gt;" class="s1" d="m1373.2 1363.6c0.5-3-0.7-5.6-1.7-8.4-1.4-3.6-2.7-7.2-4.4-10.7-3-6.1-7-11.7-13.6-14.1-1.4-0.5-3 0.8-2.9 2.2 0.3 5.7 1.8 11.1 3.8 16.5 2 5.2 3.8 10.8 6.6 15.6 0.4 0.7 1.5 0.4 1.5-0.4-0.2-4.9-2.4-9.8-3.9-14.5-1.9-5.6-3.4-11.2-3.4-17.2q-1.5 1.1-2.9 2.2c6.5 2.3 10.1 8.7 12.8 14.7 2 4.4 3.1 11.5 7.2 14.5 0.3 0.2 0.9 0 0.9-0.4z"/>
								</g>
							</g>
							<g id="&lt;Group&gt;">
								<g id="&lt;Group&gt;">
									<path id="&lt;Path&gt;" class="s1" d="m1362 1363.3c-4.2-9.4-11.4-19.7-21.3-23.6-1.7-0.6-2.8 1.2-2.6 2.6 2.3 14.6 13.6 27.1 23.1 37.7 0.8 0.8 2.1-0.2 1.6-1.2-6.8-11.7-18.8-23.2-20.6-37.1q-1.3 1-2.6 2c9.9 4 13.3 14.7 21.5 20.6 0.6 0.4 1.1-0.4 0.9-1z"/>
								</g>
							</g>
							<g id="&lt;Group&gt;">
								<g id="&lt;Group&gt;">
									<path id="&lt;Path&gt;" class="s1" d="m1383.6 1365.7c-1.5-3.6-4.9-5.4-8.7-5.7-3.4-0.3-9.6 0.3-11.2 3.9-0.3 0.7-0.1 1.6 0.8 1.8 2.7 0.5 5.4-1.2 8-1.7 3.9-0.6 7.4 0.1 10.8 1.9 0.1 0 0.3 0 0.3-0.2z"/>
								</g>
							</g>
						</g>
						<g id="&lt;Group&gt;">
							<g id="&lt;Group&gt;">
								<g id="&lt;Group&gt;">
									<path id="&lt;Path&gt;" class="s1" d="m730.9 1418.8c-2.3-5.5-6.3-10.1-9.5-15.1-3.4-5.3-8.3-12.5-5.1-19q-1.2 0.3-2.5 0.7c6.7 5.1 9.5 13.4 14.1 20.1 1 1.4 3.6 0.6 3-1.3-2.8-8.3-7.9-16.9-15.3-21.9-0.7-0.5-2-0.2-2.4 0.6-5.6 12.9 8.7 28 16.1 37.1 0.8 1 2-0.3 1.6-1.2z"/>
								</g>
							</g>
							<g id="&lt;Group&gt;">
								<g id="&lt;Group&gt;">
									<path id="&lt;Path&gt;" class="s1" d="m731.1 1408.1c-1.8-7.5-4.5-13.9-2.8-21.7q-1.5 0.4-3 0.8c7.2 7.5 8.6 18.6 15.2 26.5 0.7 0.7 1.6-0.1 1.5-0.9-1.5-10.5-7.8-20-14.1-28.2-0.9-1.1-2.8-0.4-3.1 0.8-2.1 7.3 0 17.8 5.6 23 0.3 0.3 0.8 0 0.7-0.3z"/>
								</g>
							</g>
							<g id="&lt;Group&gt;">
								<g id="&lt;Group&gt;">
									<path id="&lt;Path&gt;" class="s1" d="m731.7 1405.9q-0.4-0.1-0.7-0.1 0.2 0.1 0.5 0.1c-1.1-0.6-2.2 0.3-2.8 1.2-0.2 0.5-0.5 1-0.4 1.5 0 0.5 0.2 0.9 0.4 1.3 0.2 0.5 1 0.5 1.3 0q0.1-0.3 0.3-0.6c0.2-0.2 0.4-0.6 0.5-0.8 0.1-0.3 0.1-0.3 0.3-0.5 0.2-0.1 0.6-0.3 0.8-0.7q-0.2 0.2-0.4 0.4 0.1-0.1 0.2-0.1c0.8-0.2 0.9-1.5 0-1.7z"/>
								</g>
							</g>
							<g id="&lt;Group&gt;">
								<g id="&lt;Group&gt;">
									<path id="&lt;Path&gt;" class="s1" d="m729.9 1419.2c-2.4 1.6-4.5 3.6-5.8 6.1-1.1 2-2 5-0.7 7.1 0.5 0.8 1.6 0.7 2.1 0 1-1.4 1.2-3.4 1.8-5 0.9-2.1 2.4-3.9 4.3-5.3 1.7-1.2 0.1-4.1-1.7-2.9z"/>
								</g>
							</g>
						</g>
						<g id="&lt;Group&gt;">
							<g id="&lt;Group&gt;">
								<g id="&lt;Group&gt;">
									<path id="&lt;Path&gt;" class="s1" d="m1494.3 1324.6c4.1-10.8 13-29.6 3.8-40-0.9-0.9-2.2-0.5-2.9 0.4-5.3 6.9-7.4 16.7-7.4 25.3 0 1.8 2.7 2.1 3.2 0.4 2.4-8 2.5-16.8 7.3-23.9q-1.4 0.2-2.8 0.4c5.2 5.3 2.7 13.9 1 20.2-1.4 5.6-3.7 11.1-4.2 16.9-0.1 1.3 1.6 1.3 2 0.3z"/>
								</g>
							</g>
							<g id="&lt;Group&gt;">
								<g id="&lt;Group&gt;">
									<path id="&lt;Path&gt;" class="s1" d="m1489.5 1314.2c3.7-6.7 2.5-17.4-1.7-23.6-0.9-1.3-2.8-1.1-3.4 0.5-3.5 9.7-6.3 20.6-4.5 31 0.2 1 1.5 0.7 1.7 0 3.9-9.4 1.7-20.3 6.2-29.6q-1.6 0-3.2 0c4.1 6.9 3.6 13.8 4.2 21.5 0 0.4 0.5 0.6 0.7 0.2z"/>
								</g>
							</g>
							<g id="&lt;Group&gt;">
								<g id="&lt;Group&gt;">
									<path id="&lt;Path&gt;" class="s1" d="m1488.1 1313.8c0.2 0 0.1 0 0.3 0q-0.4-0.3-0.8-0.7 0.1 0 0.1 0c0 0.4 0.4 0.8 0.8 0.9 0.4 0.1 0.6 0.1 0.9 0.5 0.3 0.3 0.7 0.6 1 0.9 0.5 0.5 1.2 0.1 1.3-0.5 0.1-0.9-0.1-1.6-0.7-2.2-0.5-0.5-1.1-1-1.8-1.1-0.7-0.1-1.4 0.2-1.5 0.9q0 0-0.1 0 0.4-0.4 0.8-0.7-0.4 0.1-0.8 0.3c-0.7 0.5-0.4 1.7 0.5 1.7z"/>
								</g>
							</g>
							<g id="&lt;Group&gt;">
								<g id="&lt;Group&gt;">
									<path id="&lt;Path&gt;" class="s1" d="m1492.6 1327.5c2.2 0.8 4.2 1.9 5.7 3.6 1.3 1.5 2.1 3.3 3.6 4.4 0.6 0.5 1.6 0 1.7-0.7 0.6-2.4-1.1-5-2.8-6.6-2-1.9-4.5-3.2-7.3-3.9-2.1-0.6-2.9 2.5-0.9 3.2z"/>
								</g>
							</g>
						</g>
						<g id="&lt;Group&gt;">
							<g id="&lt;Group&gt;">
								<g id="&lt;Group&gt;">
									<path id="&lt;Path&gt;" class="s1" d="m1376.7 1448.3c4.2-10.9 13.1-29.7 3.8-40-0.8-1-2.2-0.5-2.8 0.3-5.3 6.9-7.4 16.8-7.4 25.3-0.1 1.9 2.6 2.2 3.1 0.4 2.4-8 2.5-16.8 7.4-23.9q-1.4 0.2-2.8 0.4c5.2 5.3 2.7 13.9 1 20.2-1.5 5.7-3.8 11.1-4.3 17-0.1 1.2 1.7 1.3 2 0.3z"/>
								</g>
							</g>
							<g id="&lt;Group&gt;">
								<g id="&lt;Group&gt;">
									<path id="&lt;Path&gt;" class="s1" d="m1372 1437.8c3.7-6.6 2.5-17.3-1.7-23.5-1-1.4-2.9-1.1-3.4 0.4-3.5 9.7-6.3 20.7-4.5 31.1 0.1 0.9 1.4 0.7 1.7 0 3.8-9.5 1.7-20.4 6.2-29.7q-1.6 0-3.2 0c4 7 3.6 13.9 4.1 21.5 0.1 0.4 0.6 0.6 0.8 0.2z"/>
								</g>
							</g>
							<g id="&lt;Group&gt;">
								<g id="&lt;Group&gt;">
									<path id="&lt;Path&gt;" class="s1" d="m1370.5 1437.4c0.2 0 0.2 0 0.4 0.1q-0.4-0.5-0.8-1.1 0 0 0 0.1c-0.1 0.4 0.4 1.1 0.9 1.1 0.4 0.1 0.5 0.2 0.8 0.5 0.3 0.4 0.7 0.6 1.1 1 0.5 0.5 1.2 0.1 1.2-0.6 0.1-0.8 0-1.5-0.6-2.2-0.5-0.5-1.2-0.9-1.9-1-0.6-0.1-1.4 0.1-1.5 0.8q0 0 0 0.1 0.4-0.4 0.8-0.8-0.4 0.1-0.8 0.4c-0.8 0.4-0.5 1.7 0.4 1.6z"/>
								</g>
							</g>
							<g id="&lt;Group&gt;">
								<g id="&lt;Group&gt;">
									<path id="&lt;Path&gt;" class="s1" d="m1375.1 1451.2c2.1 0.7 4 1.8 5.5 3.4 1.2 1.4 2 3.3 3.5 4.4 0.7 0.5 1.7 0.4 2-0.5 0.6-2.4-1.1-5-2.8-6.6-2.1-2-4.6-3.3-7.3-4-2.1-0.6-3 2.6-0.9 3.3z"/>
								</g>
							</g>
						</g>
						<g id="&lt;Group&gt;">
							<g id="&lt;Group&gt;">
								<g id="&lt;Group&gt;">
									<path id="&lt;Path&gt;" class="s1" d="m1535.9 1386.8c4.1-10.9 13-29.7 3.7-40.1-0.8-0.9-2.1-0.4-2.8 0.4-5.3 6.9-7.4 16.7-7.4 25.3 0 1.8 2.6 2.2 3.2 0.4 2.3-8 2.5-16.8 7.3-23.9q-1.4 0.2-2.8 0.4c5.2 5.3 2.7 13.9 1 20.2-1.5 5.6-3.7 11.1-4.2 17-0.1 1.2 1.6 1.3 2 0.3z"/>
								</g>
							</g>
							<g id="&lt;Group&gt;">
								<g id="&lt;Group&gt;">
									<path id="&lt;Path&gt;" class="s1" d="m1531.1 1376.3c3.7-6.6 2.5-17.3-1.7-23.5-1-1.4-2.8-1.1-3.4 0.4-3.5 9.7-6.3 20.7-4.5 31 0.1 1 1.4 0.8 1.7 0 3.9-9.4 1.7-20.3 6.2-29.6q-1.6 0-3.2 0c4.1 7 3.6 13.8 4.2 21.5 0 0.4 0.5 0.6 0.7 0.2z"/>
								</g>
							</g>
							<g id="&lt;Group&gt;">
								<g id="&lt;Group&gt;">
									<path id="&lt;Path&gt;" class="s1" d="m1529.7 1375.9c0.1 0 0.1 0 0.3 0.1q-0.4-0.4-0.8-0.8 0 0 0 0.1c0.1 0.3 0.5 0.8 0.9 0.8 0.4 0.1 0.6 0.2 0.8 0.5 0.4 0.4 0.7 0.6 1.1 0.9 0.5 0.5 1.2 0.1 1.3-0.5 0.1-0.8-0.1-1.5-0.7-2.2-0.5-0.5-1.1-0.9-1.9-1-0.6-0.1-1.2 0.1-1.5 0.8q0 0 0 0 0.4-0.3 0.8-0.7-0.4 0.1-0.8 0.3c-0.8 0.5-0.5 1.8 0.5 1.7z"/>
								</g>
							</g>
							<g id="&lt;Group&gt;">
								<g id="&lt;Group&gt;">
									<path id="&lt;Path&gt;" class="s1" d="m1534.2 1389.7c2.2 0.7 4.1 1.8 5.7 3.6 1.2 1.4 2 3.2 3.6 4.4 0.6 0.4 1.5-0.1 1.7-0.7 0.6-2.5-1.1-5-2.8-6.6-2-2-4.6-3.3-7.3-4-2.1-0.6-3 2.6-0.9 3.3z"/>
								</g>
							</g>
						</g>
						<g id="&lt;Group&gt;">
							<g id="&lt;Group&gt;">
								<g id="&lt;Group&gt;">
									<path id="&lt;Path&gt;" class="s1" d="m1098.3 1397.2c-2.2-5.9-6.3-10.8-9.6-16.1-3.1-5.2-9.2-14-4.4-19.8q-1.4 0-2.8 0c7.3 5.9 10.2 14.8 15.2 22.5 1.1 1.6 3.9 0.6 3.3-1.4-2.7-9.3-8.2-18.6-16.1-24.3-0.9-0.7-2.1-0.1-2.7 0.7-4.3 5.9-1.5 13.5 1.4 19.3 3.7 7.3 8.8 13.8 13.8 20.2 0.7 0.9 2.3-0.1 1.9-1.1z"/>
								</g>
							</g>
							<g id="&lt;Group&gt;">
								<g id="&lt;Group&gt;">
									<path id="&lt;Path&gt;" class="s1" d="m1099.9 1386.4c-1.4-7.3-4.2-14.3-0.9-21.5q-1.6 0.2-3.3 0.4c7.6 8.1 8.4 20 15.3 28.4 0.6 0.7 1.8 0.2 1.7-0.7-0.9-11.1-7.1-21.5-13.7-30.2-0.8-1.2-2.8-1.6-3.6 0-3.4 7.3-2.2 18.4 3.8 24 0.3 0.4 0.8 0 0.7-0.4z"/>
								</g>
							</g>
							<g id="&lt;Group&gt;">
								<g id="&lt;Group&gt;">
									<path id="&lt;Path&gt;" class="s1" d="m1100.8 1384.3c-0.3-0.1-0.6-0.3-0.9-0.4-0.3 0-0.7 0.1-1 0.2q-0.8 0.3-1.4 0.9c-0.4 0.4-0.8 0.9-0.9 1.4 0 0.5 0.1 1 0.2 1.5 0.2 0.7 1.1 0.8 1.5 0.2q0.1-0.1 0.2-0.2c0 0 0.3-0.3 0.1-0.1 0.3-0.3 0.6-0.7 0.7-0.8 0 0 0.3-0.3 0.2-0.2 0 0 0.3-0.2 0.1-0.1 0.5-0.2 0.9-0.2 1.2-0.6q-0.2 0.1-0.5 0.2 0.3 0 0.5-0.1c0.4 0 0.8-0.5 0.8-0.9 0-0.5-0.4-0.9-0.8-1z"/>
								</g>
							</g>
							<g id="&lt;Group&gt;">
								<g id="&lt;Group&gt;">
									<path id="&lt;Path&gt;" class="s1" d="m1097.4 1397.1c-3 1.1-5.9 2.7-8 5.2-1.6 1.9-3 4.9-1.8 7.4 0.4 0.7 1.5 0.8 2.1 0.2 1.3-1.4 1.9-3.4 3.1-5 1.5-2 3.8-3.3 6-4.3 2-0.9 0.6-4.2-1.4-3.5z"/>
								</g>
							</g>
						</g>
						<g id="&lt;Group&gt;">
							<g id="&lt;Group&gt;">
								<g id="&lt;Group&gt;">
									<path id="&lt;Path&gt;" class="s1" d="m1582 1425c0.1-11.3 1.9-32.4-10.3-38.8-1-0.5-2.3-0.1-2.6 1.1-2.6 8.3-1.2 18.3 1.7 26.3 0.6 1.6 3.3 1.5 3.2-0.4-0.5-8.3-3.5-16.6-1.5-25q-1.3 0.6-2.6 1.1c6.7 3.1 7.5 11.7 8.1 18.2 0.6 5.9 0.3 12 1.9 17.8 0.4 1.1 2.1 0.9 2.1-0.3z"/>
								</g>
							</g>
							<g id="&lt;Group&gt;">
								<g id="&lt;Group&gt;">
									<path id="&lt;Path&gt;" class="s1" d="m1573.8 1416.9c1.2-7.8-3.7-17.3-10-21.7-1.2-0.8-2.8 0.3-2.8 1.6 0.1 10.3 1.3 21.6 6.6 30.7 0.4 0.8 1.6 0.5 1.7-0.4 0.3-10.3-5.6-19.9-4.6-30.3q-1.6 0.6-3.1 1.3c6.2 5.1 8.3 11.8 11.5 18.9 0.2 0.3 0.7 0.2 0.7-0.1z"/>
								</g>
							</g>
							<g id="&lt;Group&gt;">
								<g id="&lt;Group&gt;">
									<path id="&lt;Path&gt;" class="s1" d="m1572.3 1417q0.3-0.1 0.5-0.2-0.5-0.1-1-0.2c0.3 0.3 0.7 0.4 1.1 0.4 0.2 0 0.4-0.1 0.6 0 0.2 0.1 0.4 0.2 0.6 0.3 0.3 0.2 0.6 0.2 0.9 0.3 0.6 0.3 1.3-0.1 1.1-0.8-0.2-0.8-0.5-1.5-1.3-1.9q-1.1-0.6-2.4-0.3c-0.4 0.1-0.8 0.5-0.8 0.8q-0.1 0.1-0.1 0.1 0.2-0.2 0.3-0.4-0.2 0.2-0.4 0.4c-0.5 0.6 0 1.8 0.9 1.5z"/>
								</g>
							</g>
							<g id="&lt;Group&gt;">
								<g id="&lt;Group&gt;">
									<path id="&lt;Path&gt;" class="s1" d="m1581.3 1428.3c2.3-0.1 4.6 0.2 6.7 1.4 1.6 0.9 3 2.3 4.8 2.8 0.6 0.2 1.6-0.4 1.5-1.1-0.7-5.5-8.6-6.9-13-6.5-2.2 0.2-2.3 3.4 0 3.4z"/>
								</g>
							</g>
						</g>
						<g id="&lt;Group&gt;">
							<g id="&lt;Group&gt;">
								<g id="&lt;Group&gt;">
									<path id="&lt;Path&gt;" class="s1" d="m896.7 1408.5c2.8-3.6 1.1-11.5 1.1-15.7-0.1-6.9 0-15.3 4.7-20.9q-1.2-0.3-2.5-0.7c1.3 5.6 0.6 11.4 0.1 17 0 0.8 1 0.8 1.3 0.2 2.3-5.9 2.7-11.7 1.5-18-0.2-1-1.8-1.4-2.5-0.6-4.5 5.3-5.8 12.5-6.5 19.2-0.4 3.9-0.5 7.8-0.4 11.7 0.1 2.6-0.2 5.7 1.5 7.8 0.4 0.4 1.4 0.4 1.7 0z"/>
								</g>
							</g>
							<g id="&lt;Group&gt;">
								<g id="&lt;Group&gt;">
									<path id="&lt;Path&gt;" class="s1" d="m900.9 1389c4.2-3.8 4.5-10.7 8.6-15q-1.3-0.4-2.5-0.7c1.8 10-1 19.8-3.1 29.4-0.1 0.4 0.5 0.8 0.7 0.3 4-9.2 7.4-20.4 5.2-30.5-0.2-1-1.7-1.4-2.4-0.6-3.8 4.2-7.2 11.3-6.8 17 0 0.2 0.2 0.2 0.3 0.1z"/>
								</g>
							</g>
							<g id="&lt;Group&gt;">
								<g id="&lt;Group&gt;">
									<path id="&lt;Path&gt;" class="s1" d="m894.8 1403c2-4.7 1-10.8-0.2-15.7-1.1-5-3.5-9.8-7.7-12.8-0.9-0.6-2.1 0.3-2.1 1.2-0.3 9.6 1.9 20.7 5.5 29.6 0.6 1.4 3 1.4 2.9-0.4-0.5-9.8-4.9-19.2-5.7-29.2q-1 0.6-2 1.2c9.1 5 5.2 18.1 8.7 26.1 0.1 0.2 0.5 0.2 0.6 0z"/>
								</g>
							</g>
						</g>
						<g id="&lt;Group&gt;">
							<g id="&lt;Group&gt;">
								<g id="&lt;Group&gt;">
									<path id="&lt;Path&gt;" class="s1" d="m1048 1457.4c2.7-3.6 1-11.4 1-15.7 0-6.9 0.1-15.3 4.8-20.9q-1.3-0.3-2.5-0.6c1.2 5.6 0.5 11.3 0.1 16.9-0.1 0.8 1 0.8 1.2 0.2 2.4-5.9 2.8-11.7 1.5-17.9-0.2-1.1-1.7-1.5-2.4-0.7-4.6 5.3-5.9 12.5-6.6 19.2-0.4 3.9-0.4 7.8-0.3 11.8 0.1 2.5-0.2 5.6 1.5 7.7 0.4 0.4 1.3 0.5 1.7 0z"/>
								</g>
							</g>
							<g id="&lt;Group&gt;">
								<g id="&lt;Group&gt;">
									<path id="&lt;Path&gt;" class="s1" d="m1052.1 1437.9c4.3-3.8 4.6-10.7 8.6-15q-1.2-0.3-2.5-0.7c1.9 10-0.9 19.8-3.1 29.4-0.1 0.5 0.6 0.8 0.7 0.3 4.1-9.2 7.4-20.3 5.3-30.4-0.2-1.1-1.8-1.5-2.5-0.7-3.7 4.2-7.1 11.3-6.7 17 0 0.2 0.1 0.2 0.2 0.1z"/>
								</g>
							</g>
							<g id="&lt;Group&gt;">
								<g id="&lt;Group&gt;">
									<path id="&lt;Path&gt;" class="s1" d="m1046 1451.9c2.1-4.7 1-10.8-0.1-15.7-1.2-5-3.5-9.8-7.8-12.8-0.9-0.6-2 0.3-2 1.2-0.4 9.6 1.8 20.7 5.5 29.6 0.5 1.4 2.9 1.4 2.8-0.4-0.4-9.8-4.9-19.2-5.6-29.2q-1 0.6-2.1 1.2c9.2 5 5.3 18.1 8.8 26.1 0.1 0.2 0.4 0.2 0.5 0z"/>
								</g>
							</g>
						</g>
						<g id="&lt;Group&gt;">
							<g id="&lt;Group&gt;">
								<g id="&lt;Group&gt;">
									<path id="&lt;Path&gt;" class="s1" d="m1165 1438.1c2.8-3.5 1.1-11.4 1-15.6 0-7 0.1-15.3 4.8-20.9q-1.3-0.4-2.5-0.7c1.2 5.6 0.5 11.3 0.1 17-0.1 0.8 1 0.8 1.2 0.2 2.4-5.9 2.8-11.8 1.6-18-0.3-1-1.8-1.5-2.5-0.6-4.6 5.2-5.9 12.4-6.5 19.1-0.4 4-0.5 7.9-0.4 11.8 0.1 2.5-0.2 5.7 1.5 7.7 0.4 0.5 1.3 0.5 1.7 0z"/>
								</g>
							</g>
							<g id="&lt;Group&gt;">
								<g id="&lt;Group&gt;">
									<path id="&lt;Path&gt;" class="s1" d="m1169.1 1418.7c4.3-3.9 4.6-10.7 8.6-15.1q-1.2-0.3-2.4-0.6c1.8 9.9-1 19.7-3.2 29.4-0.1 0.4 0.6 0.7 0.8 0.3 4-9.2 7.3-20.4 5.2-30.5-0.2-1.1-1.7-1.5-2.5-0.7-3.7 4.3-7.1 11.3-6.7 17.1 0 0.1 0.1 0.2 0.2 0.1z"/>
								</g>
							</g>
							<g id="&lt;Group&gt;">
								<g id="&lt;Group&gt;">
									<path id="&lt;Path&gt;" class="s1" d="m1163.1 1432.6c2-4.7 1-10.8-0.2-15.6-1.2-5-3.5-9.8-7.8-12.8-0.9-0.6-2 0.2-2 1.2-0.3 9.6 1.8 20.7 5.5 29.6 0.6 1.4 2.9 1.4 2.9-0.4-0.5-9.9-5-19.3-5.7-29.2q-1 0.6-2.1 1.2c9.2 5 5.3 18.1 8.8 26 0.1 0.3 0.5 0.3 0.6 0z"/>
								</g>
							</g>
						</g>
						<g id="&lt;Group&gt;">
							<g id="&lt;Group&gt;">
								<g id="&lt;Group&gt;">
									<path id="&lt;Path&gt;" class="s1" d="m1644 1398.3c-1.7 2.1-1.4 5.2-1.5 7.7-0.1 4 0 7.9 0.4 11.8 0.6 6.7 1.9 13.9 6.5 19.2 0.7 0.8 2.2 0.4 2.5-0.7 1.2-6.2 0.8-12-1.6-17.9-0.2-0.6-1.3-0.6-1.2 0.2 0.4 5.6 1.1 11.3-0.1 16.9q1.2-0.3 2.5-0.6c-4.7-5.6-4.8-14-4.8-21 0.1-4.2 1.8-12-1-15.6-0.4-0.5-1.3-0.4-1.7 0z"/>
								</g>
							</g>
							<g id="&lt;Group&gt;">
								<g id="&lt;Group&gt;">
									<path id="&lt;Path&gt;" class="s1" d="m1649.6 1417.9c-0.4 5.7 3 12.7 6.7 17 0.7 0.8 2.3 0.4 2.5-0.7 2.1-10.1-1.2-21.2-5.3-30.4-0.1-0.5-0.8-0.2-0.7 0.3 2.2 9.6 5 19.4 3.1 29.4q1.3-0.4 2.5-0.7c-4-4.3-4.3-11.2-8.6-15.1-0.1 0-0.2 0-0.2 0.2z"/>
								</g>
							</g>
							<g id="&lt;Group&gt;">
								<g id="&lt;Group&gt;">
									<path id="&lt;Path&gt;" class="s1" d="m1643.2 1403.8c-3.5 8 0.4 21.1-8.8 26.1q1.1 0.6 2.1 1.2c0.7-10 5.2-19.4 5.6-29.2 0.1-1.8-2.2-1.8-2.8-0.4-3.7 8.9-5.8 20-5.5 29.6 0 0.9 1.1 1.8 2 1.1 4.3-2.9 6.6-7.7 7.8-12.7 1.1-4.9 2.2-11 0.1-15.7-0.1-0.2-0.4-0.2-0.5 0z"/>
								</g>
							</g>
						</g>
						<g id="&lt;Group&gt;">
							<g id="&lt;Group&gt;">
								<g id="&lt;Group&gt;">
									<path id="&lt;Path&gt;" class="s1" d="m1793.8 1452.1c2.4-1.2 3.3-4.5 4.4-6.7q2.3-5 4.1-10.3c2-6.4 3.7-13.8 1.6-20.4-0.4-1.3-2-1.4-2.7-0.4-3.5 5.2-5.4 10.8-5.5 17 0 0.8 1 0.9 1.2 0.2 1.9-5.4 3.5-11 6.9-15.7q-1.4-0.2-2.7-0.3c2 6.9-0.9 14.4-3.6 20.8q-2 4.6-4 9.1c-0.9 1.9-2 3.8-1.5 6 0.2 0.8 1.2 1 1.8 0.7z"/>
								</g>
							</g>
							<g id="&lt;Group&gt;">
								<g id="&lt;Group&gt;">
									<path id="&lt;Path&gt;" class="s1" d="m1796.2 1432.1c2.6-5.2 2.2-12.8 0.5-18.2-0.4-1.3-2-1.4-2.7-0.4-5.8 8.3-7.1 20-7 29.9 0 0.4 0.7 0.6 0.8 0.1 1.8-9.8 3.1-20 8.8-28.5q-1.4-0.2-2.7-0.3c2 5.6-0.4 12 2 17.4 0.1 0.1 0.2 0.1 0.3 0z"/>
								</g>
							</g>
							<g id="&lt;Group&gt;">
								<g id="&lt;Group&gt;">
									<path id="&lt;Path&gt;" class="s1" d="m1796.6 1447.4c6.2-5.8 7.8-19.4 18.1-20.5q-0.6-1-1.2-2c-2.3 4.3-5 8.5-7.9 12.4-3 3.9-6.6 7.7-8.8 12.2-0.7 1.4 1.1 3 2.3 1.8 7-6.8 13.4-16.4 16.9-25.4 0.4-1-0.8-1.9-1.7-1.7-5.1 1.1-9 4.7-12 8.7-2.9 4-6.3 9.2-6.3 14.3 0 0.3 0.4 0.4 0.6 0.2z"/>
								</g>
							</g>
						</g>
						<g id="&lt;Group&gt;">
							<g id="&lt;Group&gt;">
								<g id="&lt;Group&gt;">
									<path id="&lt;Path&gt;" class="s1" d="m1443.8 1398.7c-0.7-2.6-3.6-4.2-5.5-5.7-2.9-2.4-6-4.5-9.1-6.4-5.8-3.4-12.6-6.8-19.5-6.3-1.3 0.1-2 1.6-1.1 2.5 4.2 4.7 9.3 7.8 15.3 9.3 0.7 0.2 1.1-0.8 0.5-1.1-4.8-3.1-9.9-5.9-13.7-10.3q-0.5 1.3-1 2.6c7.1-0.4 13.6 3.9 19.1 7.9 2.7 1.9 5.2 3.9 7.8 5.9 1.8 1.3 3.6 3.2 6 3.1 0.8 0 1.4-0.7 1.2-1.5z"/>
								</g>
							</g>
							<g id="&lt;Group&gt;">
								<g id="&lt;Group&gt;">
									<path id="&lt;Path&gt;" class="s1" d="m1424.8 1391.8c-4.5-3.7-11.9-5.1-17.6-4.6-1.2 0.1-1.9 1.5-1 2.5 6.8 7.6 17.8 11.5 27.5 13.6 0.4 0.1 0.8-0.5 0.3-0.7-9.1-4-18.7-7.6-25.7-15q-0.5 1.3-1.1 2.5c6-0.6 11.8 3.1 17.5 2 0.1-0.1 0.2-0.2 0.1-0.3z"/>
								</g>
							</g>
							<g id="&lt;Group&gt;">
								<g id="&lt;Group&gt;">
									<path id="&lt;Path&gt;" class="s1" d="m1439.8 1394.9c-4.4-7.6-17.2-12.1-15.8-22.6q-1.2 0.5-2.3 1c3.7 3.2 7.1 6.8 10.3 10.5 3.2 3.8 6 8.2 9.9 11.3 1.2 1 3.2-0.2 2.3-1.7-5-8.3-12.9-16.8-20.9-22.2-0.9-0.6-2 0.2-2 1.1-0.1 5.1 2.3 9.6 5.4 13.4 3.2 3.8 7.7 8.5 12.8 9.7 0.3 0.1 0.5-0.2 0.3-0.5z"/>
								</g>
							</g>
						</g>
						<g id="&lt;Group&gt;">
							<g id="&lt;Group&gt;">
								<g id="&lt;Group&gt;">
									<path id="&lt;Path&gt;" class="s1" d="m837.5 1437.8c-5.4-10.1-15.5-19-15.4-31.4q-1.4 0.6-2.7 1.1c6.3 6.9 11 15.4 15.8 23.3 0.8 1.2 2.8 0.8 2.8-0.7-0.2-3.4-3.1-7-4.2-10.1-2.1-5.4-3.4-11.1-1.9-16.8q-0.8 0.2-1.6 0.4c5.1 6.3 5.8 14.8 10.3 21.4 0.5 0.7 1.7 0.4 1.7-0.5 0.1-8.3-4.8-16.7-10.7-22.2-0.5-0.5-1.4-0.3-1.6 0.4-1.4 4.7-1 9.5 0.2 14.3 0.7 2.7 1.7 5.3 2.7 7.8 0.6 1.4 2.2 3.7 2.1 5.3q1.4-0.4 2.8-0.8c-4.3-8.8-9.1-17.1-16.2-24-1-1-2.6-0.2-2.7 1.1-0.3 6.3 2 12.6 5 18.1 2.9 5.3 6.6 11.8 12 14.8 1 0.6 2.1-0.5 1.6-1.5z"/>
								</g>
							</g>
							<g id="&lt;Group&gt;">
								<g id="&lt;Group&gt;">
									<path id="&lt;Path&gt;" class="s1" d="m830 1433.9c-3.3-4.7-9.2-8.1-15.1-7.9-0.8 0-1.4 0.8-1.2 1.6 1.5 6 5.8 10.3 10.5 14 4.4 3.4 10.8 8.6 16.5 8.8 0.7 0 1-0.8 0.7-1.3-2.4-4.2-8.1-6.3-11.9-8.9-5.2-3.4-10.8-7.3-13.3-13.3q-0.6 0.9-1.3 1.7c5.9-0.5 9.8 3.1 14.4 6.1 0.4 0.3 1-0.3 0.7-0.8z"/>
								</g>
							</g>
						</g>
					</g>
				</g>
				<g id="&lt;Group&gt;">
					<path id="&lt;Path&gt;" class="s4" d="m1741.8 1444.9c6.1-5.8 19-37.4 0.3-41.8-4.1 0.1-8.1 1.4-11.3 4.3 6.7-19.5 2.9-39.9-21.5-45.5-34.5-7.9-49.5 23.8-53.3 52.1 0.5-19.4-15.4-38.3-27.7-19.9 1.2-12.2-24.5-21.5-32.2-1.5 0.2-6.3-3.5-14.7-11-16.6-10-2.5-16.4 5.3-20.5 13.5 5.2-23.1-31.3-30.3-35.6-6.6 0.6-16.4 1.4-42.4-15.6-44.9-26.6-3.8-41.3 45.8-40.9 70.3-2.8-7.8-37.4 2-19.7 38.1 3.2 6.4 7.1 12.8 11.8 18.6h231.4c15.9-3.3 33.9-8.8 45.8-20.1z"/>
					<g id="&lt;Group&gt;" style="opacity: .2">
						<path id="&lt;Path&gt;" class="s2" d="m1649.4 1413.8c0.2-8.1-3-15.1-6.3-18.4-1.3-1.4-2.7-2.2-3.8-2.2-1.6 0-3.6 1.7-5.5 4.6-1.7 2.5-4.9 3.6-7.7 2.6-2.9-1-4.7-3.9-4.4-6.9 0.1-0.9-0.6-1.9-1.1-2.5-1.9-2.1-5.3-3.4-8.5-3.4-3.2 0-7.5 1.2-9.8 7.4-1.2 3-4.4 4.7-7.5 4.1-3.2-0.7-5.4-3.5-5.3-6.7 0.1-3.4-2-9-6-10q-1.1-0.2-2.1-0.3c-3.8 0-7.4 3.5-10.9 10.4-1.5 3-5 4.4-8.2 3.3-3.1-1.2-4.9-4.5-4.2-7.7 0.8-3.5 0.3-6.4-1.6-8.7-2.2-2.8-6.1-4.5-10.1-4.5-2.8 0-9.4 0.9-10.9 9.2-0.6 3.4-3.8 5.7-7.3 5.3-3.4-0.3-6-3.3-5.9-6.8 0.5-11.8 1.6-36.4-9.9-38-4.8-0.7-9.4 1.2-13.8 5.8-11.9 12-19.8 40.1-19.5 57.8 0.1 3.2-2.2 6-5.4 6.6-3.2 0.6-6.3-1.2-7.4-4.3-0.7-2-2.7-2.4-4.3-2.4q-0.9 0-1.9 0.2c-2.2 5.4-4.1 10.8-1.9 14.5q5.2-1.6 9.9-4c2.2-1.1 4.6-1.7 7.1-1.7 5.5 0 10.2 2.9 12.4 7.5 1.7 3.4 3.4 3.9 5.1 3.9 4.5 0 11.9-4.2 18.3-10.4 2.7-2.7 6.2-4.1 9.9-4.1 4.8 0 9.4 2.5 12.2 6.7q0.3 0.4 0.4 0.5c1.4-0.1 4.3-1.9 6.2-3q1-0.6 1.9-1.1l1.2-0.7c6.5-3.8 13.8-8 22.3-8.5 9.3-0.5 13.4 5 16.4 8.9 0.7 1 1.5 2 2.3 2.9q0.2 0.2 0.2 0.2c1.3-0.1 5.2-2.4 9.3-7.4 2.5-3.1 6.1-4.8 9.9-4.8 5.8 0 11.8 4.1 14.1 9.8 0.9 2.1 1.7 2.1 2.5 2.1 2.6 0 6.5-2 9.4-4.7 2.7-2.5 6.2-3.9 9.9-3.9 4 0 7.7 1.6 10.4 4.4q-0.1-0.8-0.1-1.6z"/>
						<path id="&lt;Path&gt;" class="s2" d="m1743 1409.8q-0.3 0-0.6 0c-2 0-4.8 0.4-7.1 2.5-2.2 2-5.6 2.3-8.1 0.7-2.6-1.7-3.7-4.9-2.7-7.7 3.6-10.2 3.5-19.4-0.1-25.9-3.1-5.5-8.6-9.2-16.6-11-3.1-0.7-6.1-1.1-8.9-1.1-27.8 0-34.9 36.4-36.3 47.6-0.2 1.1-0.6 2.1-1.2 2.9 2.9-1.1 6.2-2.9 9.6-5.1 12-7.8 18.8-15.6 20.1-22.9 1.2-6.7 6.2-11 12.7-11 6.8 0 14.4 5 15.5 13.3q0.3 2.6 0.6 5.4c0.9 7.5 1.8 15.4 4.7 21.4 1.7 3.6 2.8 3.6 3.2 3.6 2.4 0 6.9-2.6 8.4-3.5 2.1-1.3 4.4-1.9 6.8-2z"/>
					</g>
					<path id="&lt;Path&gt;" class="s5" d="m1741.8 1444.9q0.2-0.2 0.5-0.5-1.2-1.3-2.2-2.9c-11.4 4.7-24 4.8-31.9-7-3.7-5.5-5.9-11.7-7.3-18.2-16.5 18.9-45.9 33.9-62.9 19.3-11.8 7.5-25.9 7.8-35.2-1.7-7 5.7-16.2 10.1-24.3 7.7-4.8-1.4-8.4-4-11.5-7.9-0.9-1.1-1.7-2.3-2.5-3.5-0.4 0.1-1.1 0.3-1.9 0.6-8.4 3.3-15.9 10.5-25 12-7 1.1-12.5-0.3-17.2-4-14.8 11.2-36.3 17.9-48.4 2.3-6.2 2.5-12.6 4.2-19.2 5.3 3 6.5 7.1 12.8 11.8 18.6h231.4c15.9-3.3 33.9-8.8 45.8-20.1z"/>
					<g id="&lt;Group&gt;" style="mix-blend-mode: multiply">
						<g id="&lt;Group&gt;">
							<g id="&lt;Group&gt;">
								<g id="&lt;Group&gt;">
									<path id="&lt;Path&gt;" class="s4" d="m1546.5 1410.7c1.4-3.4-0.1-8-0.2-11.6 0-1.8-0.5-6.3 1.1-7.5 1.1-0.8 2.5 3 3 4.2 1.3 3.1 2.2 6.3 2.9 9.6 0.6 2.6 0.5 6.2 2.1 8.4 0.3 0.3 1 0.5 1.2 0 1.6-3.9-0.9-10-2.1-13.7-1.4-4.4-3.3-8.5-7-11.4-0.3-0.3-1-0.1-1.2 0.3-1.8 3.4-2 7-1.7 10.8 0.3 3.5 0.2 7.8 1.7 10.9 0.1 0.2 0.2 0.1 0.2 0z"/>
								</g>
							</g>
							<g id="&lt;Group&gt;">
								<g id="&lt;Group&gt;">
									<path id="&lt;Path&gt;" class="s4" d="m1556.5 1411.4c0.8-2.1 0.6-4.4 0.8-6.6 0.2-3 0.9-5.8 2.5-8.4q-0.7 0-1.4 0c2.3 4.6 1.8 9.9 3.1 14.8 0.2 0.7 1.3 0.6 1.3-0.2 0-5.2-0.7-10.7-3-15.4-0.3-0.6-1.1-0.5-1.4 0-2.8 4.2-4 11-2.3 15.8 0.1 0.2 0.4 0.2 0.4 0z"/>
								</g>
							</g>
							<g id="&lt;Group&gt;">
								<g id="&lt;Group&gt;">
									<path id="&lt;Path&gt;" class="s4" d="m1549.3 1410.2c-3.7-3.4-13.2-5.2-16.3-0.1-0.2 0.3 0.1 0.8 0.6 0.7 3.1-0.9 5.3-2 8.7-1.4 2.3 0.4 4.5 1.3 6.9 1.1 0.1 0 0.2-0.2 0.1-0.3z"/>
								</g>
							</g>
						</g>
						<g id="&lt;Group&gt;">
							<g id="&lt;Group&gt;">
								<g id="&lt;Group&gt;">
									<path id="&lt;Path&gt;" class="s4" d="m1692.6 1454.7c1.4-3.5-0.1-8.1-0.2-11.7-0.1-1.8-0.5-6.3 1-7.4 1.2-0.8 2.6 2.9 3.1 4.1 1.3 3.1 2.2 6.4 2.9 9.6 0.5 2.6 0.4 6.2 2.1 8.4 0.2 0.4 0.9 0.5 1.2 0 1.6-3.8-0.9-10-2.1-13.7-1.4-4.3-3.3-8.5-7-11.3-0.4-0.3-1-0.1-1.2 0.3-1.8 3.4-2 6.9-1.7 10.8 0.2 3.4 0.2 7.7 1.7 10.9 0 0.1 0.2 0 0.2 0z"/>
								</g>
							</g>
							<g id="&lt;Group&gt;">
								<g id="&lt;Group&gt;">
									<path id="&lt;Path&gt;" class="s4" d="m1702.6 1455.3c0.7-2.1 0.5-4.3 0.7-6.5 0.3-3 0.9-5.9 2.5-8.5q-0.7 0-1.4 0c2.4 4.7 1.9 9.9 3.2 14.8 0.2 0.7 1.3 0.6 1.3-0.1-0.1-5.3-0.8-10.7-3.1-15.5-0.2-0.6-1.1-0.5-1.4 0-2.7 4.2-4 11-2.2 15.8 0.1 0.2 0.3 0.2 0.4 0z"/>
								</g>
							</g>
							<g id="&lt;Group&gt;">
								<g id="&lt;Group&gt;">
									<path id="&lt;Path&gt;" class="s4" d="m1695.3 1454.1c-3.6-3.4-13.2-5.2-16.2-0.1-0.3 0.4 0.1 0.9 0.5 0.8 3.1-1 5.4-2.1 8.8-1.5 2.3 0.5 4.4 1.4 6.8 1.2 0.2-0.1 0.3-0.2 0.1-0.4z"/>
								</g>
							</g>
						</g>
						<g id="&lt;Group&gt;">
							<g id="&lt;Group&gt;">
								<g id="&lt;Group&gt;">
									<path id="&lt;Path&gt;" class="s4" d="m1501.9 1377.4c2.5-5.7 2.5-15 8.7-18.2q-0.5-0.3-1-0.6c0.5 6.7-2.1 12.8-3.1 19.3-0.2 0.9 1.1 1.3 1.5 0.4 2.4-6.2 3.5-13.1 3-19.7 0-0.6-0.6-0.9-1.1-0.6-6.1 3.1-7.8 13.2-8.3 19.4 0 0.1 0.2 0.2 0.3 0z"/>
								</g>
							</g>
							<g id="&lt;Group&gt;">
								<g id="&lt;Group&gt;">
									<path id="&lt;Path&gt;" class="s4" d="m1507.7 1378.6c1.6-1.1 2.6-3.2 3.9-4.7 1.6-1.9 3.3-3.5 5.6-4.8q-0.6-0.3-1.2-0.6c-0.3 4.3-4.2 7.4-6.1 11.1-0.2 0.4 0.3 0.7 0.7 0.4 3.4-2.9 6.1-6.9 6.9-11.3 0.1-0.7-0.5-1.2-1.1-0.9-2.2 1.2-4 3-5.6 4.9-1.3 1.6-3 3.6-3.5 5.6 0 0.2 0.2 0.4 0.4 0.3z"/>
								</g>
							</g>
							<g id="&lt;Group&gt;">
								<g id="&lt;Group&gt;">
									<path id="&lt;Path&gt;" class="s4" d="m1503.2 1376.9c-0.8-0.9-1.9-1.6-3.2-1.3-1.3 0.2-2.3 1.4-3 2.4-0.4 0.7 0.6 1.5 1.2 0.9 1.1-1.5 3.1-1.7 4.9-1.7 0.2 0 0.2-0.2 0.1-0.3z"/>
								</g>
							</g>
						</g>
						<g id="&lt;Group&gt;">
							<g id="&lt;Group&gt;">
								<g id="&lt;Group&gt;">
									<path id="&lt;Path&gt;" class="s4" d="m1598.3 1426.4c-5.6-3-14.8-3.6-17.6-10.1q-0.3 0.5-0.6 1.1c6.7-0.1 12.6 2.9 19 4.5 0.8 0.2 1.4-1.1 0.6-1.5-6.1-2.9-12.9-4.5-19.6-4.5-0.6 0-0.8 0.6-0.6 1.1 2.7 6.3 12.6 8.7 18.7 9.6 0.1 0.1 0.2-0.1 0.1-0.2z"/>
								</g>
							</g>
							<g id="&lt;Group&gt;">
								<g id="&lt;Group&gt;">
									<path id="&lt;Path&gt;" class="s4" d="m1599.8 1420.7c-1-1.7-2.9-2.9-4.4-4.3-1.8-1.7-3.3-3.6-4.3-5.9q-0.5 0.6-0.9 1.1c4.4 0.6 7.2 4.7 10.8 6.9 0.3 0.2 0.8-0.2 0.5-0.5-2.6-3.7-6.4-6.7-10.9-7.8-0.7-0.2-1.1 0.5-0.8 1.1 1 2.3 2.6 4.2 4.4 5.8 1.6 1.4 3.4 3.3 5.4 3.9 0.2 0.1 0.3-0.2 0.2-0.3z"/>
								</g>
							</g>
							<g id="&lt;Group&gt;">
								<g id="&lt;Group&gt;">
									<path id="&lt;Path&gt;" class="s4" d="m1597.9 1425c-1 0.7-1.8 1.7-1.6 3.1 0.1 1.3 1.2 2.5 2.3 3.2 0.6 0.5 1.4-0.6 0.8-1.1-1.3-1.3-1.4-3.3-1.3-5.1 0-0.1-0.1-0.2-0.2-0.1z"/>
								</g>
							</g>
						</g>
						<g id="&lt;Group&gt;">
							<g id="&lt;Group&gt;">
								<g id="&lt;Group&gt;">
									<path id="&lt;Path&gt;" class="s4" d="m1459.3 1431.9c1.2-2.2 0.5-5 0.5-7.3 0.1-3.6 0.4-7.3 3.1-9.9q-0.9-0.2-1.8-0.4c2.1 5.1 1 10.7 2.7 15.8 0.2 0.5 0.7 0.4 0.8-0.1 0.5-5.2 0.4-11.4-1.4-16.3-0.3-0.8-1.2-1.2-1.8-0.5-2.4 2.3-3.2 5.3-3.4 8.5-0.2 3-0.7 7.5 0.8 10.2 0.1 0.2 0.4 0.2 0.5 0z"/>
								</g>
							</g>
							<g id="&lt;Group&gt;">
								<g id="&lt;Group&gt;">
									<path id="&lt;Path&gt;" class="s4" d="m1464.5 1429.8c2.6-4.3 2.2-9.6 5.9-13.4q-0.9-0.2-1.7-0.5c1.7 6.8-1.4 14.2-2.3 21 0 0.5 0.8 0.6 1 0.1 2.4-6.7 4.9-14.4 3.2-21.6-0.1-0.7-1.1-1-1.6-0.4-3.7 3.7-5.1 9.6-5.1 14.7 0 0.3 0.4 0.4 0.6 0.1z"/>
								</g>
							</g>
							<g id="&lt;Group&gt;">
								<g id="&lt;Group&gt;">
									<path id="&lt;Path&gt;" class="s4" d="m1454.7 1434.9c1.1-1.4 2.4-2.3 4.1-2.8 1.3-0.4 3.3-0.1 4.3-0.9 0.4-0.2 0.4-0.6 0.2-0.9-1.3-1.4-4.2-0.5-5.6 0.1-1.8 0.8-3.2 2.4-3.2 4.4 0.1 0.1 0.1 0.1 0.2 0.1z"/>
								</g>
							</g>
						</g>
						<g id="&lt;Group&gt;">
							<g id="&lt;Group&gt;">
								<g id="&lt;Group&gt;">
									<path id="&lt;Path&gt;" class="s4" d="m1641.1 1414.3c0.4-2.9-1.8-6.7-3.1-9.4-1.4-3-3.4-5.7-6.6-6.9-0.7-0.3-1.5 0.4-1.5 1.1 0.3 5.3 2.6 11.1 5.2 15.8 0.1 0.3 0.7 0.2 0.7-0.2-0.4-5.4-3.6-10.1-3.6-15.6q-0.7 0.5-1.4 1.1c3.3 1.1 5.1 4.5 6.4 7.5 1 2.2 1.5 5.3 3.4 6.8 0.2 0.1 0.4 0 0.5-0.2z"/>
								</g>
							</g>
							<g id="&lt;Group&gt;">
								<g id="&lt;Group&gt;">
									<path id="&lt;Path&gt;" class="s4" d="m1635.5 1414.2c-2-4.7-5.6-9.6-10.4-11.6-0.8-0.3-1.4 0.6-1.3 1.2 1.2 7.2 6.6 13.4 11.4 18.6 0.3 0.4 1-0.1 0.7-0.6-3.4-5.9-9.1-11.5-10.1-18.5q-0.8 0.6-1.5 1.1c5 2.1 6.7 7.2 10.8 10.2 0.3 0.3 0.6-0.2 0.4-0.4z"/>
								</g>
							</g>
							<g id="&lt;Group&gt;">
								<g id="&lt;Group&gt;">
									<path id="&lt;Path&gt;" class="s4" d="m1646.1 1415.4c-0.7-1.8-2.4-2.7-4.2-2.9-1.7-0.1-4.7 0.2-5.5 2-0.1 0.3-0.1 0.8 0.4 0.9 1.3 0.2 2.6-0.6 3.9-0.9 1.9-0.3 3.7 0.1 5.3 0.9 0.1 0.1 0.2 0 0.1 0z"/>
								</g>
							</g>
						</g>
						<g id="&lt;Group&gt;">
							<g id="&lt;Group&gt;">
								<g id="&lt;Group&gt;">
									<path id="&lt;Path&gt;" class="s4" d="m1706.6 1396c2.1-5.4 6.3-14.4 1.9-19.6-0.4-0.5-1.1-0.3-1.4 0.1-2.6 3.5-3.7 8.2-3.7 12.5 0 0.9 1.3 1 1.6 0.2 1.2-4 1.2-8.2 3.6-11.8q-0.7 0.1-1.4 0.2c4.3 4.6-1.1 13-1.6 18.3-0.1 0.6 0.8 0.6 1 0.1z"/>
								</g>
							</g>
							<g id="&lt;Group&gt;">
								<g id="&lt;Group&gt;">
									<path id="&lt;Path&gt;" class="s4" d="m1704.2 1390.9c1.9-3.4 1.3-8.5-0.8-11.6-0.4-0.7-1.4-0.5-1.6 0.2-1.8 4.8-3.1 10.2-2.3 15.3 0.1 0.5 0.7 0.3 0.9 0 1.9-4.7 0.8-10 3-14.6q-0.8 0-1.6 0c2 3.4 1.8 6.8 2.1 10.6 0 0.2 0.2 0.3 0.3 0.1z"/>
								</g>
							</g>
							<g id="&lt;Group&gt;">
								<g id="&lt;Group&gt;">
									<path id="&lt;Path&gt;" class="s4" d="m1703.5 1390.7q0-0.1 0.1 0 0.1 0.1 0.2 0.1c0.1 0 0.2 0 0.3 0.1 0.2 0.2 0.4 0.4 0.6 0.6 0.2 0.2 0.6 0 0.6-0.3 0.1-0.5-0.1-1-0.6-1.3-0.5-0.4-0.9-0.3-1.4 0-0.4 0.2-0.2 0.8 0.2 0.8z"/>
								</g>
							</g>
							<g id="&lt;Group&gt;">
								<g id="&lt;Group&gt;">
									<path id="&lt;Path&gt;" class="s4" d="m1705.8 1397.4c1 0.4 1.9 0.9 2.7 1.7 0.6 0.7 1 1.6 1.7 2.2 0.3 0.3 0.9 0.2 1-0.3 0.3-1.1-0.6-2.4-1.4-3.2-1-1-2.2-1.6-3.6-2-1-0.2-1.4 1.3-0.4 1.6z"/>
								</g>
							</g>
						</g>
						<g id="&lt;Group&gt;">
							<g id="&lt;Group&gt;">
								<g id="&lt;Group&gt;">
									<path id="&lt;Path&gt;" class="s4" d="m1642.7 1456.8c2.1-5.4 6.3-14.4 1.9-19.7-0.4-0.4-1.1-0.2-1.4 0.2-2.6 3.5-3.7 8.2-3.7 12.4 0 0.9 1.3 1.1 1.6 0.3 1.2-4 1.3-8.2 3.6-11.8q-0.7 0.1-1.4 0.2c4.3 4.6-1.1 13-1.6 18.3 0 0.6 0.8 0.6 1 0.1z"/>
								</g>
							</g>
							<g id="&lt;Group&gt;">
								<g id="&lt;Group&gt;">
									<path id="&lt;Path&gt;" class="s4" d="m1640.4 1451.7c1.8-3.4 1.2-8.5-0.9-11.6-0.4-0.7-1.4-0.5-1.6 0.2-1.7 4.8-3.1 10.1-2.3 15.3 0.1 0.5 0.8 0.3 0.9 0 1.9-4.7 0.8-10 3-14.6q-0.8 0-1.5 0c1.9 3.4 1.7 6.8 2 10.6 0 0.2 0.3 0.3 0.4 0.1z"/>
								</g>
							</g>
							<g id="&lt;Group&gt;">
								<g id="&lt;Group&gt;">
									<path id="&lt;Path&gt;" class="s4" d="m1639.6 1451.5q0-0.1 0.1 0 0.1 0 0.2 0.1c0.1 0 0.2 0 0.3 0.1 0.2 0.2 0.4 0.4 0.6 0.6 0.2 0.2 0.6 0 0.6-0.3 0.1-0.6-0.1-1-0.6-1.3-0.5-0.4-0.9-0.3-1.4-0.1-0.4 0.3-0.2 0.9 0.2 0.9z"/>
								</g>
							</g>
							<g id="&lt;Group&gt;">
								<g id="&lt;Group&gt;">
									<path id="&lt;Path&gt;" class="s4" d="m1641.9 1458.2c1.1 0.4 2 1 2.8 1.8 0.6 0.7 1 1.6 1.7 2.2 0.3 0.2 0.8-0.1 0.9-0.4 0.3-1.2-0.5-2.4-1.4-3.2-1-1-2.2-1.6-3.6-2-1-0.3-1.4 1.3-0.4 1.6z"/>
								</g>
							</g>
						</g>
						<g id="&lt;Group&gt;">
							<g id="&lt;Group&gt;">
								<g id="&lt;Group&gt;">
									<path id="&lt;Path&gt;" class="s4" d="m1730.5 1429.6c2.1-5.4 6.3-14.4 1.8-19.7-0.4-0.5-1.1-0.2-1.4 0.2-2.5 3.5-3.6 8.2-3.6 12.4 0 0.9 1.3 1.1 1.5 0.2 1.2-3.9 1.3-8.2 3.7-11.7q-0.7 0.1-1.4 0.2c4.3 4.6-1.1 13-1.6 18.3-0.1 0.6 0.8 0.6 1 0.1z"/>
								</g>
							</g>
							<g id="&lt;Group&gt;">
								<g id="&lt;Group&gt;">
									<path id="&lt;Path&gt;" class="s4" d="m1728.1 1424.5c1.8-3.4 1.2-8.5-0.8-11.6-0.5-0.7-1.4-0.5-1.7 0.2-1.7 4.8-3.1 10.1-2.2 15.2 0.1 0.5 0.7 0.4 0.9 0 1.8-4.6 0.8-9.9 3-14.5q-0.8 0-1.6 0c2 3.4 1.8 6.8 2.1 10.6 0 0.1 0.2 0.2 0.3 0.1z"/>
								</g>
							</g>
							<g id="&lt;Group&gt;">
								<g id="&lt;Group&gt;">
									<path id="&lt;Path&gt;" class="s4" d="m1727.4 1424.3q0-0.1 0.1 0 0 0 0.2 0.1c0.1 0 0.1 0 0.3 0.1q0.3 0.3 0.6 0.6c0.2 0.2 0.6 0 0.6-0.3 0-0.6-0.1-1-0.6-1.3-0.5-0.4-0.9-0.3-1.4-0.1-0.4 0.2-0.2 0.9 0.2 0.9z"/>
								</g>
							</g>
							<g id="&lt;Group&gt;">
								<g id="&lt;Group&gt;">
									<path id="&lt;Path&gt;" class="s4" d="m1729.6 1431c1.1 0.4 2.1 0.9 2.8 1.8 0.7 0.7 1.1 1.6 1.8 2.1 0.3 0.3 0.8 0 0.9-0.3 0.3-1.2-0.6-2.5-1.4-3.2-1-1-2.3-1.6-3.6-2-1.1-0.3-1.5 1.3-0.5 1.6z"/>
								</g>
							</g>
						</g>
						<g id="&lt;Group&gt;">
							<g id="&lt;Group&gt;">
								<g id="&lt;Group&gt;">
									<path id="&lt;Path&gt;" class="s4" d="m1511.4 1413.1c-1.7-4.4-10.6-12.8-6.8-17.6q-0.7 0-1.4 0c3.6 3 5 7.3 7.4 11.1 0.6 0.8 1.9 0.3 1.6-0.7-1.3-4.6-4-9.1-7.8-12-0.5-0.3-1.1 0-1.4 0.4-4.2 6 4.1 15 7.5 19.4 0.3 0.4 1.1-0.1 0.9-0.6z"/>
								</g>
							</g>
							<g id="&lt;Group&gt;">
								<g id="&lt;Group&gt;">
									<path id="&lt;Path&gt;" class="s4" d="m1512.2 1407.9c-0.7-3.6-2-7.1-0.4-10.6q-0.8 0.1-1.6 0.2c3.7 4 4.1 9.8 7.5 14 0.2 0.3 0.9 0 0.8-0.4-0.5-5.5-3.5-10.6-6.7-14.9-0.4-0.5-1.4-0.8-1.8 0-1.6 3.7-1.1 9 1.9 11.9 0.1 0.1 0.4 0 0.3-0.2z"/>
								</g>
							</g>
							<g id="&lt;Group&gt;">
								<g id="&lt;Group&gt;">
									<path id="&lt;Path&gt;" class="s4" d="m1512.7 1406.8q-0.3-0.1-0.1 0-0.1-0.1-0.2-0.1-0.3-0.1-0.5 0-0.5 0.1-0.8 0.4c-0.5 0.4-0.6 0.9-0.4 1.5 0.1 0.3 0.5 0.4 0.7 0.1 0.1-0.1 0.2-0.2 0.3-0.3 0.1-0.1 0.2-0.2 0.3-0.3 0.1-0.1 0.2-0.1 0.3-0.2 0.2-0.1 0.3-0.1 0.4-0.3q-0.1 0.1-0.3 0.2 0.1 0 0.3 0c0.5-0.1 0.4-0.8 0-1z"/>
								</g>
							</g>
							<g id="&lt;Group&gt;">
								<g id="&lt;Group&gt;">
									<path id="&lt;Path&gt;" class="s4" d="m1511 1413.1c-1.5 0.5-2.9 1.3-3.9 2.5-0.8 1-1.5 2.5-0.9 3.7 0.1 0.3 0.7 0.4 1 0.1 0.7-0.7 0.9-1.7 1.5-2.5 0.8-1 1.9-1.6 3-2.1 1-0.4 0.3-2-0.7-1.7z"/>
								</g>
							</g>
						</g>
						<g id="&lt;Group&gt;">
							<g id="&lt;Group&gt;">
								<g id="&lt;Group&gt;">
									<path id="&lt;Path&gt;" class="s4" d="m1489.3 1446.6c0.8-2.2 0.2-5.1 0.2-7.4 0-3.4 0.1-7.4 2.3-10.1q-0.6-0.2-1.2-0.4c0.6 2.8 0.3 5.6 0.1 8.4-0.1 0.3 0.5 0.4 0.6 0.1 1.1-3 1.3-5.8 0.7-8.9-0.1-0.5-0.9-0.7-1.2-0.3-2 2.4-2.7 5.4-3.1 8.4-0.4 3-1 7.3 0.2 10.2 0.3 0.7 1.1 0.7 1.4 0z"/>
								</g>
							</g>
							<g id="&lt;Group&gt;">
								<g id="&lt;Group&gt;">
									<path id="&lt;Path&gt;" class="s4" d="m1491 1437.5c2.1-1.9 2.3-5.3 4.3-7.4q-0.7-0.2-1.3-0.3c0.9 4.8-0.4 9.7-1.5 14.4-0.1 0.2 0.3 0.4 0.4 0.2 1.9-4.6 3.6-10 2.5-15-0.1-0.5-0.8-0.7-1.2-0.3-1.8 2-3.5 5.5-3.3 8.3 0 0.1 0.1 0.1 0.1 0.1z"/>
								</g>
							</g>
							<g id="&lt;Group&gt;">
								<g id="&lt;Group&gt;">
									<path id="&lt;Path&gt;" class="s4" d="m1488 1444.3c1.8-4.1-0.1-11.3-3.9-13.9-0.4-0.4-1 0.1-1 0.5-0.1 4.8 1 10.2 2.7 14.6 0.3 0.7 1.5 0.7 1.5-0.2-0.4-4.9-2.4-9.5-2.8-14.4q-0.5 0.3-1 0.6c4.5 2.5 2.5 8.9 4.3 12.8 0 0.1 0.2 0.1 0.2 0z"/>
								</g>
							</g>
						</g>
						<g id="&lt;Group&gt;">
							<g id="&lt;Group&gt;">
								<g id="&lt;Group&gt;">
									<path id="&lt;Path&gt;" class="s4" d="m1542.5 1456.8c0.8-2.2 0.2-5.1 0.2-7.4 0-3.4 0.1-7.3 2.3-10.1q-0.6-0.2-1.2-0.3c0.6 2.8 0.3 5.5 0.1 8.3 0 0.4 0.5 0.4 0.6 0.1 1.1-2.9 1.3-5.7 0.7-8.8-0.1-0.5-0.8-0.8-1.2-0.3-1.9 2.3-2.7 5.3-3.1 8.3-0.4 3-1 7.4 0.2 10.2 0.3 0.7 1.1 0.7 1.4 0z"/>
								</g>
							</g>
							<g id="&lt;Group&gt;">
								<g id="&lt;Group&gt;">
									<path id="&lt;Path&gt;" class="s4" d="m1544.3 1447.7c2-1.9 2.2-5.2 4.2-7.4q-0.6-0.2-1.2-0.3c0.8 4.9-0.5 9.7-1.6 14.4 0 0.2 0.3 0.4 0.4 0.2 2-4.6 3.6-10 2.6-15-0.1-0.5-0.9-0.7-1.3-0.3-1.8 2.1-3.5 5.5-3.3 8.4 0 0 0.1 0.1 0.2 0z"/>
								</g>
							</g>
							<g id="&lt;Group&gt;">
								<g id="&lt;Group&gt;">
									<path id="&lt;Path&gt;" class="s4" d="m1541.3 1454.6c1.8-4.2-0.2-11.4-3.9-14-0.5-0.3-1 0.1-1.1 0.6-0.1 4.7 1 10.1 2.8 14.5 0.2 0.7 1.4 0.7 1.4-0.2-0.4-4.8-2.4-9.4-2.8-14.3q-0.5 0.2-1 0.5c4.5 2.6 2.5 8.9 4.3 12.9 0 0.1 0.2 0.1 0.3 0z"/>
								</g>
							</g>
						</g>
						<g id="&lt;Group&gt;">
							<g id="&lt;Group&gt;">
								<g id="&lt;Group&gt;">
									<path id="&lt;Path&gt;" class="s4" d="m1682.1 1425.9c-1.4-2.5-5.1-4.5-7.5-5.9-2.8-1.6-5.9-3.1-9.2-2.9-0.6 0-0.9 0.8-0.5 1.3 2.1 2.2 4.5 3.7 7.5 4.5 0.4 0.1 0.6-0.4 0.3-0.6-2.4-1.4-4.9-2.9-6.8-5q-0.2 0.6-0.5 1.3c3.5-0.2 6.6 1.9 9.4 3.8 1.9 1.4 4.1 3.9 6.5 4.5 0.6 0.1 1.1-0.5 0.8-1z"/>
								</g>
							</g>
							<g id="&lt;Group&gt;">
								<g id="&lt;Group&gt;">
									<path id="&lt;Path&gt;" class="s4" d="m1672.9 1422.8c-2.2-1.8-5.9-2.6-8.7-2.3-0.6 0-0.9 0.7-0.5 1.2 3.4 3.8 8.8 5.7 13.5 6.7 0.3 0.1 0.4-0.2 0.2-0.3-4.5-2-9.2-3.8-12.7-7.4q-0.2 0.6-0.5 1.2c3-0.3 5.8 1.5 8.6 1 0.1 0 0.1-0.1 0.1-0.1z"/>
								</g>
							</g>
							<g id="&lt;Group&gt;">
								<g id="&lt;Group&gt;">
									<path id="&lt;Path&gt;" class="s4" d="m1680.3 1424.3c-2.2-3.8-8.5-6-7.8-11.1q-0.6 0.2-1.2 0.5c1.9 1.5 3.5 3.3 5.1 5.1 1.6 1.9 2.9 4.1 4.9 5.6 0.6 0.5 1.5-0.1 1.1-0.9-1.3-2.1-3.1-4-4.8-5.9-1.6-1.9-3.4-3.6-5.5-5-0.4-0.3-0.9 0.1-1 0.6 0 2.5 1.2 4.7 2.7 6.5 1.6 1.9 3.8 4.3 6.3 4.8 0.1 0 0.2-0.1 0.2-0.2z"/>
								</g>
							</g>
						</g>
					</g>
				</g>
				<g id="&lt;Group&gt;">
					<path id="&lt;Path&gt;" class="s4" d="m620.1 1403.6c16.5-25.6-30.3-44.8-60.4-14.6 21.2-35.1-34.6-65.5-60.8-41.3 13.7-39.6 5.8-81.2-43.9-92.6-70.1-16-100.7 48.3-108.4 106 0.6-25.1-12.5-54.8-28.2-54.8-15.7 0-46.8 19.5-28.8 68.4 2.2 6.2-4.1 12-10.5 10.4-30.1-7.5-51.6 21-44.3 49.4 3.1 12 9.5 22.1 17.9 30.5h398.6c30.3-34.7-13.3-75.7-31.2-61.4z"/>
					<g id="&lt;Group&gt;" style="opacity: .2">
						<path id="&lt;Path&gt;" class="s2" d="m509.7 1371.3c4.5-2.6 9.5-4 14.6-4 9.9 0 19.1 5.2 24.6 13.5 2.7-5.1 2.7-9.8 0.1-14.4-4.5-7.9-15.9-13.9-26.5-13.9-4.1 0-9.9 0.9-14.5 5.1-4.5 4.2-11.3 4.8-16.5 1.4-5.2-3.4-7.4-9.8-5.4-15.7 7.2-20.6 7.1-39.4-0.3-52.7-6.2-11.1-17.5-18.6-33.8-22.3-6.2-1.5-12.3-2.2-18-2.2-56.7 0-71 74.1-74 96.8-0.4 2.2-1.2 4.3-2.4 6 5.9-2.3 12.6-5.9 19.5-10.3 24.5-16.1 38.4-31.8 41-46.8 2.5-13.6 12.6-22.4 25.8-22.4 13.7 0 29.3 10.2 31.5 27.2 0.5 3.5 0.9 7.2 1.4 10.9 1.7 15.4 3.6 31.3 9.4 43.6 3.5 7.3 5.8 7.3 6.6 7.3 4.9 0 14-5.3 16.9-7.1z"/>
					</g>
					<path id="&lt;Path&gt;" class="s6" d="m655 1459.6q-5.3 0.1-10.4-0.1c-20.8-0.6-48.4-4.6-62.1-21.6-25.6 7.6-50.1 1.1-64.8-20.7-23.2 9.5-48.7 9.6-64.9-14.4-7.5-11.1-11.9-23.7-14.9-36.9-33.4 38.5-93.4 68.9-127.9 39.3-23.9 15-52.3 15.7-71.2-2.9-5.2 9.1-7 20.6-4 32.2 3.1 12 9.5 22.1 17.9 30.5h398.6q1.8-2.6 3.7-5.4z"/>
					<g id="&lt;Group&gt;" style="mix-blend-mode: multiply">
						<g id="&lt;Group&gt;">
							<g id="&lt;Group&gt;">
								<g id="&lt;Group&gt;">
									<path id="&lt;Path&gt;" class="s4" d="m421.1 1443.9c3-4.9 0.3-13.6-0.1-19.1-0.7-7.8-0.8-16.1 2.8-23.2q-1.2 0.3-2.4 0.6c7.3 4.6 10 16.7 12 24.5 1.2 4.5 2.1 9 2.9 13.5 0.5 3.4 0.5 7.5 3 10.2 0.7 0.6 1.8 0.5 2.3-0.3 2-3.3 0.6-7.8-0.1-11.3-1.1-5.6-2.4-11.1-4.2-16.5-2.7-8.7-6.5-17.7-14.1-23.2-0.8-0.5-2-0.1-2.5 0.7-3.9 6.7-4.1 14.3-3.5 21.9 0.3 4.1 0.9 8.1 1.3 12.2 0.4 3.4 0.2 7.1 2.1 10 0.1 0.2 0.4 0.2 0.5 0z"/>
								</g>
							</g>
							<g id="&lt;Group&gt;">
								<g id="&lt;Group&gt;">
									<path id="&lt;Path&gt;" class="s4" d="m441.4 1445.3c1.6-4.6 1.1-9.2 1.6-14 0.5-5.9 1.9-11.5 5.1-16.6q-1.5 0-2.9 0c4.8 9.4 3.7 20.1 6.4 30.2 0.4 1.4 2.6 1.1 2.6-0.4-0.1-10.6-1.4-21.8-6.1-31.5-0.6-1.2-2.3-0.9-2.9 0-5.8 8.7-8 22.4-4.5 32.3 0.1 0.4 0.6 0.4 0.7 0z"/>
								</g>
							</g>
							<g id="&lt;Group&gt;">
								<g id="&lt;Group&gt;">
									<path id="&lt;Path&gt;" class="s4" d="m426.7 1442.8c-7.2-6.6-27.3-10.9-33.2-0.2-0.4 0.8 0.3 1.7 1.2 1.5 2.5-0.7 4.7-2.2 7.2-2.9 3.2-0.8 6.7-0.6 9.9-0.1 4.9 0.8 9.6 2.9 14.6 2.4 0.3 0 0.6-0.4 0.3-0.7z"/>
								</g>
							</g>
						</g>
						<g id="&lt;Group&gt;">
							<g id="&lt;Group&gt;">
								<g id="&lt;Group&gt;">
									<path id="&lt;Path&gt;" class="s4" d="m437.2 1324.5c4.1-10.8 13-29.6 3.7-40-0.8-0.9-2.1-0.5-2.8 0.4-5.3 6.9-7.4 16.7-7.4 25.3 0 1.8 2.6 2.1 3.2 0.4 2.3-8 2.5-16.8 7.3-23.9q-1.4 0.2-2.8 0.4c5.2 5.3 2.7 13.9 1 20.2-1.5 5.6-3.7 11.1-4.3 17-0.1 1.2 1.7 1.2 2.1 0.2z"/>
								</g>
							</g>
							<g id="&lt;Group&gt;">
								<g id="&lt;Group&gt;">
									<path id="&lt;Path&gt;" class="s4" d="m432.4 1314.1c3.7-6.7 2.5-17.4-1.7-23.6-1-1.3-2.9-1.1-3.4 0.5-3.5 9.7-6.3 20.6-4.5 31 0.1 1 1.4 0.8 1.7 0 3.9-9.4 1.7-20.3 6.2-29.6q-1.6 0-3.2 0c4.1 6.9 3.6 13.8 4.2 21.5 0 0.4 0.5 0.6 0.7 0.2z"/>
								</g>
							</g>
							<g id="&lt;Group&gt;">
								<g id="&lt;Group&gt;">
									<path id="&lt;Path&gt;" class="s4" d="m430.9 1313.7c0.2 0 0.2 0 0.4 0.1q-0.4-0.4-0.8-0.8 0 0 0 0c0.2 0.4 0.5 0.8 0.9 0.9 0.4 0.1 0.5 0.1 0.8 0.5 0.3 0.3 0.7 0.6 1.1 0.9 0.5 0.5 1.2 0.1 1.3-0.5 0-0.9-0.1-1.5-0.7-2.2-0.5-0.5-1.1-1-1.9-1.1-0.5 0-1.1 0.1-1.3 0.6q-0.1 0-0.1 0.1 0.2-0.2 0.4-0.4-0.3 0.1-0.5 0.2c-0.8 0.5-0.5 1.7 0.4 1.7z"/>
								</g>
							</g>
							<g id="&lt;Group&gt;">
								<g id="&lt;Group&gt;">
									<path id="&lt;Path&gt;" class="s4" d="m435.5 1327.4c2.2 0.8 4.1 1.9 5.7 3.7 1.2 1.4 2 3.2 3.6 4.4 0.6 0.4 1.5-0.1 1.7-0.8 0.6-2.4-1.1-4.9-2.8-6.6-2-1.9-4.6-3.2-7.3-3.9-2.1-0.6-3 2.6-0.9 3.2z"/>
								</g>
							</g>
						</g>
						<g id="&lt;Group&gt;">
							<g id="&lt;Group&gt;">
								<g id="&lt;Group&gt;">
									<path id="&lt;Path&gt;" class="s4" d="m319.6 1448.3c4.1-10.9 13-29.7 3.7-40.1-0.8-0.9-2.1-0.5-2.8 0.4-5.3 6.9-7.4 16.7-7.4 25.3-0.1 1.8 2.6 2.2 3.1 0.4 2.4-8 2.5-16.8 7.4-23.9q-1.4 0.2-2.8 0.4c5.2 5.3 2.7 13.9 1 20.2-1.5 5.6-3.8 11.1-4.3 17-0.1 1.2 1.7 1.3 2.1 0.3z"/>
								</g>
							</g>
							<g id="&lt;Group&gt;">
								<g id="&lt;Group&gt;">
									<path id="&lt;Path&gt;" class="s4" d="m314.8 1437.8c3.7-6.6 2.5-17.4-1.7-23.6-1-1.3-2.9-1-3.4 0.5-3.5 9.7-6.3 20.7-4.5 31 0.1 1 1.4 0.8 1.7 0 3.8-9.4 1.7-20.3 6.2-29.6q-1.6 0-3.2 0c4.1 7 3.6 13.8 4.1 21.5 0.1 0.4 0.6 0.6 0.8 0.2z"/>
								</g>
							</g>
							<g id="&lt;Group&gt;">
								<g id="&lt;Group&gt;">
									<path id="&lt;Path&gt;" class="s4" d="m313.3 1437.4c0.2 0 0.2 0 0.4 0.1q-0.4-0.4-0.8-0.8 0 0 0 0.1c0.1 0.3 0.5 0.8 0.9 0.8 0.4 0.1 0.5 0.2 0.8 0.5 0.3 0.4 0.7 0.6 1.1 1 0.5 0.4 1.2 0 1.2-0.6 0.1-0.8 0-1.5-0.6-2.2-0.5-0.5-1.2-0.9-1.9-1-0.6-0.1-1.3 0.1-1.5 0.8q0 0 0 0 0.4-0.3 0.8-0.7-0.4 0.1-0.8 0.3c-0.8 0.5-0.5 1.7 0.4 1.7z"/>
								</g>
							</g>
							<g id="&lt;Group&gt;">
								<g id="&lt;Group&gt;">
									<path id="&lt;Path&gt;" class="s4" d="m317.9 1451.2c2.2 0.7 4.1 1.8 5.7 3.6 1.2 1.4 2 3.2 3.6 4.4 0.6 0.4 1.5-0.1 1.7-0.7 0.6-2.5-1.1-5-2.8-6.6-2-2-4.6-3.3-7.3-4-2.1-0.6-3 2.6-0.9 3.3z"/>
								</g>
							</g>
						</g>
						<g id="&lt;Group&gt;">
							<g id="&lt;Group&gt;">
								<g id="&lt;Group&gt;">
									<path id="&lt;Path&gt;" class="s4" d="m478.8 1386.7c4.1-10.8 13-29.6 3.7-40-0.8-1-2.1-0.5-2.8 0.3-5.3 7-7.4 16.8-7.4 25.3 0 1.9 2.6 2.2 3.2 0.5 2.4-8 2.5-16.9 7.3-23.9q-1.4 0.1-2.8 0.3c5.2 5.3 2.7 13.9 1 20.2-1.5 5.7-3.7 11.2-4.2 17-0.2 1.3 1.6 1.3 2 0.3z"/>
								</g>
							</g>
							<g id="&lt;Group&gt;">
								<g id="&lt;Group&gt;">
									<path id="&lt;Path&gt;" class="s4" d="m474 1376.3c3.7-6.7 2.5-17.4-1.7-23.6-0.9-1.4-2.8-1.1-3.4 0.4-3.5 9.7-6.3 20.7-4.5 31.1 0.2 1 1.4 0.7 1.7 0 3.9-9.4 1.7-20.3 6.2-29.7q-1.6 0-3.2 0c4.1 7 3.6 13.9 4.2 21.6 0 0.3 0.5 0.5 0.7 0.2z"/>
								</g>
							</g>
							<g id="&lt;Group&gt;">
								<g id="&lt;Group&gt;">
									<path id="&lt;Path&gt;" class="s4" d="m472.6 1375.9c0.1 0 0.1 0 0.3 0q-0.3-0.2-0.7-0.5c0.3 0.7 1.1 0.6 1.4 0.9 0.2 0.2 0.4 0.4 0.6 0.6 0.2 0.2 0.5 0.4 0.7 0.6 0.5 0.5 1.2 0.1 1.3-0.5 0.1-0.9-0.1-1.6-0.7-2.2-0.5-0.6-1.1-1-1.9-1.1-0.5-0.1-1 0.1-1.3 0.6q-0.1 0-0.1 0 0.2-0.2 0.4-0.4-0.2 0.1-0.5 0.3c-0.8 0.4-0.5 1.7 0.5 1.7z"/>
								</g>
							</g>
							<g id="&lt;Group&gt;">
								<g id="&lt;Group&gt;">
									<path id="&lt;Path&gt;" class="s4" d="m477.1 1389.6c2.2 0.7 4.1 1.9 5.7 3.6 1.3 1.5 2.1 3.3 3.6 4.4 0.6 0.5 1.5 0 1.7-0.7 0.6-2.4-1.1-5-2.8-6.6-2-1.9-4.6-3.2-7.3-4-2.1-0.5-3 2.6-0.9 3.3z"/>
								</g>
							</g>
						</g>
						<g id="&lt;Group&gt;">
							<g id="&lt;Group&gt;">
								<g id="&lt;Group&gt;">
									<path id="&lt;Path&gt;" class="s4" d="m326 1374.3c-1.2-11.6-1.6-32.6-14.7-37.6-0.9-0.4-2.1 0.3-2.2 1.2-1.7 8.8 0.8 18.5 4.7 26.4 0.9 1.8 3.2 0.5 2.9-1.2-1.4-8-5.3-15.9-4.2-24.2q-1.1 0.6-2.2 1.2c6.8 2.3 8.5 10.7 9.8 16.8 1.3 5.9 1.7 12.1 3.9 17.7 0.4 1 2.1 1 2-0.3z"/>
								</g>
							</g>
							<g id="&lt;Group&gt;">
								<g id="&lt;Group&gt;">
									<path id="&lt;Path&gt;" class="s4" d="m317 1366.9c0.4-7.6-5.6-16.6-12.2-20.3-1.1-0.6-2.9 0.2-2.7 1.6 1.2 10.3 3.5 21.5 9.8 30 0.5 0.7 1.8 0.5 1.7-0.5-0.8-10.2-7.7-19-7.9-29.5q-1.3 0.8-2.7 1.6c6.7 4.4 9.3 10.8 13.3 17.3 0.2 0.4 0.7 0.2 0.7-0.2z"/>
								</g>
							</g>
							<g id="&lt;Group&gt;">
								<g id="&lt;Group&gt;">
									<path id="&lt;Path&gt;" class="s4" d="m315.6 1367.2q0.2-0.1 0.3-0.1-0.5-0.1-1-0.3c0.3 0.3 0.6 0.5 1.1 0.4 0.2 0 0.4-0.1 0.7 0 0.2 0 0.5 0.2 0.8 0.3 0.3 0 0.6 0.1 0.9 0.2 0.5 0.1 1.1-0.4 0.9-1-0.3-0.8-0.7-1.4-1.5-1.7-0.8-0.3-1.6-0.4-2.3-0.2-0.5 0.2-0.9 0.7-0.9 1.2q0 0.1 0 0.1 0.1-0.4 0.3-0.8-0.3 0.3-0.5 0.7c-0.5 0.8 0.5 1.6 1.2 1.2z"/>
								</g>
							</g>
							<g id="&lt;Group&gt;">
								<g id="&lt;Group&gt;">
									<path id="&lt;Path&gt;" class="s4" d="m325.9 1377.5c2.4-0.4 4.6-0.1 6.8 0.8 1.6 0.6 3.1 1.8 4.7 2.1 0.9 0.2 1.7-0.5 1.5-1.4-0.5-2.4-3.2-3.9-5.3-4.6-2.8-0.9-5.7-0.8-8.6-0.2-2.2 0.4-1.2 3.6 0.9 3.3z"/>
								</g>
							</g>
						</g>
						<g id="&lt;Group&gt;">
							<g id="&lt;Group&gt;">
								<g id="&lt;Group&gt;">
									<path id="&lt;Path&gt;" class="s4" d="m524.9 1425c0.1-11.3 1.9-32.5-10.3-38.8-1-0.6-2.3-0.1-2.6 1-2.5 8.4-1.2 18.3 1.8 26.4 0.5 1.6 3.3 1.5 3.1-0.4-0.5-8.3-3.5-16.7-1.4-25q-1.4 0.5-2.7 1.1c6.7 3.1 7.5 11.7 8.2 18.2 0.6 5.9 0.3 12 1.9 17.8 0.3 1.1 2 0.9 2-0.3z"/>
								</g>
							</g>
							<g id="&lt;Group&gt;">
								<g id="&lt;Group&gt;">
									<path id="&lt;Path&gt;" class="s4" d="m516.8 1416.9c1.2-7.8-3.8-17.3-10.1-21.8-1.2-0.8-2.8 0.3-2.8 1.6 0.2 10.4 1.3 21.7 6.6 30.8 0.4 0.8 1.6 0.4 1.7-0.4 0.3-10.4-5.5-19.9-4.6-30.4q-1.6 0.7-3.1 1.3c6.2 5.1 8.3 11.9 11.6 18.9 0.1 0.3 0.6 0.3 0.7 0z"/>
								</g>
							</g>
							<g id="&lt;Group&gt;">
								<g id="&lt;Group&gt;">
									<path id="&lt;Path&gt;" class="s4" d="m515.2 1417q0.3-0.1 0.6-0.2-0.5-0.1-1.1-0.3c0.3 0.4 0.7 0.5 1.1 0.4 0.3 0 0.4 0 0.6 0.1 0.2 0 0.4 0.2 0.6 0.3 0.3 0.1 0.7 0.2 1 0.3 0.5 0.3 1.2-0.2 1.1-0.8-0.2-0.9-0.6-1.5-1.4-1.9q-1.1-0.6-2.4-0.3c-0.3 0-0.8 0.4-0.8 0.8q0 0.1 0 0.1 0.1-0.2 0.2-0.4-0.2 0.1-0.4 0.3c-0.5 0.7 0 1.9 0.9 1.6z"/>
								</g>
							</g>
							<g id="&lt;Group&gt;">
								<g id="&lt;Group&gt;">
									<path id="&lt;Path&gt;" class="s4" d="m524.2 1428.2c2.4 0 4.7 0.3 6.8 1.5 1.6 0.8 3 2.3 4.7 2.8 0.7 0.2 1.6-0.4 1.5-1.2-0.7-5.4-8.6-6.9-13-6.5-2.1 0.2-2.2 3.5 0 3.4z"/>
								</g>
							</g>
						</g>
						<g id="&lt;Group&gt;">
							<g id="&lt;Group&gt;">
								<g id="&lt;Group&gt;">
									<path id="&lt;Path&gt;" class="s4" d="m587 1398.3c-1.8 2-1.4 5.1-1.5 7.7-0.2 3.9-0.1 7.8 0.3 11.8 0.7 6.7 2 13.9 6.5 19.2 0.7 0.8 2.3 0.4 2.5-0.7 1.3-6.2 0.9-12.1-1.5-17.9-0.2-0.6-1.3-0.6-1.2 0.1 0.4 5.7 1.1 11.4-0.1 17q1.2-0.3 2.4-0.6c-4.6-5.7-4.7-14-4.7-21 0-4.2 1.7-12.1-1-15.6-0.4-0.5-1.4-0.5-1.7 0z"/>
								</g>
							</g>
							<g id="&lt;Group&gt;">
								<g id="&lt;Group&gt;">
									<path id="&lt;Path&gt;" class="s4" d="m592.5 1417.8c-0.3 5.8 3.1 12.8 6.8 17.1 0.7 0.8 2.2 0.4 2.5-0.7 2.1-10.1-1.2-21.3-5.3-30.5-0.2-0.4-0.8-0.1-0.7 0.3 2.2 9.7 4.9 19.5 3.1 29.4q1.3-0.3 2.5-0.6c-4.1-4.4-4.3-11.2-8.6-15.1-0.1-0.1-0.3 0-0.3 0.1z"/>
								</g>
							</g>
							<g id="&lt;Group&gt;">
								<g id="&lt;Group&gt;">
									<path id="&lt;Path&gt;" class="s4" d="m586.2 1403.8c-3.5 8 0.3 21-8.8 26.1q1 0.6 2.1 1.2c0.7-10 5.1-19.4 5.6-29.3 0.1-1.8-2.3-1.8-2.9-0.4-3.6 8.9-5.8 20-5.5 29.7 0.1 0.9 1.2 1.8 2.1 1.1 4.3-3 6.6-7.8 7.8-12.8 1.1-4.8 2.1-10.9 0.1-15.6-0.1-0.2-0.4-0.2-0.5 0z"/>
								</g>
							</g>
						</g>
						<g id="&lt;Group&gt;">
							<g id="&lt;Group&gt;">
								<g id="&lt;Group&gt;">
									<path id="&lt;Path&gt;" class="s4" d="m386.6 1398.6c-0.6-2.5-3.5-4.2-5.5-5.7-2.9-2.3-5.9-4.4-9.1-6.3-5.8-3.5-12.6-6.9-19.5-6.3-1.3 0.1-1.9 1.5-1 2.5 4.1 4.6 9.2 7.8 15.3 9.3 0.7 0.2 1.1-0.8 0.5-1.2-4.9-3-9.9-5.8-13.7-10.2q-0.6 1.3-1.1 2.5c7.1-0.4 13.6 4 19.2 8 2.6 1.9 5.2 3.9 7.8 5.8 1.7 1.4 3.6 3.3 5.9 3.2 0.8 0 1.4-0.8 1.2-1.6z"/>
								</g>
							</g>
							<g id="&lt;Group&gt;">
								<g id="&lt;Group&gt;">
									<path id="&lt;Path&gt;" class="s4" d="m367.6 1391.8c-4.4-3.7-11.9-5.1-17.5-4.7-1.3 0.1-2 1.5-1.1 2.5 6.8 7.6 17.9 11.6 27.6 13.7 0.4 0.1 0.7-0.5 0.3-0.7-9.2-4.1-18.8-7.6-25.8-15.1q-0.5 1.3-1 2.6c5.9-0.7 11.7 3.1 17.4 1.9 0.2 0 0.2-0.2 0.1-0.2z"/>
								</g>
							</g>
							<g id="&lt;Group&gt;">
								<g id="&lt;Group&gt;">
									<path id="&lt;Path&gt;" class="s4" d="m382.7 1394.9c-4.4-7.6-17.2-12.1-15.9-22.6q-1.1 0.5-2.3 1c3.8 3.1 7.2 6.7 10.3 10.5 3.2 3.8 6 8.2 9.9 11.3 1.2 0.9 3.2-0.3 2.3-1.8-5-8.3-12.8-16.8-20.8-22.2-0.9-0.6-2.1 0.2-2.1 1.2-0.1 5 2.3 9.5 5.4 13.3 3.2 3.9 7.8 8.6 12.8 9.8 0.3 0 0.5-0.3 0.4-0.5z"/>
								</g>
							</g>
						</g>
					</g>
				</g>
				<g id="&lt;Group&gt;">
					<path id="&lt;Path&gt;" class="s4" d="m842 1427.2c10.1-15.7-18.7-27.5-37.2-9 13-21.6-21.3-40.3-37.4-25.4 8.4-24.4 3.5-50-27-57-43.2-9.9-62 29.8-66.8 65.3 0.4-15.5-7.7-33.8-17.3-33.8-9.7 0-28.9 12-17.8 42.1 1.4 3.8-2.5 7.4-6.4 6.5-18.5-4.7-31.8 12.8-27.3 30.3 1.9 7.4 5.9 13.6 11 18.8h245.4c18.7-21.3-8.2-46.6-19.2-37.8z"/>
					<g id="&lt;Group&gt;" style="opacity: .2">
						<path id="&lt;Path&gt;" class="s2" d="m774.1 1407.3c2.7-1.6 5.8-2.4 8.9-2.4 6.1 0 11.8 3.2 15.1 8.3 1.7-3.1 1.7-6 0.1-8.9-2.7-4.9-9.8-8.5-16.3-8.5-2.5 0-6.1 0.5-8.9 3.1-2.8 2.6-7 3-10.2 0.9-3.2-2.1-4.5-6.1-3.3-9.7 4.4-12.7 4.3-24.2-0.2-32.4-3.8-6.9-10.8-11.5-20.8-13.8-3.8-0.9-7.6-1.3-11.1-1.3-34.9 0-43.7 45.6-45.6 59.6-0.1 1.3-0.7 2.6-1.4 3.6 3.6-1.4 7.8-3.6 12-6.3 15.1-9.9 23.6-19.6 25.3-28.8 1.5-8.4 7.7-13.8 15.8-13.8 8.5 0 18 6.3 19.4 16.8q0.5 3.2 0.8 6.7c1.1 9.5 2.3 19.2 5.9 26.8 2.1 4.5 3.5 4.5 4 4.5 3 0 8.6-3.3 10.5-4.4z"/>
					</g>
					<path id="&lt;Path&gt;" class="s6" d="m863.5 1461.7q-3.3 0.1-6.4 0c-12.8-0.4-29.8-2.9-38.3-13.4-15.7 4.7-30.8 0.7-39.8-12.7-14.3 5.8-30 5.9-40-8.9-4.6-6.8-7.3-14.6-9.2-22.7-20.5 23.7-57.4 42.4-78.7 24.2-14.7 9.2-32.2 9.7-43.8-1.8-3.2 5.6-4.3 12.7-2.5 19.8 1.9 7.4 5.9 13.6 11 18.8h245.4q1.1-1.6 2.3-3.3z"/>
					<g id="&lt;Group&gt;" style="mix-blend-mode: multiply">
						<g id="&lt;Group&gt;">
							<g id="&lt;Group&gt;">
								<g id="&lt;Group&gt;">
									<path id="&lt;Path&gt;" class="s4" d="m719.5 1452.1c1.5-3.2 0.3-7.2 0-10.6-0.5-5.2-0.7-10.6 1.6-15.5q-0.7 0.2-1.5 0.4c4.8 3.1 6.5 11 7.8 16.3 1 4 0.7 10 3.3 13.3 0.3 0.4 1.2 0.3 1.4-0.2 2.1-4.6-1.2-12.6-2.6-17.1-1.7-5.4-4.1-10.7-8.7-14.2-0.5-0.4-1.3-0.1-1.6 0.4-2.3 4.2-2.5 8.7-2.1 13.5 0.3 4.2 0.1 9.9 2.1 13.7 0 0.1 0.2 0.1 0.3 0z"/>
								</g>
							</g>
							<g id="&lt;Group&gt;">
								<g id="&lt;Group&gt;">
									<path id="&lt;Path&gt;" class="s4" d="m732 1452.9c1-2.7 0.7-5.5 0.9-8.3 0.4-3.7 1.2-7.3 3.2-10.5q-0.9 0-1.8 0c3 5.8 2.3 12.3 3.9 18.5 0.3 0.9 1.7 0.7 1.7-0.2-0.1-6.6-0.9-13.4-3.8-19.4-0.4-0.7-1.4-0.6-1.8 0-3.5 5.3-5 13.8-2.8 19.9 0.1 0.2 0.4 0.2 0.5 0z"/>
								</g>
							</g>
							<g id="&lt;Group&gt;">
								<g id="&lt;Group&gt;">
									<path id="&lt;Path&gt;" class="s4" d="m722.9 1451.4c-4.6-4.3-16.5-6.6-20.4-0.2-0.3 0.5 0.2 1.1 0.7 1 3.9-1.2 6.8-2.6 11-1.8 2.9 0.5 5.6 1.7 8.6 1.4 0.2 0 0.3-0.3 0.1-0.4z"/>
								</g>
							</g>
						</g>
						<g id="&lt;Group&gt;">
							<g id="&lt;Group&gt;">
								<g id="&lt;Group&gt;">
									<path id="&lt;Path&gt;" class="s4" d="m729.4 1378.6c2.6-6.9 7.9-18.1 2.3-24.7-0.5-0.6-1.4-0.3-1.7 0.2-3.2 4.4-4.6 10.3-4.6 15.6 0 1.1 1.6 1.3 1.9 0.3 1.5-5 1.6-10.3 4.6-14.8q-0.9 0.2-1.8 0.3c5.4 5.7-1.3 16.3-2 22.9 0 0.7 1 0.8 1.3 0.2z"/>
								</g>
							</g>
							<g id="&lt;Group&gt;">
								<g id="&lt;Group&gt;">
									<path id="&lt;Path&gt;" class="s4" d="m726.4 1372.1c2.3-4.2 1.5-10.6-1-14.5-0.6-0.8-1.8-0.6-2.1 0.3-2.1 6-3.9 12.7-2.8 19.1 0.1 0.6 0.9 0.5 1.1 0 2.3-5.8 1-12.5 3.8-18.2q-1 0-2 0c2.5 4.2 2.2 8.5 2.6 13.2 0 0.2 0.3 0.3 0.4 0.1z"/>
								</g>
							</g>
							<g id="&lt;Group&gt;">
								<g id="&lt;Group&gt;">
									<path id="&lt;Path&gt;" class="s4" d="m725.5 1371.9q0.2 0 0.3 0-0.2-0.1-0.4-0.2c0.2 0.3 0.5 0.2 0.8 0.5 0.1 0.1 0.2 0.2 0.4 0.3q0.2 0.2 0.4 0.4c0.3 0.3 0.7 0 0.8-0.3 0-0.8-0.2-1.3-0.8-1.7-0.5-0.4-1.3-0.6-1.7 0.1q0.2-0.2 0.3-0.3-0.1 0-0.3 0.1c-0.5 0.3-0.3 1.1 0.2 1.1z"/>
								</g>
							</g>
							<g id="&lt;Group&gt;">
								<g id="&lt;Group&gt;">
									<path id="&lt;Path&gt;" class="s4" d="m728.3 1380.3c1.4 0.5 2.6 1.2 3.5 2.3 0.8 0.8 1.3 1.9 2.3 2.7 0.3 0.3 0.9-0.1 1-0.5 0.4-1.5-0.7-3-1.7-4-1.3-1.2-2.8-2-4.5-2.5-1.3-0.3-1.8 1.6-0.6 2z"/>
								</g>
							</g>
						</g>
						<g id="&lt;Group&gt;">
							<g id="&lt;Group&gt;">
								<g id="&lt;Group&gt;">
									<path id="&lt;Path&gt;" class="s4" d="m657 1454.7c2.6-6.8 7.9-18 2.3-24.6-0.5-0.6-1.4-0.3-1.7 0.2-3.2 4.3-4.6 10.2-4.6 15.6 0 1.1 1.6 1.3 1.9 0.2 1.5-4.9 1.6-10.2 4.6-14.7q-0.9 0.1-1.8 0.2c5.4 5.8-1.4 16.3-2 22.9 0 0.8 1 0.8 1.3 0.2z"/>
								</g>
							</g>
							<g id="&lt;Group&gt;">
								<g id="&lt;Group&gt;">
									<path id="&lt;Path&gt;" class="s4" d="m654 1448.3c2.3-4.2 1.6-10.6-1-14.5-0.6-0.9-1.8-0.7-2.1 0.2-2.1 6.1-3.9 12.8-2.8 19.2 0.1 0.6 0.9 0.4 1.1 0 2.3-5.8 1-12.5 3.8-18.3q-1 0-2 0c2.5 4.3 2.2 8.6 2.6 13.3 0 0.2 0.3 0.3 0.4 0.1z"/>
								</g>
							</g>
							<g id="&lt;Group&gt;">
								<g id="&lt;Group&gt;">
									<path id="&lt;Path&gt;" class="s4" d="m653.2 1448q0.1 0 0.2 0.1-0.2-0.1-0.4-0.2c0.2 0.2 0.5 0.2 0.8 0.4 0.1 0.1 0.2 0.3 0.4 0.4q0.2 0.2 0.4 0.3c0.3 0.3 0.7 0.1 0.8-0.3q0.1-1.1-0.8-1.7c-0.3-0.2-0.6-0.3-0.9-0.3q-0.3 0-0.5 0.1-0.3 0.2-0.1 0.1-0.1 0-0.2 0.1c-0.5 0.3-0.3 1 0.3 1z"/>
								</g>
							</g>
							<g id="&lt;Group&gt;">
								<g id="&lt;Group&gt;">
									<path id="&lt;Path&gt;" class="s4" d="m655.9 1456.5c1.4 0.5 2.6 1.2 3.5 2.2 0.8 0.9 1.3 2 2.3 2.7 0.3 0.3 0.9 0 1-0.4 0.4-1.5-0.7-3.1-1.7-4.1-1.3-1.2-2.8-2-4.5-2.4-1.3-0.4-1.8 1.6-0.6 2z"/>
								</g>
							</g>
						</g>
						<g id="&lt;Group&gt;">
							<g id="&lt;Group&gt;">
								<g id="&lt;Group&gt;">
									<path id="&lt;Path&gt;" class="s4" d="m755 1416.8c2.7-6.8 7.9-18 2.3-24.6-0.5-0.6-1.3-0.3-1.7 0.2-3.2 4.4-4.6 10.2-4.6 15.6 0 1.1 1.6 1.3 1.9 0.2 1.5-4.9 1.7-10.2 4.6-14.7q-0.9 0.1-1.8 0.2c5.4 5.8-1.3 16.4-1.9 23-0.1 0.7 1 0.7 1.2 0.1z"/>
								</g>
							</g>
							<g id="&lt;Group&gt;">
								<g id="&lt;Group&gt;">
									<path id="&lt;Path&gt;" class="s4" d="m752 1410.4c2.3-4.2 1.6-10.6-1-14.5-0.6-0.9-1.7-0.7-2.1 0.3-2.1 6-3.9 12.7-2.8 19.1 0.1 0.6 0.9 0.4 1.1 0 2.4-5.8 1-12.5 3.8-18.3q-1 0-2 0c2.5 4.3 2.2 8.6 2.6 13.3 0 0.2 0.3 0.3 0.4 0.1z"/>
								</g>
							</g>
							<g id="&lt;Group&gt;">
								<g id="&lt;Group&gt;">
									<path id="&lt;Path&gt;" class="s4" d="m751.2 1410.2q0.1-0.1 0.2 0-0.2-0.1-0.4-0.2c0.2 0.3 0.6 0.2 0.8 0.4 0.2 0.1 0.2 0.3 0.4 0.4q0.2 0.2 0.4 0.4c0.3 0.3 0.7 0 0.8-0.4 0.1-0.7-0.2-1.2-0.8-1.6-0.5-0.4-1.3-0.6-1.7 0q0.2-0.1 0.4-0.3-0.2 0.1-0.4 0.2c-0.5 0.3-0.3 1.1 0.3 1.1z"/>
								</g>
							</g>
							<g id="&lt;Group&gt;">
								<g id="&lt;Group&gt;">
									<path id="&lt;Path&gt;" class="s4" d="m754 1418.6c1.3 0.5 2.5 1.2 3.5 2.2 0.7 0.9 1.2 2 2.2 2.7 0.3 0.3 0.9 0 1-0.4 0.4-1.5-0.6-3.1-1.7-4.1-1.2-1.2-2.8-2-4.5-2.4-1.3-0.3-1.8 1.6-0.5 2z"/>
								</g>
							</g>
						</g>
						<g id="&lt;Group&gt;">
							<g id="&lt;Group&gt;">
								<g id="&lt;Group&gt;">
									<path id="&lt;Path&gt;" class="s4" d="m661 1409.2c-0.8-7.3-1.1-19.9-9.1-23.2-0.5-0.2-1.3 0.2-1.4 0.8-0.9 5.4 0.5 11.3 2.9 16.2 0.6 1.1 2 0.3 1.8-0.7-0.9-5.1-3.1-9.9-2.5-15.2q-0.7 0.5-1.4 1c7.3 2.6 6 15.3 8.4 21.3 0.2 0.6 1.3 0.6 1.3-0.2z"/>
								</g>
							</g>
							<g id="&lt;Group&gt;">
								<g id="&lt;Group&gt;">
									<path id="&lt;Path&gt;" class="s4" d="m655.4 1404.6c0.2-4.8-3.4-10.1-7.5-12.5-0.7-0.3-1.8 0.1-1.7 1 0.8 6.4 2.2 13.2 6.1 18.5 0.3 0.4 1.1 0.3 1-0.3-0.5-6.3-4.7-11.7-4.8-18.2q-0.9 0.5-1.7 1c4.1 2.7 5.8 6.6 8.2 10.7 0.1 0.2 0.4 0.1 0.4-0.2z"/>
								</g>
							</g>
							<g id="&lt;Group&gt;">
								<g id="&lt;Group&gt;">
									<path id="&lt;Path&gt;" class="s4" d="m654.6 1404.8q0 0 0.1 0-0.3-0.1-0.5-0.1c0.3 0.3 0.6 0 1 0.1 0.2 0 0.4 0.1 0.5 0.2 0.2 0 0.4 0 0.6 0.1 0.3 0.1 0.7-0.2 0.5-0.6-0.2-0.5-0.4-0.9-0.9-1.1-0.5-0.2-1-0.2-1.5 0-0.3 0.1-0.5 0.4-0.5 0.7q0 0 0 0.1 0.1-0.3 0.2-0.5-0.2 0.2-0.3 0.4c-0.3 0.5 0.3 1 0.8 0.7z"/>
								</g>
							</g>
							<g id="&lt;Group&gt;">
								<g id="&lt;Group&gt;">
									<path id="&lt;Path&gt;" class="s4" d="m660.9 1411.1q2.2-0.3 4.2 0.5c1 0.4 1.8 1.2 2.9 1.4 0.5 0.1 1-0.4 0.9-0.9-0.4-1.5-2-2.4-3.3-2.8-1.7-0.6-3.5-0.5-5.3-0.2-1.3 0.3-0.7 2.2 0.6 2z"/>
								</g>
							</g>
						</g>
						<g id="&lt;Group&gt;">
							<g id="&lt;Group&gt;">
								<g id="&lt;Group&gt;">
									<path id="&lt;Path&gt;" class="s4" d="m783.4 1440.4c0.1-7.1 1.1-19.8-6.3-23.9-0.7-0.4-1.5 0-1.7 0.7-1.4 5.2-0.7 11.1 1.1 16.2 0.4 1 2 0.9 2-0.3-0.4-5.2-2.1-10.2-0.9-15.4q-0.8 0.4-1.7 0.7c7.3 3.5 4.5 15.7 6.2 22.2 0.2 0.7 1.3 0.5 1.3-0.2z"/>
								</g>
							</g>
							<g id="&lt;Group&gt;">
								<g id="&lt;Group&gt;">
									<path id="&lt;Path&gt;" class="s4" d="m778.4 1435.4c0.7-4.9-2.3-10.5-6.2-13.4-0.7-0.5-1.7 0.2-1.7 1 0.1 6.4 0.7 13.3 4 18.9 0.3 0.5 1 0.3 1.1-0.2 0.1-6.4-3.4-12.3-2.8-18.7q-1 0.4-2 0.8c3.9 3.1 5.2 7.3 7.1 11.6 0.1 0.2 0.5 0.2 0.5 0z"/>
								</g>
							</g>
							<g id="&lt;Group&gt;">
								<g id="&lt;Group&gt;">
									<path id="&lt;Path&gt;" class="s4" d="m777.4 1435.4q0.2 0 0.3 0-0.3-0.1-0.6-0.2c0.1 0.2 0.3 0.3 0.5 0.3 0.2 0 0.3-0.1 0.5-0.1 0.2 0.1 0.3 0.2 0.5 0.3 0.1 0 0.3 0.1 0.5 0.1 0.4 0.2 0.8-0.1 0.7-0.5-0.1-0.5-0.4-0.9-0.9-1.1q-0.7-0.4-1.5-0.2c-0.3 0.1-0.5 0.4-0.5 0.7q0 0 0 0.1 0.1-0.3 0.2-0.5-0.1 0.1-0.2 0.2c-0.3 0.4 0 1.2 0.5 0.9z"/>
								</g>
							</g>
							<g id="&lt;Group&gt;">
								<g id="&lt;Group&gt;">
									<path id="&lt;Path&gt;" class="s4" d="m782.9 1442.4c1.5-0.1 2.9 0.2 4.2 0.9 1 0.5 1.9 1.4 2.9 1.7 0.5 0.1 1-0.2 1-0.7-0.4-3.4-5.3-4.2-8.1-4-1.3 0.1-1.3 2.1 0 2.1z"/>
								</g>
							</g>
						</g>
						<g id="&lt;Group&gt;">
							<g id="&lt;Group&gt;">
								<g id="&lt;Group&gt;">
									<path id="&lt;Path&gt;" class="s4" d="m821.3 1424.5c-1.6 3.6-0.8 9-0.3 12.8 0.5 3.8 1.4 7.5 3.9 10.5 0.4 0.5 1.4 0.2 1.5-0.4 0.8-3.9 0.5-7.4-0.9-11.1-0.2-0.4-0.8-0.4-0.8 0.1 0.3 3.5 0.7 7 0 10.5q0.7-0.2 1.5-0.4c-2.8-3.5-2.9-8.4-2.9-12.7 0-2.9 0.7-6.6-0.3-9.3-0.4-0.9-1.4-0.8-1.7 0z"/>
								</g>
							</g>
							<g id="&lt;Group&gt;">
								<g id="&lt;Group&gt;">
									<path id="&lt;Path&gt;" class="s4" d="m825 1436c-0.2 3.5 1.9 7.9 4.2 10.5 0.4 0.5 1.4 0.2 1.5-0.4 1.3-6.3-0.8-13.1-3.2-18.8-0.1-0.3-0.5-0.1-0.5 0.2 1.4 5.9 3.1 12 2 18.1q0.7-0.2 1.5-0.4c-2.5-2.7-2.7-6.9-5.3-9.3-0.1 0-0.2 0-0.2 0.1z"/>
								</g>
							</g>
							<g id="&lt;Group&gt;">
								<g id="&lt;Group&gt;">
									<path id="&lt;Path&gt;" class="s4" d="m821.1 1427.3c-2.2 5 0.3 12.9-5.4 16.1q0.6 0.3 1.3 0.7c0.4-6.1 3-11.9 3.5-18 0-1.1-1.5-1.1-1.8-0.2-2.2 5.5-3.6 12.3-3.4 18.2 0 0.6 0.7 1.1 1.3 0.7 4.6-3.3 7.1-12.3 4.8-17.5 0-0.1-0.3-0.1-0.3 0z"/>
								</g>
							</g>
						</g>
						<g id="&lt;Group&gt;">
							<g id="&lt;Group&gt;">
								<g id="&lt;Group&gt;">
									<path id="&lt;Path&gt;" class="s4" d="m698.1 1423.8c-1.7-3.1-6.4-5.6-9.3-7.3-3.5-2.1-7.4-3.9-11.5-3.7-0.8 0.1-1.2 1-0.7 1.6 2.7 2.9 5.7 4.7 9.4 5.7 0.5 0.1 0.7-0.5 0.3-0.7-3-1.8-6-3.6-8.4-6.3q-0.3 0.8-0.6 1.6c4.3-0.2 8.2 2.3 11.6 4.8 2.5 1.8 5.3 4.9 8.3 5.6 0.7 0.2 1.3-0.6 0.9-1.3z"/>
								</g>
							</g>
							<g id="&lt;Group&gt;">
								<g id="&lt;Group&gt;">
									<path id="&lt;Path&gt;" class="s4" d="m686.6 1419.9c-2.8-2.2-7.4-3.1-10.8-2.8-0.8 0-1.2 0.9-0.7 1.5 4.2 4.7 11 7.1 17 8.4 0.2 0.1 0.4-0.3 0.2-0.4-5.7-2.5-11.6-4.7-15.9-9.3q-0.3 0.8-0.6 1.6c3.6-0.4 7.2 1.9 10.7 1.2 0.1 0 0.1-0.1 0.1-0.2z"/>
								</g>
							</g>
							<g id="&lt;Group&gt;">
								<g id="&lt;Group&gt;">
									<path id="&lt;Path&gt;" class="s4" d="m695.8 1421.9c-2.7-4.7-10.6-7.5-9.7-14q-0.7 0.3-1.5 0.6c2.4 2 4.5 4.2 6.4 6.5 2 2.4 3.7 5.1 6.1 7 0.7 0.6 2-0.2 1.4-1.1-3.1-5.1-7.9-10.3-12.8-13.7-0.6-0.4-1.3 0.1-1.3 0.7-0.1 3.1 1.4 5.9 3.3 8.2 2 2.4 4.8 5.3 7.9 6 0.2 0.1 0.3-0.1 0.2-0.2z"/>
								</g>
							</g>
						</g>
					</g>
				</g>
			</g>
			<path id="&lt;Path&gt;" class="s7" d="m265.3 1459.2c-186.4 0-63.7 166.9 135.1 174.3 109.1 4.1 81.3 120 211 129.6 49.7 3.7 90.3-20.9 138.8-14 49.1 6.9 79.1 39.2 123.4 54.9 101.3 35.7 226.3 47.6 315.1-6.1 65-39.2 86.7-119.3 183.2-136.4 49.5-8.8 110.2 7.7 159.5 15 69.2 10.3 146.1 3.4 216.6-3.5 227.6-22.1 348.8-213.8 118.5-213.8z"/>
		</g>
		<g id="&lt;Group&gt;">
			<path id="&lt;Path&gt;" class="s8" d="m1219.4 1522.4c-43.6 30.4-20.8 68.7 20.5 62.3 23.5-3.7 108.1-8.7 126.9-5.5 22.4 3.7 66.9 25.8 71-22.5 4-46.6-129.9-96.1-218.4-34.3z"/>
			<path id="&lt;Path&gt;" class="s8" d="m772.9 1522.4c-43.6 30.4-20.9 68.7 20.4 62.3 23.6-3.7 108.2-8.7 126.9-5.5 22.5 3.7 66.9 25.8 71.1-22.5 4-46.6-130-96.1-218.4-34.3z"/>
			<g id="&lt;Group&gt;">
				<g id="&lt;Group&gt;">
					<path id="&lt;Path&gt;" class="s9" d="m859.2 1263c-3.5-40.3-60.1-46.2-65.6-3.6 5 21.7-7 55.1 6.1 125.5 9.7 51.5 27 125.4 27 125.4-1 8-10.6 17.2-27.2 26.9 0 0-8.9 8.4-8.1 10.2 2.1 5 4.4 4.6 8.9 4.1 11.4-1.2 12.6-6 23.4-8.5 5.5-1.2 16.4-2.5 19.9-7.4 4.3-6.1 0.5-12.9-0.1-20.3 0 0 18.4-160.6 15.7-252.3z"/>
				</g>
				<g id="&lt;Group&gt;">
					<path id="&lt;Path&gt;" class="s9" d="m942.8 1537.2c-16.6-9.7-26.2-18.9-27.1-26.9 0 0 17.3-73.9 26.9-125.4 13.2-70.4 1.1-103.8 6.1-125.5-5.5-42.6-62.1-36.7-65.6 3.6-2.7 91.7 15.8 252.3 15.8 252.3-0.6 7.4-4.5 14.2-0.2 20.3 3.6 4.9 14.5 6.2 20 7.4 10.7 2.5 11.9 7.3 23.3 8.5 4.5 0.5 6.8 0.9 8.9-4.1 0.8-1.8-8.1-10.2-8.1-10.2z"/>
				</g>
				<g id="&lt;Group&gt;">
					<path id="&lt;Path&gt;" class="s9" d="m947 908.8c-7.9-82.3 6.3-138.2-23.1-174.7 0 0-33.5-9.7-42.8-17.6-6.8-5.9-6.4 1.5-10.3-3.6v-0.2q0 0.1-0.1 0.1 0 0 0-0.1v0.2c-4 5.1-3.6-2.3-10.4 3.6-9.2 7.9-42.7 17.6-42.7 17.6-29.5 36.5-14.3 92.4-22.3 174.7 0 0-2.7 19.4 75.5 19.4 78.3 0 76.2-19.4 76.2-19.4z"/>
				</g>
				<g id="&lt;Group&gt;">
					<g id="&lt;Group&gt;">
						<path id="&lt;Path&gt;" class="s10" d="m826.2 778.1c7.7 2.4 31-1.7 40.8-26.6 5.2-13.3 9.6-26.2 26.4-30.7 16.7-4.4 23.3-22 26.3-39.7 1.5-8.7 11.5-75.2-4.1-100.1-12.9-20.8-43-35.3-66.7-24.8-33.2 14.7-37.1 43.5-40.2 75.6-2 20.1-6.1 40.1-9.3 59.9-3.9 24.4-14.2 49 10.5 70.6 4.6 4.1 10.5 14 16.3 15.8z"/>
					</g>
				</g>
				<g id="&lt;Group&gt;">
					<g id="&lt;Group&gt;">
						<path id="&lt;Path&gt;" class="s9" d="m767.5 884c-9.8-15.3-18.7-16-26.8-8.7-17 1-53.1 48.7-87.5 75.2-4.2 2.6-12.3 5.6-19.1 6.2-7.9 0.7-14.3 2.4-20.9 6.6-2.5 1.6-6.7 5.2-6.1 7 1.3 3.2 3.8 1.9 7.9-0.7 1.2-0.7 5.1-1.7 7.3-3.2-5.2 6.2-19.6 10.7-25.4 18.7-3.5 4.9-4.4 8.9 1.2 12.3 6.9 4.2 10.2-1.7 16.8-2.6 2.7-0.3 7.1 1.7 14.5-3 4.2-2.7 8.8-6.4 12.1-9.9 4.2-4.6 9.7-10.9 13.4-13.9 0.4-0.2 94.3-35.5 107.2-54.4 13.1-19.2 15.3-14.3 5.4-29.6z"/>
					</g>
					<g id="&lt;Group&gt;">
						<path id="&lt;Path&gt;" class="s9" d="m730.4 882.1c5-26 15.8-26.7 41.8-98.8 10.9-30.5 30.6-48.3 54.2-43.7q1.4 0.3 2.8 0.7 0.7 0.2 1.3 0.8c0.5 0.5 24.1 16.2 16.6 41.5-4.4 14.8-22.4 46.8-44.6 74.8-18.3 23.1-32.9 54.4-43.4 55.9-23.3 3.4-20.8-0.4-23.9-4-8.3-9.9-10.2 0.8-4.8-27.2z"/>
					</g>
					<path id="&lt;Path&gt;" class="s11" d="m813.5 852.3c18.8-25.4 35-56.1 38.8-69.3 7.5-25.2-25.4-48.3-26.3-48.5-23.6-4.6-44.1 12.7-55.1 43.3-4.1 11.4-16.4 39.6-16.4 39.6 18.7 28.1 53.9 32.3 59 34.9z"/>
				</g>
				<g id="&lt;Group&gt;">
					<g id="&lt;Group&gt;">
						<path id="&lt;Path&gt;" class="s9" d="m976.9 884c9.8-15.3 18.7-16 26.8-8.7 17 1 53.1 48.7 87.6 75.2 4.1 2.6 12.2 5.6 19.1 6.2 7.9 0.7 14.2 2.4 20.9 6.6 2.4 1.6 6.7 5.2 6 7-1.2 3.2-3.8 1.9-7.9-0.7-1.2-0.7-5.1-1.7-7.3-3.2 5.3 6.2 19.6 10.7 25.4 18.7 3.5 4.9 4.4 8.9-1.2 12.3-6.9 4.2-10.2-1.7-16.8-2.6-2.7-0.3-7.1 1.7-14.5-3-4.1-2.7-8.8-6.4-12.1-9.9-4.2-4.6-9.7-10.9-13.4-13.9-0.3-0.2-94.3-35.5-107.2-54.4-13.1-19.2-15.3-14.3-5.4-29.6z"/>
					</g>
					<g id="&lt;Group&gt;">
						<path id="&lt;Path&gt;" class="s9" d="m1014 882.1c-5-26-15.8-26.7-41.7-98.8-11-30.5-30.6-48.3-54.3-43.7q-1.4 0.3-2.7 0.7-0.8 0.2-1.3 0.8c-0.6 0.5-24.2 16.2-16.7 41.5 4.4 14.8 22.5 46.8 44.6 74.8 18.3 23.1 32.9 54.4 43.4 55.9 23.3 3.4 20.9-0.4 23.9-4 8.4-9.9 10.2 0.8 4.8-27.2z"/>
					</g>
					<path id="&lt;Path&gt;" class="s11" d="m930.9 852.3c-18.7-25.4-34.9-56.1-38.8-69.3-7.5-25.2 25.4-48.3 26.3-48.5 23.7-4.6 44.2 12.7 55.1 43.3 4.1 11.4 16.4 39.6 16.4 39.6-18.7 28.1-53.9 32.3-59 34.9z"/>
				</g>
				<path id="&lt;Path&gt;" class="s12" d="m799.5 1537.2c-7 4.1-12.6 8.2-13 10.2-1.3 5.9 8.2 6.3 12.7 5.8 11.4-1.3 45.3-16.6 45.3-16.6 3.8-5.3 2.6-13.4-0.7-18.6-4.8 12.2-36.5 27.5-44.3 19.2z"/>
				<path id="&lt;Path&gt;" class="s12" d="m942.8 1537.2c7.1 4.1 12.6 8.2 13.1 10.2 1.3 5.9-8.3 6.3-12.8 5.8-11.4-1.3-45.2-16.6-45.2-16.6-3.8-5.3-2.7-13.4 0.6-18.6 4.8 12.2 36.5 27.5 44.3 19.2z"/>
				<path id="&lt;Path&gt;" class="s13" d="m982.5 1029.6c-3.4-23.7-26.1-87.2-32.4-104.6h-157.8c-6 16.7-27.8 79-32.3 101.4-12.6 62.1-3.5 131.7 10.7 186.4 5.5 21.5 17.6 39.5 19.1 64.6 1.5 24.2 161.2 24.2 162.7 0 1.5-25.1 13.6-43.1 19.2-64.6 13.9-53.6 19.5-124.3 10.8-183.2z"/>
				<path id="&lt;Path&gt;" class="s14" d="m947 908.8c0 0-40.2 10.3-76.3 10.3-36.1 0-75.4-10.3-75.4-10.3l-3 16.2c0 0 26.6 10.3 79.3 10.3 52.7 0 78.5-10.3 78.5-10.3z"/>
				<g id="&lt;Group&gt;">
					<g id="&lt;Group&gt;">
						<path id="&lt;Path&gt;" class="s9" d="m895.2 658.6l-6.2-5c-6.2 1-12.5 2-18.6 3.3-6.2-1.3-12.5-2.3-18.7-3.3l-6.2 5c3.8 5.4 6.6 21.2 8.1 35.7 1.2 11.4-12.6 30.4-13.3 32.6 0 0-14.7 47.7 30.1 47.7 44.7 0 30-47.7 30-47.7-0.7-2.3-14.5-20.5-13.4-31.3 1.5-14.9 4.3-31.4 8.2-37z"/>
					</g>
					<g id="&lt;Group&gt;" style="mix-blend-mode: multiply">
						<path id="&lt;Path&gt;" class="s15" d="m889 653.6c-6.2 1-12.5 2-18.6 3.3l-19.5 18.6c3.8 12.1 20.3 11.1 20.8 11.2 11.9 1.8 15.5 6.3 15.5 6.3 1.5-15.2 3.9-28.6 8-34.4z"/>
					</g>
				</g>
				<g id="&lt;Group&gt;">
					<path id="&lt;Path&gt;" class="s16" d="m923.9 734.1c0 0-11.9-3.4-23.5-7.9-12.8 23.6-48.1 20-61 0.6-11 4.2-21.8 7.3-21.8 7.3-23.7 28-20 90.3-29 140.9 62.3 33.9 164.3 2.2 164.9 2.1-9.2-53.5-3.4-116.6-29.6-143z"/>
				</g>
				<g id="&lt;Group&gt;">
					<path id="&lt;Path&gt;" class="s9" d="m907 595.5c-8.6-20.1-25.2-22.6-25.2-22.6q-5.1-1.2-10.2-1.8v-0.4q-1 0.1-2 0.2-1-0.1-2-0.2v0.4q-5 0.6-10.1 1.8c0 0-16.7 2.5-25.2 22.6-5.5 12.8-2.7 18.8-1.9 30.8 0.7 11.5 0.3 13.8 2.4 23.2 2.6 11.9 12.7 21.8 22.9 29.2 4.8 3.2 9.5 4.4 13.9 4.2 4.5 0.2 9.1-1 13.9-4.2 10.3-7.4 20.3-17.3 22.9-29.2 2.1-9.4 1.7-11.7 2.5-23.2 0.7-12 3.5-18-1.9-30.8z"/>
				</g>
				<g id="&lt;Group&gt;">
					<g id="&lt;Group&gt;">
						<path id="&lt;Path&gt;" class="s17" d="m856.8 654.5c8 1.2 22.8 0.8 22.8 0.8 0 0-1.4 9.6-11.4 9.6-9.9 0-11.4-10.4-11.4-10.4z"/>
					</g>
					<g id="&lt;Group&gt;">
						<g id="&lt;Group&gt;" style="mix-blend-mode: multiply">
							<g id="&lt;Group&gt;">
								<path id="&lt;Path&gt;" class="s15" d="m866 669.3c1.5-0.8 3-1 4.7-1.1 0.4 0 0.5-0.5 0.2-0.7-1.8-1.2-4.1-0.1-5.5 1.1-0.4 0.4 0.1 1 0.6 0.7z"/>
							</g>
						</g>
					</g>
					<g id="&lt;Group&gt;">
						<g id="&lt;Group&gt;">
							<g id="&lt;Group&gt;">
								<g id="&lt;Group&gt;">
									<path id="&lt;Path&gt;" class="s18" d="m882.8 620.2c2.3 0.1 4.1-1.8 6.6-1.5 2.2 0.2 4.6 1.9 6.7 1 0.8-0.4 1.3-1.1 0.8-2-1.2-2.3-5.6-3.2-8.1-3.1-2.6 0.2-6.2 1.7-7 4.4-0.2 0.6 0.3 1.2 1 1.2z"/>
								</g>
							</g>
						</g>
						<g id="&lt;Group&gt;">
							<path id="&lt;Path&gt;" class="s19" d="m899.4 633.8c-7.1-3.8-24 9.2-12.8 15.4 11.2 6.2 19.9-11.5 12.8-15.4z"/>
						</g>
						<g id="&lt;Group&gt;">
							<g id="&lt;Group&gt;">
								<g id="&lt;Group&gt;">
									<path id="&lt;Path&gt;" class="s18" d="m854.6 619c-0.8-2.7-4.4-4.2-7-4.4-2.5-0.1-6.8 0.8-8.1 3.1-0.4 0.9 0 1.6 0.8 2 2.2 0.9 4.5-0.8 6.8-1 2.4-0.3 4.2 1.6 6.6 1.5 0.6 0 1.1-0.6 0.9-1.2z"/>
								</g>
							</g>
						</g>
						<g id="&lt;Group&gt;">
							<path id="&lt;Path&gt;" class="s19" d="m837 633.8c7.1-3.8 24.1 9.2 12.9 15.4-11.2 6.2-20-11.5-12.9-15.4z"/>
						</g>
					</g>
					<g id="&lt;Group&gt;">
						<g id="&lt;Group&gt;" style="mix-blend-mode: multiply">
							<g id="&lt;Group&gt;">
								<path id="&lt;Path&gt;" class="s20" d="m857.9 619.9c1.8 3.2 4.3 5.8 5.7 9.2 0 0.2 0.3 0.2 0.2 0-0.3-3.5-3.5-6.8-5.9-9.3q0 0 0 0.1z"/>
							</g>
						</g>
						<g id="&lt;Group&gt;" style="mix-blend-mode: multiply">
							<g id="&lt;Group&gt;">
								<path id="&lt;Path&gt;" class="s20" d="m865.5 635.8c0.3 2.5 0 4.9-0.7 7.4-0.3 1-1.2 3.1-0.8 4.2 0.8 2.1 5.6 1.4 7.1 0.8 0.2-0.1 0.1-0.3 0-0.2-1.4 0.4-3.1 0.4-4.5 0-2.3-0.5-1.9-2-1.4-3.9 0.7-2.9 1.1-5.4 0.5-8.3 0-0.2-0.2-0.1-0.2 0z"/>
							</g>
						</g>
					</g>
					<g id="&lt;Group&gt;">
						<g id="&lt;Group&gt;">
							<path id="&lt;Path&gt;" class="s21" d="m849.7 628.9c0 0-0.8-2.3-3.4-2.3-2.6 0-3 2.3-3 2.3"/>
						</g>
						<g id="&lt;Group&gt;">
							<path id="&lt;Path&gt;" class="s21" d="m886.1 628.9c0 0 0.7-2.3 3.3-2.3 2.7 0 3.1 2.3 3.1 2.3"/>
						</g>
					</g>
				</g>
				<g id="&lt;Group&gt;">
					<path id="&lt;Path&gt;" class="s22" d="m919.7 681.1c33.5-97.1-3.9-130-34.8-136.4-23.6-4.9-53.9 5.7-66.8 25.7-19.1 29.7-9.3 45.2-17.4 56.4-27.6 38.1 7 55-6.8 83.9-6.7 14.2-9.5 65.3 27.2 67.3 48.9 2.7 36.5-52.8 25-69.1-12.9-18.4 1.1-28.5 2.3-45.1 1.4-20.5-15.9-23-6.1-42.5 5.4-10.6 16.1-17.1 24.2-25.4 10.4-10.6 19.5-13.2 27.8 2.2 1.7 3.1 11.1 33.8 10.9 33.8 4.6 0.6 1.4 16.7 0.9 19.2-4.2 20.6 10.8 11.9 13.6 30z"/>
					<g id="&lt;Group&gt;">
						<path id="&lt;Path&gt;" class="s9" d="m905.2 631.9c2-8.2 14.6-15.6 16.3-2.7 1.3 10.6-10.9 32.5-16.4 12.5z"/>
					</g>
				</g>
			</g>
			<g id="&lt;Group&gt;">
				<path id="&lt;Path&gt;" class="s23" d="m1389.2 649.2c0.4-4.2 2.6-7.9 5.3-12.7 5-9 7.3-13.5 2.4-23.3-3.8-7.7-9.2-10.4-8-20.1 0.8-6.7 6.2-12.3 7-19.1 1.6-13.7-10.2-24-13.1-36.7-2.9-12.4-1.1-21-14.6-27.4-9.2-4.5-14-6.8-19.9-13.8-5.8-6.9-19.2-2.3-28.9 2.7-9.8-5-23.1-9.6-29-2.7-5.8 7-10.6 9.3-19.8 13.8-11.2 5.3-13.9 11.8-13.8 21.7 0 9.9-3.2 15-8.4 23.5-12.8 21.3 12.4 42.4-0.1 64.3-3.8 6.7-9.8 11.4-8.7 20 1.1 8.3 7.9 14.7 8.4 23.2 0.9 13-3.8 18.6-8.6 28.9-8.5 18.1 5.5 23.4 10.8 38.6 5.3 15.1-15.1 26.8-4.3 41.8 4.4 6.2 13.7 8.1 13.5 16.9-0.2 6.7-6.8 12.5-6.5 20.5 0.8 21.3 20.2 9.5 29.2 23.1 7.6 11.6 4.8 19.7 21.5 19.5 10.6-0.2 26.5 6.3 36.1 3.7 22.2-6.1 10.5-24.6 16.6-39.4 7.2-17.5 35.2-8.6 35.5-32 0.3-18-16.2-23.9 0-39.6 6.8-6.5 10.7-10.5 9-20.2-1.8-10-11.2-16.6-9.2-27.1 1.4-7.1 8.7-12.6 8.9-20.2 0.3-8.3-6.6-12.3-9.6-19.3-1.5-3.3-1.9-6-1.7-8.6z"/>
				<g id="&lt;Group&gt;">
					<g id="&lt;Group&gt;">
						<path id="&lt;Path&gt;" class="s24" d="m1363.7 678.9c-3.8 0-19-6.5-25.6-16.6-4.6-14.5-8.6-29.4-3.8-34.9 8.8-10.2 13.2-14.3 6.8-19.5-6.4-5.2-14.1-8.3-22.2-10.6-8 2.3-15.7 5.4-22.1 10.6-6.4 5.2-2 9.3 6.7 19.5 4.9 5.5 0.9 20.5-3.7 35-6.6 10-21.9 16.5-25.6 16.5 0 0-24.5 52.7 44.7 52.7 69.3 0 44.8-52.7 44.8-52.7z"/>
					</g>
					<g id="&lt;Group&gt;" style="mix-blend-mode: multiply">
						<path id="&lt;Path&gt;" class="s15" d="m1334.3 627.4c8.8-10.2 13.2-14.3 6.8-19.5-6.4-5.2-14.1-8.3-22.2-10.6-8 2.3-15.7 5.4-22.1 10.6-6.4 5.2-2 9.3 6.7 19.5 0.3 0.3 0.5 0.7 0.7 1 0.1 0 2.2 4.9 11.9 7.9 13.1 4.2 16.9 14.2 19.6 18.4-3.3-11.8-5.3-22.8-1.4-27.3z"/>
					</g>
				</g>
				<g id="&lt;Group&gt;">
					<path id="&lt;Path&gt;" class="s25" d="m1207.6 1160.8c0 0 29.9 32.6 111.3 32.6h0.8c81.5 0 111.4-32.6 111.4-32.6 0 0-28.8-135.1-113.2-135.1-84.4 0-110.3 135.1-110.3 135.1z"/>
				</g>
				<g id="&lt;Group&gt;">
					<path id="&lt;Path&gt;" class="s26" d="m1239.9 1210.3c0 0 78.1 18.1 159.3-1.6l-128.8-206.4z"/>
				</g>
				<g id="&lt;Group&gt;">
					<g id="&lt;Group&gt;">
						<path id="&lt;Path&gt;" class="s24" d="m1303.5 1307.5c3.2-47.7-7.3-62.5-4.9-95.6-1.2-20-9.5-25.1-19.9-26.4-13.3-1.7-23.6 19.9-23.6 19.9 3.9 29.2-5.3 53.7-4.7 102.8 0.7 56.5 16.7 200.4 16.7 200.4-1 8.2-16.8 18-33.9 28.1 0 0-9.2 8.6-8.4 10.5 2.2 5.1 4.6 4.8 9.2 4.3 11.8-1.3 21.8-6.3 32.9-8.8 5.7-1.3 16.9-2.6 20.6-7.7 4.4-6.3 0.4-13.3-0.2-20.9l0.5-7.7c0-0.1 12.4-151.2 15.7-198.9z"/>
					</g>
					<g id="&lt;Group&gt;">
						<path id="&lt;Path&gt;" class="s24" d="m1404.7 1536.7c-17.2-10.1-33-19.9-33.9-28.1 0 0-0.2-1.1-0.4-2.9 0 0 17.7-141 18.4-197.5 0.6-49.1-8.7-73.6-4.7-102.8 0 0-10.3-21.6-23.7-19.9-10.4 1.3-18.7 6.4-19.9 26.4 2.4 33.1-8.1 47.9-4.8 95.6 3.2 47.8 14.5 200.3 14.5 200.3l0.3 6.3c-0.6 7.6-4.5 14.6-0.1 20.9 3.7 5.1 14.9 6.4 20.6 7.7 11.1 2.5 21.1 7.5 32.9 8.8 4.6 0.5 6.9 0.8 9.1-4.3 0.9-1.9-8.3-10.5-8.3-10.5z"/>
					</g>
					<g id="&lt;Group&gt;">
						<path id="&lt;Path&gt;" class="s27" d="m1258.9 1533.5c-6.3 2.3-19.1 8.1-25.7 3.2-7.3 4.3-13 8.5-13.5 10.5-1.3 6.1 8.5 6.5 13.2 6 11.8-1.3 22.6-6.5 33.7-9 5.6-1.3 18.1-3 21.8-8.2 3.9-5.4 2.7-13.8-0.7-19.2-6.7 9.1-18.5 13-28.8 16.7z"/>
					</g>
					<g id="&lt;Group&gt;">
						<path id="&lt;Path&gt;" class="s27" d="m1379 1533.5c6.3 2.3 19.1 8.1 25.7 3.2 7.3 4.3 13 8.5 13.5 10.5 1.3 6.1-8.6 6.5-13.2 6-11.8-1.3-22.6-6.5-33.7-9-5.7-1.3-18.2-3-21.8-8.2-3.9-5.4-2.7-13.8 0.7-19.2 6.7 9.1 18.5 13 28.8 16.7z"/>
					</g>
					<g id="&lt;Group&gt;">
						<path id="&lt;Path&gt;" class="s24" d="m1255.4 1208.2c4 23.8 12.2 28 30.6 29.1 18.4 1.1 10.2-2.9 12.4-21.5-0.2-9.1 15.1-155.8 16.3-165 8.9-68 12.8-113.1 12.8-113.1v-58.1h-68.3c-7.9 26-19.3 56.8-19.3 113.7 0 87.8 14.1 201.4 15.5 214.9z"/>
					</g>
					<g id="&lt;Group&gt;">
						<path id="&lt;Path&gt;" class="s24" d="m1383.7 1208.2c-4 23.8-12.2 28-30.6 29.1-18.3 1.1-10.1-2.9-12.4-21.5 0.2-9.1-15-155.8-16.2-165-9-68-12.9-113.1-12.9-113.1l-55.7-45.7 3.3-12.4h120.8c7.8 26 19.2 56.8 19.2 113.7 0 87.8-14 201.4-15.5 214.9z"/>
					</g>
				</g>
				<g id="&lt;Group&gt;">
					<g id="&lt;Group&gt;">
						<g id="&lt;Group&gt;">
							<g id="&lt;Group&gt;">
								<path id="&lt;Path&gt;" class="s24" d="m1218.2 832.4c-18.8-10.2-23.7 12.1-29.3 24.7-7.5 17.1-42.8 83.6-46.5 87.8-3.6 4.1-7.1 9.1-13.1 12.8-7 4.2-12.1 8.7-16.3 15.6-1.6 2.6-3.9 7.9-2.5 9.2 2.6 2.4 4.4 0.1 7.1-4.2 0.7-1.2 3.9-3.9 5.2-6.3-2 8.2-13.2 18.9-15 29-1 6.1 0 10.2 6.8 10.8 8.2 0.7 8.6-6.2 14.4-10.1 2.3-1.5 7.3-1.6 12-9.4 2.6-4.4 5.2-9.9 6.7-14.7 1.8-6.1 4-14.5 6.1-18.9 2.1-4.5 55.7-71.6 62.8-87.5 8.3-18.8 9.1-34.7 1.6-38.8z"/>
							</g>
							<g id="&lt;Group&gt;">
								<path id="&lt;Path&gt;" class="s28" d="m1258 684.1c-30.9-3.3-33.6 54.8-38.9 74.1-5.1 18.3-13.8 59.3-19.9 77.3-3.8 11-8.4 17.6 1.5 25.7 9.9 8 18 2.2 21.1-4.8 10.6-24.6 38.2-115.5 42.7-138.3 4.8-24.7-6.5-34-6.5-34z"/>
							</g>
						</g>
					</g>
					<g id="&lt;Group&gt;">
						<g id="&lt;Group&gt;">
							<g id="&lt;Group&gt;">
								<path id="&lt;Path&gt;" class="s24" d="m1419.7 832.4c18.7-10.2 23.7 12.1 29.3 24.7 7.5 17.1 67.9 76 72.4 79.2 4.5 3.1 9 7.2 15.7 9.4 7.8 2.6 13.8 5.8 19.5 11.6 2.1 2.1 5.5 6.7 4.4 8.4-1.9 2.9-4.2 1-7.8-2.5-0.9-1-4.7-2.9-6.5-5 3.8 7.5 17.2 15.4 21.1 24.8 2.4 5.8 2.4 10-4.1 12.1-7.8 2.6-9.8-4.1-16.3-6.5-2.6-1-7.5 0-13.8-6.5-3.6-3.6-7.4-8.4-9.9-12.8-3.1-5.5-7.2-13.2-10.2-17-3.1-3.9-85.1-65.2-92.2-81.1-8.4-18.8-9.1-34.7-1.6-38.8z"/>
							</g>
							<g id="&lt;Group&gt;">
								<path id="&lt;Path&gt;" class="s28" d="m1379.8 684.1c31-3.3 33.6 54.8 39 74.1 5.1 18.3 13.8 59.3 19.9 77.3 3.8 11 8.4 17.6-1.5 25.7-9.9 8-18 2.2-21.1-4.8-10.7-24.6-38.2-115.5-42.7-138.3-4.9-24.7 6.4-34 6.4-34z"/>
							</g>
						</g>
					</g>
				</g>
				<g id="&lt;Group&gt;">
					<path id="&lt;Path&gt;" class="s29" d="m1373.8 827.4c8.8-45.1 14.2-126 13.6-143.2l-23.8-5.3c0 0-1 47.5-44.7 47.5-43.6 0-44.6-47.5-44.6-47.5-19.2 2.3-23.9 5.3-23.9 5.3-0.6 17.2 4.9 98.1 13.7 143.2 5.3 27.7-24.2 86.2-29.9 157.9-2.7 34.3 3 190.2 5.7 225 0 0 37.2-35.7 33.5-118.9 0 0 10.3 125.1 125.8 117.3 0 0 8.5-180.9 8.5-215.4 0-83.5-39.3-138.2-33.9-165.9z"/>
				</g>
				<g id="&lt;Group&gt;">
					<path id="&lt;Path&gt;" class="s30" d="m1301.1 658.3c0 0-7.2 10.5-21.1 15.5-17.7 6.4-49.2 12.6-56.6 31.4-13.3 33.5-40 113.6-44.5 132.8l-50.6 95.8c0 0 31.8 25.4 45.2 26.2 0 0 49.9-81 56.7-100.3 0 0-25.4 107.4-35.5 197.4-6.5 58.5 0 103.7 12.9 103.7 0 0 39.5-32.6 48.3-166.8 4.4-65.5 18.3-213 18.3-248.2 0-52.2 20.7-54.9 26.9-87.5z"/>
				</g>
				<g id="&lt;Group&gt;">
					<path id="&lt;Path&gt;" class="s30" d="m1336.7 657.8c0 0 8.1 11 22 16 17.7 6.4 49.2 12.6 56.6 31.4 13.2 33.5 40 113.6 44.4 132.8l73.7 84c0 0-25.1 32-38.1 35.8 0 0-80-78.8-86.9-98.1 0 0 30 107.4 40.1 197.4 6.6 58.5 2.3 98.8-17.4 103.7 0 0-39.5-32.6-48.4-166.8-4.3-65.5-19-211.1-19-246.4 0-52.1-19.6-54.5-27-89.8z"/>
				</g>
				<g id="&lt;Group&gt;">
					<path id="&lt;Path&gt;" class="s24" d="m1355.2 549.4c-8.2-19.3-24.2-21.7-24.2-21.7-3.2-0.8-6.5-1.3-9.7-1.7v-0.4q-1 0.1-1.9 0.2-1-0.1-1.9-0.2v0.4c-3.2 0.4-6.5 0.9-9.7 1.7 0 0-16 2.4-24.2 21.7-5.2 12.3-2.5 18-1.8 29.5 0.7 11 0.3 13.2 2.3 22.2 2.6 11.4 12.2 20.9 22 28 4.6 3 9 4.2 13.3 4 4.2 0.2 8.7-1 13.3-4 9.8-7.1 19.4-16.6 21.9-28 2-9 1.7-11.2 2.4-22.2 0.7-11.5 3.4-17.2-1.8-29.5z"/>
				</g>
				<g id="&lt;Group&gt;">
					<path id="&lt;Path&gt;" class="s23" d="m1312.8 517c-27.3 5.9-38 30.1-44.1 54.7 1.4 5.5 3.3 9.3 5.6 10.3 1.9 0.7 1.3-1.5 2.3-1.9 2.5-0.9 2.7 0.6 5.4 0.7 6.1 0.1 2.5-10.1 6.9-14 1.9-1.6 4.6-1.9 6.5-4 2.4-2.6 3.5-6.5 4.2-9.8 1.2-6.7 1.6-10 8.2-13.1 6-2.9 10.1-6.9 13.8-12.5-2.5 8.7 1.2 13.3 8.8 16.4 6.9 2.7 10.1 6.2 10.5 13.7 0.1 2.8-0.4 6.8 1.9 8.7 2.4 1.9 5.4 0.7 7.8 3.7 3.6 4.6-1.2 16 5 17 10.3 1.7 14.7-12.4 16.2-20.7-10.3-24.4-27.3-56-59-49.2z"/>
				</g>
				<g id="&lt;Group&gt;">
					<path id="&lt;Path&gt;" class="s24" d="m1285.3 584.3c-1.9-7.9-14-15-15.6-2.6-1.2 10.1 10.5 31.1 15.7 11.9z"/>
				</g>
				<g id="&lt;Group&gt;">
					<path id="&lt;Path&gt;" class="s24" d="m1353.5 584.3c1.9-7.9 14-15 15.5-2.6 1.3 10.1-10.4 31.1-15.6 11.9z"/>
				</g>
				<g id="&lt;Group&gt;">
					<g id="&lt;Group&gt;">
						<g id="&lt;Group&gt;" style="mix-blend-mode: multiply">
							<g id="&lt;Group&gt;">
								<path id="&lt;Path&gt;" class="s15" d="m1316.1 619.8c1.6-0.9 3-1 4.7-1.1 0.4-0.1 0.5-0.5 0.2-0.7-1.7-1.3-4-0.2-5.4 1.1-0.4 0.4 0.1 1 0.5 0.7z"/>
							</g>
						</g>
					</g>
					<g id="&lt;Group&gt;">
						<g id="&lt;Group&gt;">
							<g id="&lt;Group&gt;">
								<g id="&lt;Group&gt;">
									<path id="&lt;Path&gt;" class="s31" d="m1339.8 583.7c3 0 3-4.7 0-4.7-3 0-3 4.7 0 4.7z"/>
								</g>
							</g>
							<g id="&lt;Group&gt;">
								<g id="&lt;Group&gt;">
									<path id="&lt;Path&gt;" class="s32" d="m1332.9 572.7c2.4 0.1 4.1-1.8 6.6-1.5 2.3 0.2 4.6 1.9 6.8 1 0.8-0.4 1.2-1.2 0.8-2-1.3-2.3-5.6-3.3-8.1-3.1-2.6 0.2-6.2 1.7-7 4.4-0.2 0.6 0.3 1.2 0.9 1.2z"/>
								</g>
							</g>
						</g>
						<g id="&lt;Group&gt;">
							<path id="&lt;Path&gt;" class="s33" d="m1349.6 586.3c-7.2-3.8-24.1 9.2-12.9 15.4 11.2 6.2 20-11.5 12.9-15.4z"/>
						</g>
						<g id="&lt;Group&gt;">
							<g id="&lt;Group&gt;">
								<g id="&lt;Group&gt;">
									<path id="&lt;Path&gt;" class="s31" d="m1297 583.7c3 0 3-4.7 0-4.7-3 0-3.1 4.7 0 4.7z"/>
								</g>
							</g>
							<g id="&lt;Group&gt;">
								<g id="&lt;Group&gt;">
									<path id="&lt;Path&gt;" class="s32" d="m1304.8 571.5c-0.8-2.7-4.4-4.2-7-4.4-2.5-0.2-6.9 0.8-8.1 3.1-0.5 0.8 0 1.6 0.8 2 2.1 0.8 4.5-0.8 6.7-1 2.5-0.3 4.3 1.6 6.6 1.5 0.6 0 1.2-0.6 1-1.2z"/>
								</g>
							</g>
						</g>
						<g id="&lt;Group&gt;">
							<path id="&lt;Path&gt;" class="s33" d="m1287.2 586.3c7.1-3.8 24 9.2 12.8 15.4-11.2 6.2-20-11.5-12.8-15.4z"/>
						</g>
					</g>
					<g id="&lt;Group&gt;">
						<g id="&lt;Group&gt;" style="mix-blend-mode: multiply">
							<g id="&lt;Group&gt;">
								<path id="&lt;Path&gt;" class="s20" d="m1308.1 572.3c1.7 3.2 4.2 5.8 5.6 9.3 0.1 0.1 0.3 0.1 0.3-0.1-0.4-3.5-3.6-6.7-5.9-9.2q-0.1 0 0 0z"/>
							</g>
						</g>
						<g id="&lt;Group&gt;" style="mix-blend-mode: multiply">
							<g id="&lt;Group&gt;">
								<path id="&lt;Path&gt;" class="s20" d="m1315.7 588.3c0.2 2.5-0.1 4.9-0.8 7.4-0.2 1-1.2 3.1-0.8 4.2 0.9 2.1 5.6 1.4 7.2 0.8 0.1-0.1 0.1-0.3-0.1-0.2-1.4 0.4-3 0.3-4.4 0-2.4-0.5-1.9-2.1-1.5-3.9 0.8-2.9 1.1-5.4 0.6-8.4-0.1-0.1-0.2-0.1-0.2 0.1z"/>
							</g>
						</g>
					</g>
					<g id="&lt;Group&gt;">
						<g id="&lt;Group&gt;" style="mix-blend-mode: multiply">
							<path id="&lt;Path&gt;" class="s34" d="m1328.3 608.3c0 0-4.3 0.3-6.7-0.5-0.9-0.3-2.3 0.1-3.1 0.7-1-0.7-2.3-1.1-3.4-0.7-2.1 0.9-6.7 0.6-6.7 0.6 0 0 2.8 7 9.9 7 7.2 0 10-7.1 10-7.1z"/>
						</g>
						<g id="&lt;Group&gt;" style="mix-blend-mode: multiply">
							<g id="&lt;Group&gt;">
								<path id="&lt;Path&gt;" class="s34" d="m1328.2 608.3c-5.8 3.6-13.9 4.3-19.8 0.1-0.1-0.1-0.1 0-0.1 0.1 4.5 4.3 15.8 4.9 20-0.1 0.1-0.1 0-0.2-0.1-0.1z"/>
							</g>
						</g>
					</g>
				</g>
			</g>
		</g>
	</g>
</svg>