<svg width="79" height="14" viewBox="0 0 79 14" fill="none" xmlns="http://www.w3.org/2000/svg">
<path d="M6.16 1.608C7.536 1.608 8.672 1.94933 9.568 2.632C10.464 3.304 11.0827 4.22667 11.424 5.4H9.888C9.6 4.65333 9.136 4.06133 8.496 3.624C7.856 3.176 7.072 2.952 6.144 2.952C5.408 2.952 4.74667 3.13333 4.16 3.496C3.584 3.848 3.12533 4.36 2.784 5.032C2.45333 5.69333 2.288 6.472 2.288 7.368C2.288 8.25333 2.45333 9.02667 2.784 9.688C3.12533 10.3493 3.584 10.8613 4.16 11.224C4.74667 11.576 5.408 11.752 6.144 11.752C7.072 11.752 7.856 11.5333 8.496 11.096C9.136 10.648 9.6 10.0507 9.888 9.304H11.424C11.0827 10.4773 10.464 11.4053 9.568 12.088C8.672 12.76 7.536 13.096 6.16 13.096C5.104 13.096 4.17067 12.856 3.36 12.376C2.54933 11.8853 1.91467 11.208 1.456 10.344C1.008 9.46933 0.784 8.47733 0.784 7.368C0.784 6.248 1.008 5.25067 1.456 4.376C1.91467 3.50133 2.54933 2.824 3.36 2.344C4.17067 1.85333 5.104 1.608 6.16 1.608ZM16.9711 4.104C17.8245 4.104 18.5445 4.31733 19.1311 4.744C19.7285 5.17067 20.1445 5.74133 20.3791 6.456V4.216H21.8351V13H20.3791V10.76C20.1445 11.4747 19.7285 12.0453 19.1311 12.472C18.5445 12.8987 17.8245 13.112 16.9711 13.112C16.1925 13.112 15.4991 12.9307 14.8911 12.568C14.2831 12.2053 13.8031 11.688 13.4511 11.016C13.1098 10.3333 12.9391 9.53333 12.9391 8.616C12.9391 7.69867 13.1098 6.89867 13.4511 6.216C13.8031 5.53333 14.2831 5.01067 14.8911 4.648C15.4991 4.28533 16.1925 4.104 16.9711 4.104ZM17.3871 5.4C16.4911 5.4 15.7711 5.688 15.2271 6.264C14.6938 6.82933 14.4271 7.61333 14.4271 8.616C14.4271 9.61867 14.6938 10.408 15.2271 10.984C15.7711 11.5493 16.4911 11.832 17.3871 11.832C17.9631 11.832 18.4751 11.6987 18.9231 11.432C19.3818 11.1653 19.7391 10.792 19.9951 10.312C20.2511 9.82133 20.3791 9.256 20.3791 8.616C20.3791 7.976 20.2511 7.41067 19.9951 6.92C19.7391 6.42933 19.3818 6.056 18.9231 5.8C18.4751 5.53333 17.9631 5.4 17.3871 5.4ZM28.3444 11.72V13H27.2564C26.3604 13 25.6884 12.7867 25.2404 12.36C24.803 11.9333 24.5844 11.2187 24.5844 10.216V5.48H23.2724V4.216H24.5844V2.024H26.0564V4.216H28.3284V5.48H26.0564V10.248C26.0564 10.8133 26.1577 11.2027 26.3604 11.416C26.5737 11.6187 26.9364 11.72 27.4484 11.72H28.3444ZM34.7451 4.072C35.7691 4.072 36.5958 4.40267 37.2251 5.064C37.8545 5.71467 38.1691 6.65867 38.1691 7.896V13H36.7131V8.024C36.7131 7.14933 36.4891 6.47733 36.0411 6.008C35.5931 5.53867 34.9851 5.304 34.2171 5.304C33.4171 5.304 32.7771 5.56533 32.2971 6.088C31.8171 6.6 31.5771 7.352 31.5771 8.344V13H30.1211V1.16H31.5771V6.296C31.8011 5.58133 32.1958 5.032 32.7611 4.648C33.3371 4.264 33.9985 4.072 34.7451 4.072ZM48.4824 8.12C48.4824 8.42933 48.461 8.696 48.4184 8.92H41.3944C41.4264 9.92267 41.709 10.6747 42.2424 11.176C42.7864 11.6773 43.4477 11.928 44.2264 11.928C44.9304 11.928 45.517 11.752 45.9864 11.4C46.4664 11.0373 46.7597 10.5573 46.8664 9.96H48.4184C48.3117 10.568 48.0717 11.112 47.6984 11.592C47.3357 12.072 46.861 12.4453 46.2744 12.712C45.6877 12.9787 45.0264 13.112 44.2904 13.112C43.4477 13.112 42.701 12.9307 42.0504 12.568C41.3997 12.2053 40.8877 11.688 40.5144 11.016C40.1517 10.3333 39.9704 9.53333 39.9704 8.616C39.9704 7.69867 40.1517 6.89867 40.5144 6.216C40.8877 5.53333 41.3997 5.01067 42.0504 4.648C42.701 4.28533 43.4477 4.104 44.2904 4.104C45.1437 4.104 45.885 4.28533 46.5144 4.648C47.1544 5.01067 47.6397 5.496 47.9704 6.104C48.3117 6.712 48.4824 7.384 48.4824 8.12ZM47.0104 8.216C47.0424 7.56533 46.9357 7.02133 46.6904 6.584C46.445 6.14667 46.109 5.82133 45.6824 5.608C45.2557 5.39467 44.7917 5.288 44.2904 5.288C43.4904 5.288 42.8184 5.53867 42.2744 6.04C41.7304 6.53067 41.437 7.256 41.3944 8.216H47.0104ZM51.8428 5.992C52.1308 5.384 52.5521 4.91467 53.1068 4.584C53.6614 4.24267 54.3228 4.072 55.0908 4.072V5.656H54.6428C53.8214 5.656 53.1494 5.86933 52.6268 6.296C52.1041 6.712 51.8428 7.40533 51.8428 8.376V13H50.3868V4.216H51.8428V5.992ZM56.2714 1.64C56.2714 1.37333 56.362 1.16 56.5434 0.999999C56.7247 0.829333 56.9647 0.743999 57.2634 0.743999C57.562 0.743999 57.802 0.829333 57.9834 0.999999C58.1647 1.16 58.2554 1.37333 58.2554 1.64C58.2554 1.90667 58.1647 2.12533 57.9834 2.296C57.802 2.456 57.562 2.536 57.2634 2.536C56.9647 2.536 56.7247 2.456 56.5434 2.296C56.362 2.12533 56.2714 1.90667 56.2714 1.64ZM57.9834 4.216V13H56.5274V4.216H57.9834ZM64.9483 4.072C65.9723 4.072 66.7989 4.40267 67.4283 5.064C68.0576 5.71467 68.3723 6.65867 68.3723 7.896V13H66.9163V8.024C66.9163 7.14933 66.6923 6.47733 66.2443 6.008C65.7963 5.53867 65.1883 5.304 64.4203 5.304C63.6203 5.304 62.9803 5.56533 62.5003 6.088C62.0203 6.6 61.7803 7.352 61.7803 8.344V13H60.3243V4.216H61.7803V6.296C62.0043 5.58133 62.3989 5.032 62.9643 4.648C63.5403 4.264 64.2016 4.072 64.9483 4.072ZM78.6855 8.12C78.6855 8.42933 78.6642 8.696 78.6215 8.92H71.5975C71.6295 9.92267 71.9122 10.6747 72.4455 11.176C72.9895 11.6773 73.6508 11.928 74.4295 11.928C75.1335 11.928 75.7202 11.752 76.1895 11.4C76.6695 11.0373 76.9628 10.5573 77.0695 9.96H78.6215C78.5148 10.568 78.2748 11.112 77.9015 11.592C77.5388 12.072 77.0642 12.4453 76.4775 12.712C75.8908 12.9787 75.2295 13.112 74.4935 13.112C73.6508 13.112 72.9042 12.9307 72.2535 12.568C71.6028 12.2053 71.0908 11.688 70.7175 11.016C70.3548 10.3333 70.1735 9.53333 70.1735 8.616C70.1735 7.69867 70.3548 6.89867 70.7175 6.216C71.0908 5.53333 71.6028 5.01067 72.2535 4.648C72.9042 4.28533 73.6508 4.104 74.4935 4.104C75.3468 4.104 76.0882 4.28533 76.7175 4.648C77.3575 5.01067 77.8428 5.496 78.1735 6.104C78.5148 6.712 78.6855 7.384 78.6855 8.12ZM77.2135 8.216C77.2455 7.56533 77.1388 7.02133 76.8935 6.584C76.6482 6.14667 76.3122 5.82133 75.8855 5.608C75.4588 5.39467 74.9948 5.288 74.4935 5.288C73.6935 5.288 73.0215 5.53867 72.4775 6.04C71.9335 6.53067 71.6402 7.256 71.5975 8.216H77.2135Z" fill="#303030"/>
</svg>
