<svg width="1072" height="1037" viewBox="0 0 1072 1037" fill="none" xmlns="http://www.w3.org/2000/svg">
<path fill-rule="evenodd" clip-rule="evenodd" d="M710.862 825.73C637.889 855.77 569.081 895.32 490.187 893.839C403.453 892.212 302.71 884.525 248.226 817.05C194.288 750.253 231.565 652.439 226.074 566.756C221.347 492.987 195.031 420.72 218.332 350.559C243.875 273.646 286.761 193.825 360.846 160.938C433.715 128.591 514.644 169.478 592.979 184.251C667.173 198.243 743.789 201.28 805.478 244.793C874.648 293.582 932.718 359.754 956.82 440.889C982.791 528.318 992.048 630.597 942.919 707.466C894.996 782.449 793.157 791.851 710.862 825.73Z" fill="#F36669" fill-opacity="0.2"/>
<g opacity="0.7">
<path d="M250.864 452.216C250.864 452.51 250.864 452.804 250.889 453.098C256.858 463.564 265.612 472.421 275.989 478.53C279.849 480.805 283.938 482.709 288.028 484.6C288.054 484.6 288.079 484.588 288.105 484.588C285.293 475.859 282.699 466.862 279.683 458.197C269.893 456.318 260.768 455.194 250.864 452.216Z" fill="#E28C8D" fill-opacity="0.7"/>
<path d="M272.283 531.337C272.066 531.375 271.836 531.414 271.618 531.452C273.944 544.257 278.315 556.91 284.232 568.795C293.255 566.456 302.111 563.389 310.649 559.645L310.815 559.402C297.984 550.149 285.165 540.896 272.334 531.644L272.283 531.337Z" fill="#E28C8D" fill-opacity="0.7"/>
<path d="M260.449 487.553C264.232 494.415 269.088 500.69 274.865 506.071C277.817 508.818 280.986 511.349 284.207 513.841C295.568 512.116 306.802 509.687 317.869 506.569C314.636 502.441 311.173 498.531 307.109 495.284C304.31 493.048 301.281 491.182 298.137 489.508C294.852 487.731 291.44 486.172 288.028 484.6C278.877 485.866 269.676 486.85 260.449 487.553Z" fill="#E28C8D" fill-opacity="0.7"/>
<path d="M279.683 458.184C282.699 466.862 285.293 475.859 288.105 484.588C288.079 484.588 288.054 484.6 288.028 484.6C291.44 486.172 294.852 487.731 298.137 489.508L298.162 489.47C296.437 480.102 294.712 470.734 292.999 461.366C289.089 460.152 285.076 459.232 281.152 458.465C280.667 458.363 280.168 458.274 279.683 458.184Z" fill="#E28C8D" fill-opacity="0.7"/>
<path d="M322.802 572.08C321.294 569.92 320.016 567.594 318.892 565.166L318.841 565.191C316.17 563.261 313.486 561.332 310.815 559.402L310.649 559.645C302.112 563.389 293.255 566.456 284.232 568.795C286.98 574.303 290.06 579.658 293.421 584.77L293.46 584.745C304.399 581.984 315.339 579.236 326.279 576.489L326.368 576.399C325.039 575.057 323.863 573.613 322.802 572.08Z" fill="#E28C8D" fill-opacity="0.7"/>
<path d="M303.428 530.928C304.259 531.963 305.038 533.037 305.779 534.161C307.198 536.321 308.412 538.609 309.498 540.973L309.703 540.884C321.243 539.209 332.694 536.986 344.017 534.2C343.199 533.752 342.381 533.279 341.576 532.768C334.79 528.474 329.704 522.276 324.834 515.796L324.732 515.873C316.706 518.48 308.514 520.64 300.246 522.353C298.853 522.646 297.472 522.915 296.067 523.119L295.964 523.234C298.661 525.611 301.191 528.129 303.428 530.928Z" fill="#E28C8D" fill-opacity="0.7"/>
<path d="M311.313 470.734C314.738 482.313 317.115 494.454 318.189 506.48C318.087 506.505 317.972 506.544 317.869 506.569C320.259 509.585 322.521 512.716 324.834 515.796C329.704 522.276 334.79 528.474 341.576 532.768C342.381 533.279 343.199 533.752 344.017 534.2C344.183 534.161 344.337 534.123 344.503 534.085C342.816 518.582 339.902 503.016 336.362 487.834L336.413 487.668C332.055 486.479 327.838 484.971 324.119 482.441C319.339 479.182 315.761 474.453 311.313 470.734Z" fill="#E28C8D" fill-opacity="0.7"/>
<path d="M372.964 606.854C372.235 605.653 371.456 604.477 370.625 603.339L370.51 603.416C352.58 609.525 334.125 614.087 315.416 617.027C321.448 625.053 328.758 632.465 336.681 638.817C352.273 637.13 367.635 633.257 382.165 627.353L382.843 627.021C379.52 620.324 376.76 613.154 372.964 606.854Z" fill="#E28C8D" fill-opacity="0.7"/>
<path d="M345.973 393.811L345.883 393.977C355.353 404.955 364.401 416.394 372.619 428.317C372.465 425.199 372.056 422.196 371.941 419.077C371.801 415.627 371.507 412.163 371.047 408.738C362.995 403.281 354.65 398.284 345.973 393.811Z" fill="#E28C8D" fill-opacity="0.7"/>
<path d="M347.468 490.454C347.366 490.428 347.276 490.403 347.174 490.377C350.19 506.39 352.401 522.557 353.794 538.788C356.478 540.002 359.123 541.292 361.602 542.89C368.58 547.414 373.488 554.162 378.357 560.769C378.868 549.369 377.769 537.356 375.226 526.25L375.482 526.148C372.504 518.697 369.769 511.157 367.251 503.528C363.417 496.384 354.944 492.511 347.468 490.454Z" fill="#E28C8D" fill-opacity="0.7"/>
<path d="M353.423 451.066C354.254 455.168 355.123 459.27 356.056 463.347H356.133C372.082 468.293 388.441 471.45 405.042 473.277C404.198 472.025 403.329 470.785 402.473 469.533C399.955 465.903 397.361 462.338 394.741 458.785C394.741 458.938 394.716 459.079 394.703 459.232C380.811 457.2 367.034 454.478 353.423 451.066Z" fill="#E28C8D" fill-opacity="0.7"/>
<path d="M356.133 463.334H356.056C358.344 473.341 360.963 483.246 363.928 493.035L364.261 492.933C369.27 494.901 374.625 495.783 379.942 496.537C393.987 498.518 408.147 499.63 422.333 499.885C422.333 499.732 422.359 499.591 422.359 499.438C416.723 490.633 410.959 481.904 405.042 473.277C388.44 471.45 372.082 468.293 356.133 463.334Z" fill="#E28C8D" fill-opacity="0.7"/>
<path d="M371.047 408.738C371.507 412.163 371.801 415.627 371.941 419.077C372.056 422.196 372.465 425.199 372.619 428.317C373.245 429.186 373.846 430.081 374.446 430.963C375.801 432.956 377.168 434.925 378.562 436.88L378.638 436.829C378.804 429.378 378.983 421.902 379.149 414.438C376.478 412.483 373.782 410.579 371.047 408.738Z" fill="#E28C8D" fill-opacity="0.7"/>
<path d="M378.638 436.829L378.562 436.88C383.814 444.267 389.348 451.487 394.741 458.785C395.636 448.088 395.303 436.944 394.064 426.285L394.115 426.221C389.258 422.132 384.261 418.196 379.149 414.438C378.983 421.902 378.804 429.378 378.638 436.829Z" fill="#E28C8D" fill-opacity="0.7"/>
<path d="M395.137 661.565L380.223 668.121C387.878 671.968 395.917 675.048 404.185 677.31C418.908 679.24 433.682 680.799 448.481 682C439.356 675.84 432.672 664.581 423.228 658.038C422.908 657.808 422.576 657.591 422.244 657.399C418.537 654.983 414.435 653.245 410.32 651.52V651.558C406.614 656.44 400.748 659.099 395.137 661.565Z" fill="#E28C8D" fill-opacity="0.7"/>
<path d="M411.738 584.885C420.748 587.096 430.397 587.978 439.458 588.962C450.922 590.202 462.462 590.866 473.99 590.917C469.696 582.214 465.261 573.588 460.698 565.025C457.925 559.824 455.114 554.66 452.251 549.51C428.736 549.318 404.952 548.143 382.408 541.433L382.038 541.599C384.785 547.721 387.699 553.766 390.779 559.721C394.792 567.466 399.073 575.083 403.597 582.534L403.687 582.482C404.364 582.7 405.029 582.93 405.706 583.147C407.674 583.799 409.694 584.374 411.738 584.885Z" fill="#E28C8D" fill-opacity="0.7"/>
<path d="M397.642 645.335C401.566 647.878 405.949 649.68 410.32 651.52C414.435 653.245 418.537 654.983 422.244 657.399L422.448 657.079C433.886 655.533 445.26 653.424 456.494 650.766L456.635 650.625C451.817 645.782 447.165 640.798 442.64 635.673C427.982 640.248 412.889 643.494 397.642 645.335Z" fill="#E28C8D" fill-opacity="0.7"/>
<path d="M427.113 607.25C424.544 606.943 421.988 606.636 419.419 606.304L419.343 606.368C426.602 616.528 434.385 626.318 442.64 635.673C447.165 640.797 451.817 645.782 456.635 650.625C468.801 662.92 481.875 674.319 495.792 684.607C500.687 684.773 505.582 684.876 510.477 684.927C504.176 659.303 494.489 634.625 483.409 610.611C464.481 611.02 445.823 609.474 427.113 607.25Z" fill="#E28C8D" fill-opacity="0.7"/>
<path d="M421.132 451.794C423.151 467.462 423.509 483.68 422.359 499.438C424.544 502.85 426.704 506.288 428.838 509.726C436.966 522.8 444.762 536.066 452.251 549.51H452.341C455.037 532.104 456.686 514.097 457.657 496.499C454.807 492.486 451.906 488.537 448.941 484.652C440.263 473.252 430.998 462.223 421.132 451.794Z" fill="#E28C8D" fill-opacity="0.7"/>
<path d="M473.99 590.917L475.408 593.793C478.143 599.365 480.814 604.963 483.409 610.611C494.489 634.625 504.176 659.303 510.477 684.927C514.387 684.991 518.285 685.016 522.196 685.016C523.397 624.95 502.412 566.341 470.168 515.196C469.887 532.104 466.756 548.973 460.98 564.872L460.698 565.025C465.261 573.588 469.696 582.214 473.99 590.917Z" fill="#E28C8D" fill-opacity="0.7"/>
<path d="M322.802 572.079C323.863 573.613 325.039 575.057 326.368 576.399C326.803 576.846 327.25 577.281 327.723 577.703C331.48 581.076 335.953 583.326 340.643 585.256V585.23C357.487 584.834 374.255 581.958 390.255 576.706L390.281 576.68C386.255 572.118 382.932 566.955 379.316 562.073L378.357 560.769C378.357 560.974 378.357 561.191 378.332 561.395C360.133 566.418 341.551 569.983 322.802 572.079Z" fill="#E28C8D" fill-opacity="0.7"/>
<path d="M340.656 585.23V585.256C348.797 588.604 357.59 590.994 364.363 596.553C366.778 598.547 368.836 600.834 370.625 603.339C371.456 604.477 372.235 605.652 372.964 606.854C386.817 605.474 400.569 602.981 414 599.339L414.294 599.135C413.016 597.282 411.764 595.403 410.55 593.524L410.435 593.601C405.63 587.415 398.434 584.885 392.965 579.517C392.032 578.61 391.137 577.651 390.281 576.68L390.255 576.706C374.255 581.958 357.487 584.834 340.656 585.23Z" fill="#E28C8D" fill-opacity="0.7"/>
<path d="M397.642 645.334C396.62 644.683 395.636 643.967 394.69 643.2C389.424 638.919 385.897 633.181 382.843 627.021L382.165 627.353C367.635 633.257 352.273 637.13 336.681 638.817C341.551 642.715 346.663 646.229 351.826 649.207C354.19 647.954 357.564 647.188 359.928 645.935C359.187 648.44 359.609 652.133 358.867 654.651C365.513 659.827 372.683 664.338 380.223 668.121L395.137 661.565C400.748 659.099 406.614 656.44 410.307 651.558V651.52C405.949 649.68 401.565 647.878 397.642 645.334Z" fill="#DE5457" fill-opacity="0.7"/>
<path d="M293.459 584.745L293.421 584.77C295.99 588.706 298.738 592.502 301.626 596.131C305.345 595.965 310.764 596.528 314.368 595.659C311.888 598.381 310.393 602.815 307.914 605.525C310.086 609.461 312.617 613.308 315.416 617.027C334.125 614.087 352.58 609.525 370.51 603.416L370.625 603.339C368.836 600.835 366.778 598.547 364.363 596.553C357.59 590.994 348.797 588.604 340.643 585.256C335.953 583.326 331.48 581.077 327.723 577.703C327.25 577.281 326.803 576.846 326.368 576.399L326.279 576.489C315.339 579.236 304.399 581.984 293.459 584.745Z" fill="#DE5457" fill-opacity="0.7"/>
<path d="M272.283 531.337L272.334 531.644C285.165 540.896 297.984 550.149 310.815 559.402C313.486 561.331 316.169 563.261 318.84 565.191L318.892 565.165C315.288 557.497 313.102 548.807 309.498 540.973C308.412 538.609 307.198 536.321 305.779 534.161C305.038 533.037 304.259 531.963 303.428 530.928C292.923 529.292 282.75 529.496 272.283 531.337Z" fill="#DE5457" fill-opacity="0.7"/>
<path d="M250.889 453.098C251.298 465.175 254.634 477.047 260.449 487.553C269.676 486.85 278.878 485.866 288.028 484.6C283.938 482.709 279.849 480.805 275.989 478.53C265.612 472.421 256.858 463.564 250.889 453.098Z" fill="#F39C9E" fill-opacity="0.7"/>
<path d="M293 461.366C294.712 470.734 296.437 480.102 298.163 489.47L298.137 489.508C301.281 491.182 304.31 493.048 307.109 495.285C311.173 498.531 314.636 502.441 317.869 506.569C317.972 506.544 318.087 506.505 318.189 506.48C317.115 494.454 314.738 482.313 311.313 470.734C311.288 470.709 311.249 470.683 311.224 470.658C305.946 466.261 299.607 463.398 293 461.366Z" fill="#F39C9E" fill-opacity="0.7"/>
<path d="M284.207 513.841C288.194 516.921 292.233 519.937 295.964 523.234L296.067 523.119C297.472 522.915 298.853 522.646 300.246 522.352C308.514 520.64 316.706 518.48 324.732 515.873L324.834 515.796C322.521 512.716 320.259 509.585 317.869 506.569C306.802 509.687 295.568 512.116 284.207 513.841Z" fill="#F39C9E" fill-opacity="0.7"/>
<path d="M336.413 487.667L336.362 487.834C339.902 503.016 342.816 518.582 344.503 534.084C344.337 534.123 344.183 534.161 344.017 534.199C347.174 535.912 350.51 537.292 353.794 538.787C352.401 522.557 350.19 506.39 347.174 490.377C343.634 489.406 339.979 488.639 336.413 487.667Z" fill="#F39C9E" fill-opacity="0.7"/>
<path d="M353.794 538.788C350.509 537.292 347.174 535.912 344.017 534.2C332.694 536.986 321.243 539.209 309.703 540.884L309.498 540.973C313.102 548.807 315.288 557.498 318.892 565.166C320.016 567.594 321.294 569.92 322.802 572.08C341.551 569.984 360.133 566.418 378.331 561.396C378.331 561.191 378.357 560.974 378.357 560.769C373.488 554.162 368.58 547.414 361.602 542.89C359.123 541.293 356.478 540.002 353.794 538.788Z" fill="#F39C9E" fill-opacity="0.7"/>
<path d="M375.482 526.148L375.226 526.25C377.769 537.356 378.868 549.369 378.357 560.769L379.316 562.073C382.932 566.955 386.255 572.118 390.281 576.68C391.137 577.652 392.032 578.61 392.965 579.517C398.435 584.885 405.63 587.415 410.435 593.601L410.55 593.524C408.16 589.908 405.847 586.24 403.598 582.534C399.074 575.083 394.792 567.466 390.779 559.721C387.699 553.766 384.786 547.721 382.038 541.599C379.725 536.5 377.552 531.35 375.482 526.148Z" fill="#F39C9E" fill-opacity="0.7"/>
<path d="M372.964 606.854C376.76 613.154 379.52 620.324 382.843 627.021C385.897 633.181 389.425 638.919 394.69 643.2C395.636 643.967 396.62 644.683 397.642 645.334C412.889 643.494 427.982 640.248 442.64 635.673C434.385 626.318 426.602 616.528 419.342 606.368C417.617 603.978 415.93 601.563 414.294 599.135L414 599.339C400.569 602.982 386.817 605.474 372.964 606.854Z" fill="#F39C9E" fill-opacity="0.7"/>
<path d="M422.448 657.079L422.244 657.399C422.576 657.591 422.908 657.808 423.228 658.038C432.672 664.581 439.356 675.84 448.481 682C464.226 683.291 479.996 684.16 495.793 684.608C481.875 674.32 468.801 662.92 456.635 650.625L456.494 650.766C445.26 653.424 433.886 655.533 422.448 657.079Z" fill="#F39C9E" fill-opacity="0.7"/>
<path d="M403.687 582.482L403.598 582.534C405.847 586.24 408.16 589.908 410.55 593.524C411.764 595.403 413.017 597.282 414.295 599.135C415.93 601.563 417.617 603.978 419.343 606.368L419.419 606.304C421.988 606.637 424.544 606.943 427.113 607.25C421.63 600.068 416.62 592.528 411.739 584.885C409.694 584.374 407.674 583.799 405.706 583.147C405.029 582.93 404.364 582.7 403.687 582.482Z" fill="#DE5457" fill-opacity="0.7"/>
<path d="M345.972 393.811C345.768 393.696 345.551 393.594 345.333 393.479C346.126 402.911 347.161 412.33 348.477 421.736C352.49 423.282 356.618 424.547 360.81 425.518C362.024 425.8 372.619 428.062 372.632 428.458C372.632 428.407 372.632 428.368 372.632 428.317C364.414 416.394 355.366 404.955 345.896 393.977L345.985 393.811H345.972Z" fill="#DE5457" fill-opacity="0.7"/>
<path d="M348.477 421.736C349.819 431.551 351.468 441.34 353.423 451.066C367.034 454.478 380.811 457.2 394.703 459.232C394.703 459.079 394.728 458.938 394.741 458.785C389.348 451.487 383.814 444.267 378.562 436.88C377.168 434.925 375.801 432.956 374.446 430.963C373.846 430.081 373.245 429.186 372.619 428.317C372.619 428.368 372.619 428.407 372.619 428.458C372.619 428.062 362.011 425.8 360.797 425.518C356.605 424.547 352.478 423.282 348.465 421.736H348.477Z" fill="#DE5457" fill-opacity="0.7"/>
<path d="M367.251 503.527C369.769 511.157 372.504 518.697 375.482 526.148C377.552 531.35 379.725 536.5 382.038 541.599L382.408 541.433C404.952 548.142 428.736 549.318 452.251 549.51C444.762 536.065 436.966 522.8 428.838 509.726C426.704 506.288 424.544 502.85 422.359 499.438C422.359 499.591 422.359 499.732 422.333 499.885C408.147 499.63 393.987 498.518 379.942 496.537C374.625 495.783 369.27 494.901 364.261 492.933L363.928 493.035C364.976 496.55 366.088 500.051 367.251 503.527Z" fill="#DE5457" fill-opacity="0.7"/>
<path d="M405.042 473.277C410.959 481.904 416.723 490.633 422.359 499.438C423.509 483.68 423.151 467.462 421.132 451.794C412.595 442.772 403.598 434.183 394.115 426.221L394.064 426.285C395.303 436.944 395.636 448.088 394.741 458.785C397.361 462.338 399.955 465.903 402.473 469.533C403.329 470.785 404.198 472.025 405.042 473.277Z" fill="#DE5457" fill-opacity="0.7"/>
<path d="M411.738 584.885C416.62 592.527 421.63 600.068 427.113 607.25C445.823 609.474 464.481 611.02 483.409 610.611C480.814 604.962 478.143 599.365 475.408 593.793L473.99 590.917C462.462 590.866 450.922 590.201 439.458 588.962C430.397 587.978 420.748 587.096 411.738 584.885Z" fill="#DE5457" fill-opacity="0.7"/>
<path d="M452.251 549.51C455.114 554.66 457.925 559.823 460.699 565.025L460.98 564.872C466.756 548.973 469.887 532.104 470.169 515.196C466.168 508.844 461.989 502.607 457.657 496.499C456.686 514.097 455.037 532.104 452.34 549.51H452.251Z" fill="#DE5457" fill-opacity="0.7"/>
<path d="M522.158 686.652C522.158 686.115 522.183 685.566 522.196 685.016C523.397 624.95 502.412 566.341 470.169 515.196C466.168 508.844 461.989 502.607 457.657 496.499C454.807 492.486 451.906 488.537 448.941 484.652C440.263 473.252 430.998 462.223 421.132 451.794C412.595 442.771 403.598 434.183 394.115 426.221C389.258 422.132 384.261 418.196 379.149 414.438C376.478 412.483 373.782 410.579 371.047 408.738C362.995 403.281 354.65 398.284 345.972 393.811C345.768 393.696 345.551 393.594 345.333 393.479C346.126 402.911 347.161 412.33 348.477 421.736C349.819 431.551 351.468 441.34 353.423 451.066C354.254 455.168 355.123 459.27 356.056 463.347C358.344 473.341 360.963 483.246 363.928 493.035C364.976 496.55 366.088 500.051 367.251 503.528C369.769 511.157 372.504 518.697 375.482 526.148C377.552 531.35 379.724 536.5 382.038 541.599C384.785 547.721 387.699 553.766 390.779 559.721C394.792 567.466 399.073 575.083 403.598 582.534C405.847 586.24 408.16 589.908 410.55 593.524C411.764 595.403 413.016 597.282 414.294 599.135C415.93 601.563 417.617 603.978 419.342 606.368C426.602 616.528 434.385 626.318 442.64 635.673C447.165 640.798 451.816 645.782 456.635 650.625C468.801 662.92 481.875 674.32 495.792 684.607C498.029 686.282 500.291 687.917 502.566 689.515" stroke="#2E1A3B" stroke-miterlimit="10"/>
<path d="M345.883 393.977C355.353 404.955 364.401 416.393 372.619 428.317C373.245 429.186 373.846 430.081 374.446 430.963C375.801 432.956 377.168 434.924 378.562 436.88C383.814 444.267 389.348 451.487 394.741 458.785C397.361 462.338 399.955 465.903 402.473 469.533C403.329 470.785 404.198 472.025 405.042 473.277C410.959 481.904 416.723 490.632 422.359 499.438C424.544 502.85 426.704 506.288 428.838 509.726C436.966 522.8 444.762 536.065 452.251 549.51C455.114 554.66 457.925 559.823 460.699 565.025C465.261 573.587 469.696 582.214 473.99 590.917L475.408 593.793C478.143 599.365 480.814 604.962 483.409 610.611C494.489 634.625 504.176 659.303 510.477 684.927C511.065 687.304 511.614 689.668 512.138 692.058" stroke="#2E1A3B" stroke-miterlimit="10"/>
<path d="M367.75 504.524C367.596 504.179 367.43 503.847 367.251 503.528C363.417 496.384 354.944 492.511 347.468 490.454C347.366 490.428 347.276 490.402 347.174 490.377C343.634 489.406 339.979 488.639 336.413 487.668C332.055 486.479 327.838 484.971 324.119 482.441C319.339 479.182 315.761 474.453 311.313 470.734C311.288 470.708 311.249 470.683 311.224 470.657C305.946 466.261 299.607 463.398 292.999 461.366C289.089 460.152 285.076 459.232 281.152 458.465C280.667 458.363 280.168 458.274 279.683 458.184C269.893 456.318 260.768 455.194 250.864 452.216C250.864 452.51 250.864 452.804 250.889 453.098C251.298 465.175 254.634 477.047 260.449 487.553C264.232 494.415 269.088 500.69 274.865 506.071C277.817 508.818 280.986 511.349 284.207 513.841C288.194 516.921 292.233 519.937 295.964 523.234C298.661 525.611 301.191 528.129 303.428 530.928C304.259 531.963 305.038 533.037 305.779 534.161C307.198 536.321 308.412 538.609 309.498 540.973C313.102 548.807 315.288 557.497 318.892 565.165C320.016 567.594 321.294 569.92 322.802 572.079C323.863 573.613 325.039 575.057 326.368 576.399C326.803 576.846 327.25 577.281 327.723 577.703C331.48 581.077 335.953 583.326 340.643 585.256C348.797 588.604 357.59 590.994 364.363 596.553C366.778 598.547 368.836 600.834 370.625 603.339C371.456 604.477 372.235 605.653 372.964 606.854C376.76 613.154 379.52 620.324 382.843 627.021C385.897 633.181 389.425 638.919 394.69 643.2C395.636 643.967 396.62 644.683 397.642 645.334C401.566 647.878 405.949 649.68 410.32 651.52C414.435 653.245 418.537 654.983 422.244 657.399C422.576 657.59 422.908 657.808 423.228 658.038C432.672 664.581 439.356 675.84 448.481 682C451.574 684.083 454.935 685.591 458.769 686.128" stroke="#2E1A3B" stroke-miterlimit="10"/>
<path d="M423.662 681.067C417.08 680.326 410.563 679.074 404.185 677.31C395.917 675.048 387.878 671.968 380.223 668.121C372.683 664.338 365.513 659.827 358.867 654.651C359.609 652.133 359.187 648.44 359.928 645.935C357.564 647.187 354.19 647.954 351.826 649.207C346.663 646.229 341.551 642.714 336.681 638.817C328.758 632.465 321.448 625.053 315.415 617.027C312.617 613.308 310.086 609.461 307.914 605.525C310.393 602.815 311.888 598.381 314.368 595.659C310.764 596.528 305.345 595.965 301.626 596.131C298.738 592.502 295.99 588.706 293.421 584.77C290.06 579.658 286.98 574.303 284.232 568.795C278.315 556.91 273.944 544.257 271.618 531.452C271.836 531.413 272.066 531.375 272.283 531.337C282.75 529.496 292.923 529.292 303.428 530.928L303.926 531.005" stroke="#2E1A3B" stroke-miterlimit="10"/>
<path d="M250.876 453.072C250.876 453.072 250.889 453.085 250.889 453.098C256.858 463.564 265.612 472.421 275.989 478.53C279.849 480.805 283.938 482.709 288.028 484.6C291.44 486.172 294.852 487.731 298.137 489.508C301.281 491.182 304.31 493.048 307.108 495.284C311.173 498.53 314.636 502.441 317.869 506.569C320.259 509.585 322.521 512.716 324.834 515.796C329.704 522.276 334.79 528.474 341.576 532.768C342.381 533.279 343.199 533.752 344.017 534.199C347.174 535.912 350.509 537.292 353.794 538.787C356.478 540.002 359.123 541.292 361.602 542.89C368.58 547.414 373.488 554.162 378.357 560.769L379.315 562.073C382.932 566.955 386.255 572.118 390.281 576.68C391.137 577.651 392.032 578.61 392.964 579.517C398.434 584.885 405.629 587.415 410.435 593.601" stroke="#2E1A3B" stroke-miterlimit="10"/>
<path d="M272.334 531.644C285.165 540.896 297.984 550.149 310.815 559.402C313.486 561.331 316.17 563.261 318.841 565.191" stroke="#2E1A3B" stroke-miterlimit="10"/>
<path d="M348.324 421.684C348.324 421.684 348.426 421.723 348.477 421.736C352.49 423.282 356.618 424.547 360.81 425.518C362.024 425.8 372.619 428.062 372.632 428.458C372.632 428.407 372.632 428.368 372.632 428.317C372.478 425.199 372.069 422.196 371.954 419.077C371.814 415.627 371.52 412.163 371.06 408.738C371.06 408.598 371.021 408.47 371.008 408.329" stroke="#2E1A3B" stroke-miterlimit="10"/>
<path d="M378.638 436.829C378.804 429.378 378.983 421.902 379.149 414.438V414.413" stroke="#2E1A3B" stroke-miterlimit="10"/>
<path d="M353.142 450.989C353.232 451.014 353.334 451.04 353.423 451.066C367.034 454.478 380.811 457.2 394.703 459.232C394.703 459.079 394.728 458.938 394.741 458.785C395.636 448.088 395.303 436.944 394.064 426.285" stroke="#2E1A3B" stroke-miterlimit="10"/>
<path d="M356.133 463.334C372.082 468.293 388.44 471.45 405.042 473.277H405.067" stroke="#2E1A3B" stroke-miterlimit="10"/>
<path d="M364.261 492.933C369.271 494.901 374.625 495.783 379.942 496.537C393.987 498.518 408.147 499.63 422.333 499.885C422.333 499.732 422.359 499.591 422.359 499.438C423.509 483.68 423.151 467.462 421.132 451.794C421.132 451.717 421.132 451.628 421.106 451.551" stroke="#2E1A3B" stroke-miterlimit="10"/>
<path d="M382.408 541.433C404.952 548.142 428.736 549.318 452.251 549.51H452.34C455.037 532.104 456.686 514.097 457.657 496.498L457.695 495.77" stroke="#2E1A3B" stroke-miterlimit="10"/>
<path d="M460.98 564.872C466.756 548.973 469.887 532.104 470.169 515.196C470.169 515.055 470.169 514.927 470.169 514.787" stroke="#2E1A3B" stroke-miterlimit="10"/>
<path d="M403.687 582.482C404.364 582.7 405.029 582.93 405.706 583.147C407.674 583.799 409.694 584.374 411.738 584.885C420.748 587.096 430.397 587.978 439.458 588.962C450.922 590.202 462.462 590.866 473.99 590.917H474.322" stroke="#2E1A3B" stroke-miterlimit="10"/>
<path d="M419.419 606.304C421.988 606.636 424.544 606.943 427.113 607.25C445.823 609.474 464.481 611.02 483.409 610.611C483.524 610.598 483.639 610.598 483.754 610.598" stroke="#2E1A3B" stroke-miterlimit="10"/>
<path d="M407.086 577.537C408.633 579.99 410.179 582.444 411.738 584.885C416.62 592.528 421.63 600.068 427.113 607.25C428.915 609.614 430.768 611.94 432.698 614.215C434.41 616.247 436.199 618.241 438.359 619.787" stroke="#2E1A3B" stroke-miterlimit="10"/>
<path d="M383.814 519.797C385.731 521.496 387.661 523.183 389.578 524.883" stroke="#2E1A3B" stroke-miterlimit="10"/>
<path d="M385.437 514.391C387.469 516.282 389.514 518.174 391.546 520.078" stroke="#2E1A3B" stroke-miterlimit="10"/>
<path d="M260.449 487.553C269.676 486.85 278.877 485.866 288.028 484.6C288.054 484.6 288.079 484.588 288.105 484.588C285.293 475.859 282.699 466.862 279.683 458.197" stroke="#2E1A3B" stroke-miterlimit="10"/>
<path d="M292.923 460.945L293 461.366C294.712 470.734 296.437 480.102 298.163 489.47" stroke="#2E1A3B" stroke-miterlimit="10"/>
<path d="M283.606 513.931C283.811 513.905 284.002 513.867 284.207 513.841C295.568 512.116 306.802 509.688 317.869 506.569C317.972 506.544 318.087 506.505 318.189 506.48C317.115 494.454 314.738 482.313 311.313 470.734C311.275 470.568 311.224 470.415 311.173 470.249" stroke="#2E1A3B" stroke-miterlimit="10"/>
<path d="M296.067 523.119C297.472 522.915 298.853 522.646 300.246 522.353C308.514 520.64 316.706 518.48 324.732 515.873" stroke="#2E1A3B" stroke-miterlimit="10"/>
<path d="M309.703 540.884C321.243 539.209 332.694 536.986 344.017 534.2C344.183 534.161 344.337 534.123 344.503 534.085C342.816 518.582 339.902 503.016 336.362 487.834" stroke="#2E1A3B" stroke-miterlimit="10"/>
<path d="M347.148 490.236C347.148 490.236 347.161 490.326 347.174 490.377C350.19 506.39 352.401 522.557 353.794 538.788C353.819 538.954 353.832 539.12 353.845 539.286" stroke="#2E1A3B" stroke-miterlimit="10"/>
<path d="M322.751 572.08H322.802C341.551 569.984 360.133 566.418 378.331 561.395C378.331 561.191 378.357 560.974 378.357 560.769C378.868 549.369 377.769 537.356 375.226 526.25" stroke="#2E1A3B" stroke-miterlimit="10"/>
<path d="M335.199 555.504C337.717 556.13 340.337 556.36 342.918 556.194" stroke="#2E1A3B" stroke-miterlimit="10"/>
<path d="M337.269 550.647C339.237 551.12 341.193 551.593 343.161 552.053" stroke="#2E1A3B" stroke-miterlimit="10"/>
<path d="M340.656 585.23C357.487 584.834 374.255 581.958 390.255 576.706" stroke="#2E1A3B" stroke-miterlimit="10"/>
<path d="M372.9 606.854H372.964C386.817 605.474 400.569 602.982 414 599.339" stroke="#2E1A3B" stroke-miterlimit="10"/>
<path d="M397.246 645.386C397.374 645.373 397.514 645.36 397.642 645.335C412.889 643.494 427.982 640.248 442.64 635.673L442.755 635.635" stroke="#2E1A3B" stroke-miterlimit="10"/>
<path d="M422.448 657.079C433.886 655.533 445.26 653.424 456.494 650.766" stroke="#2E1A3B" stroke-miterlimit="10"/>
<path d="M405.834 621.998C408.479 622.292 411.125 622.522 413.77 622.675" stroke="#2E1A3B" stroke-miterlimit="10"/>
<path d="M407.649 618.011C409.694 617.666 411.802 617.819 413.783 618.42" stroke="#2E1A3B" stroke-miterlimit="10"/>
<path d="M284.168 568.808C284.168 568.808 284.207 568.795 284.232 568.795C293.255 566.456 302.112 563.389 310.649 559.645" stroke="#2E1A3B" stroke-miterlimit="10"/>
<path d="M293.459 584.744C304.399 581.984 315.339 579.236 326.279 576.489" stroke="#2E1A3B" stroke-miterlimit="10"/>
<path d="M295.261 537.267L298.252 543.593" stroke="#2E1A3B" stroke-miterlimit="10"/>
<path d="M299.811 537.599L301.997 542.468" stroke="#2E1A3B" stroke-miterlimit="10"/>
<path d="M315.186 617.065L315.416 617.027C334.126 614.087 352.58 609.525 370.51 603.416" stroke="#2E1A3B" stroke-miterlimit="10"/>
<path d="M336.643 638.817H336.681C352.273 637.13 367.635 633.257 382.165 627.353" stroke="#2E1A3B" stroke-miterlimit="10"/>
<path d="M348.644 622.688C352.056 622.637 355.481 622.586 358.893 622.535" stroke="#2E1A3B" stroke-miterlimit="10"/>
<path d="M355.149 618.318C357.117 618.228 359.085 618.139 361.066 618.062" stroke="#2E1A3B" stroke-miterlimit="10"/>
<path d="M379.865 668.275C379.98 668.223 380.108 668.172 380.223 668.121L395.137 661.565C400.748 659.099 406.614 656.44 410.307 651.558" stroke="#2E1A3B" stroke-miterlimit="10"/>
<path d="M395.674 676.16C398.511 676.556 401.348 676.939 404.186 677.31C418.908 679.24 433.682 680.799 448.481 682C464.226 683.291 479.997 684.16 495.793 684.607C500.687 684.773 505.582 684.876 510.477 684.927C514.387 684.991 518.285 685.016 522.196 685.016C524.33 685.016 526.452 685.003 528.586 684.991" stroke="#2E1A3B" stroke-miterlimit="10"/>
</g>
<g opacity="0.7">
<path d="M828.354 452.216C828.341 452.51 828.341 452.804 828.328 453.098C822.36 463.564 813.606 472.421 803.228 478.53C799.369 480.805 795.279 482.709 791.189 484.6C791.164 484.6 791.138 484.588 791.113 484.588C793.924 475.859 796.519 466.862 799.535 458.197C809.324 456.318 818.449 455.194 828.354 452.216Z" fill="#E28C8D" fill-opacity="0.7"/>
<path d="M806.934 531.337C807.152 531.375 807.382 531.414 807.599 531.452C805.273 544.257 800.902 556.91 794.985 568.795C785.962 566.456 777.106 563.389 768.569 559.645L768.403 559.402C781.234 550.149 794.052 540.896 806.883 531.644L806.934 531.337Z" fill="#E28C8D" fill-opacity="0.7"/>
<path d="M818.769 487.553C814.986 494.415 810.129 500.69 804.353 506.071C801.401 508.818 798.231 511.349 795.011 513.841C783.649 512.116 772.416 509.687 761.348 506.569C764.581 502.441 768.045 498.531 772.109 495.284C774.908 493.048 777.937 491.182 781.08 489.508C784.365 487.731 787.777 486.172 791.189 484.6C800.34 485.866 809.542 486.85 818.769 487.553Z" fill="#E28C8D" fill-opacity="0.7"/>
<path d="M799.535 458.184C796.519 466.862 793.924 475.859 791.113 484.588C791.138 484.588 791.164 484.6 791.189 484.6C787.777 486.172 784.365 487.731 781.08 489.508L781.055 489.47C782.78 480.102 784.506 470.734 786.218 461.366C790.129 460.152 794.142 459.232 798.065 458.465C798.551 458.363 799.049 458.274 799.535 458.184Z" fill="#E28C8D" fill-opacity="0.7"/>
<path d="M756.415 572.08C757.923 569.92 759.201 567.594 760.326 565.166L760.377 565.191C763.048 563.261 765.732 561.332 768.403 559.402L768.569 559.645C777.106 563.389 785.962 566.456 794.985 568.795C792.237 574.303 789.157 579.658 785.796 584.77L785.758 584.745C774.818 581.984 763.879 579.236 752.939 576.489L752.849 576.399C754.178 575.057 755.354 573.613 756.415 572.08Z" fill="#E28C8D" fill-opacity="0.7"/>
<path d="M775.789 530.928C774.959 531.963 774.179 533.037 773.438 534.161C772.019 536.321 770.805 538.609 769.719 540.973L769.515 540.884C757.974 539.209 746.523 536.986 735.2 534.2C736.018 533.752 736.836 533.279 737.641 532.768C744.427 528.474 749.514 522.276 754.383 515.796L754.485 515.873C762.511 518.48 770.703 520.64 778.972 522.353C780.365 522.646 781.745 522.915 783.151 523.119L783.253 523.234C780.556 525.611 778.026 528.129 775.789 530.928Z" fill="#E28C8D" fill-opacity="0.7"/>
<path d="M767.904 470.734C764.479 482.313 762.102 494.454 761.029 506.48C761.131 506.505 761.246 506.544 761.348 506.569C758.958 509.585 756.696 512.716 754.383 515.796C749.514 522.276 744.427 528.474 737.641 532.768C736.836 533.279 736.018 533.752 735.2 534.2C735.034 534.161 734.881 534.123 734.715 534.085C736.402 518.582 739.315 503.016 742.855 487.834L742.804 487.668C747.162 486.479 751.38 484.971 755.099 482.441C759.878 479.182 763.457 474.453 767.904 470.734Z" fill="#E28C8D" fill-opacity="0.7"/>
<path d="M706.253 606.854C706.982 605.653 707.761 604.477 708.592 603.339L708.707 603.416C726.638 609.525 745.092 614.087 763.802 617.027C757.77 625.053 750.459 632.465 742.536 638.817C726.944 637.13 711.583 633.257 697.052 627.353L696.375 627.021C699.697 620.324 702.458 613.154 706.253 606.854Z" fill="#E28C8D" fill-opacity="0.7"/>
<path d="M733.245 393.811L733.334 393.977C723.864 404.955 714.816 416.394 706.599 428.317C706.752 425.199 707.161 422.196 707.276 419.077C707.417 415.627 707.711 412.163 708.171 408.738C716.222 403.281 724.567 398.284 733.245 393.811Z" fill="#E28C8D" fill-opacity="0.7"/>
<path d="M731.75 490.454C731.852 490.428 731.941 490.403 732.044 490.377C729.028 506.39 726.817 522.557 725.424 538.788C722.74 540.002 720.094 541.292 717.615 542.89C710.637 547.414 705.73 554.162 700.86 560.769C700.349 549.369 701.448 537.356 703.992 526.25L703.736 526.148C706.714 518.697 709.449 511.157 711.966 503.528C715.8 496.384 724.273 492.511 731.75 490.454Z" fill="#E28C8D" fill-opacity="0.7"/>
<path d="M725.794 451.066C724.963 455.168 724.094 459.27 723.161 463.347H723.085C707.135 468.293 690.777 471.45 674.176 473.277C675.019 472.025 675.888 470.785 676.745 469.533C679.262 465.903 681.857 462.338 684.476 458.785C684.489 458.938 684.502 459.079 684.515 459.232C698.407 457.2 712.183 454.478 725.794 451.066Z" fill="#E28C8D" fill-opacity="0.7"/>
<path d="M723.085 463.334H723.161C720.874 473.341 718.254 483.246 715.289 493.035L714.957 492.933C709.947 494.901 704.592 495.783 699.275 496.537C685.23 498.518 671.07 499.63 656.884 499.885C656.871 499.732 656.859 499.591 656.859 499.438C662.495 490.633 668.258 481.904 674.176 473.277C690.777 471.45 707.135 468.293 723.085 463.334Z" fill="#E28C8D" fill-opacity="0.7"/>
<path d="M708.17 408.738C707.71 412.163 707.416 415.627 707.276 419.077C707.161 422.196 706.752 425.199 706.598 428.317C705.972 429.186 705.372 430.081 704.771 430.963C703.416 432.956 702.049 434.925 700.656 436.88L700.579 436.829C700.413 429.378 700.234 421.902 700.068 414.438C702.739 412.483 705.435 410.579 708.17 408.738Z" fill="#E28C8D" fill-opacity="0.7"/>
<path d="M700.579 436.829L700.656 436.88C695.403 444.267 689.87 451.487 684.476 458.785C683.582 448.088 683.914 436.944 685.154 426.285L685.103 426.221C689.959 422.132 694.956 418.196 700.068 414.438C700.234 421.902 700.413 429.378 700.579 436.829Z" fill="#E28C8D" fill-opacity="0.7"/>
<path d="M684.08 661.565C689.052 663.75 694.023 665.936 698.995 668.121C691.339 671.968 683.301 675.048 675.032 677.31C660.309 679.24 645.536 680.799 630.737 682C639.861 675.84 646.545 664.581 655.99 658.038C656.309 657.808 656.642 657.591 656.974 657.399C660.68 654.983 664.782 653.245 668.898 651.52V651.558C672.604 656.44 678.47 659.099 684.08 661.565Z" fill="#E28C8D" fill-opacity="0.7"/>
<path d="M667.479 584.885C658.469 587.096 648.82 587.978 639.759 588.962C628.295 590.202 616.755 590.866 605.228 590.917C609.522 582.214 613.956 573.588 618.519 565.025C621.292 559.824 624.104 554.66 626.966 549.51C650.482 549.318 674.265 548.143 696.809 541.433L697.18 541.599C694.432 547.721 691.518 553.766 688.438 559.721C684.425 567.466 680.144 575.083 675.62 582.534L675.53 582.482C674.853 582.7 674.188 582.93 673.511 583.147C671.543 583.799 669.524 584.374 667.479 584.885Z" fill="#E28C8D" fill-opacity="0.7"/>
<path d="M681.575 645.335C677.652 647.878 673.268 649.68 668.897 651.52C664.782 653.245 660.68 654.983 656.974 657.399L656.769 657.079C645.331 655.533 633.957 653.424 622.723 650.766L622.583 650.625C627.401 645.782 632.053 640.798 636.577 635.673C651.236 640.248 666.329 643.494 681.575 645.335Z" fill="#E28C8D" fill-opacity="0.7"/>
<path d="M652.105 607.25C654.673 606.943 657.229 606.636 659.798 606.304L659.875 606.368C652.616 616.528 644.833 626.318 636.577 635.673C632.053 640.797 627.401 645.782 622.583 650.625C610.416 662.92 597.342 674.319 583.425 684.607C578.53 684.773 573.635 684.876 568.741 684.927C575.041 659.303 584.728 634.625 595.809 610.611C614.736 611.02 633.395 609.474 652.105 607.25Z" fill="#E28C8D" fill-opacity="0.7"/>
<path d="M658.086 451.794C656.066 467.462 655.708 483.68 656.859 499.438C654.673 502.85 652.513 506.288 650.379 509.726C642.251 522.8 634.455 536.066 626.966 549.51H626.877C624.18 532.104 622.532 514.097 621.56 496.499C624.41 492.486 627.311 488.537 630.276 484.652C638.954 473.252 648.219 462.223 658.086 451.794Z" fill="#E28C8D" fill-opacity="0.7"/>
<path d="M605.228 590.917L603.809 593.793C601.074 599.365 598.403 604.963 595.809 610.611C584.728 634.625 575.041 659.303 568.741 684.927C564.83 684.991 560.932 685.016 557.021 685.016C555.82 624.95 576.805 566.341 609.049 515.196C609.33 532.104 612.461 548.973 618.238 564.872L618.519 565.025C613.956 573.588 609.522 582.214 605.228 590.917Z" fill="#E28C8D" fill-opacity="0.7"/>
<path d="M756.415 572.08C755.354 573.613 754.178 575.057 752.849 576.399C752.415 576.847 751.967 577.281 751.495 577.703C747.737 581.077 743.264 583.326 738.574 585.256V585.23C721.73 584.834 704.963 581.959 688.962 576.706L688.937 576.68C692.962 572.118 696.285 566.955 699.902 562.073L700.86 560.769C700.86 560.974 700.873 561.191 700.886 561.396C719.085 566.418 737.667 569.984 756.415 572.08Z" fill="#E28C8D" fill-opacity="0.7"/>
<path d="M738.561 585.23V585.256C730.42 588.604 721.628 590.994 714.854 596.553C712.439 598.547 710.381 600.834 708.592 603.339C707.761 604.477 706.982 605.652 706.253 606.854C692.4 605.474 678.649 602.981 665.217 599.339L664.923 599.135C666.201 597.282 667.453 595.403 668.667 593.524L668.782 593.601C673.588 587.415 680.783 584.885 686.253 579.517C687.186 578.61 688.08 577.651 688.936 576.68L688.962 576.706C704.963 581.958 721.73 584.834 738.561 585.23Z" fill="#E28C8D" fill-opacity="0.7"/>
<path d="M681.575 645.334C682.598 644.683 683.582 643.967 684.528 643.2C689.793 638.919 693.32 633.181 696.375 627.021L697.052 627.353C711.583 633.257 726.944 637.13 742.536 638.817C737.667 642.715 732.555 646.229 727.392 649.207C725.027 647.954 721.653 647.188 719.289 645.935C720.03 648.44 719.609 652.133 720.35 654.651C713.704 659.827 706.535 664.338 698.994 668.121C694.023 665.936 689.052 663.75 684.08 661.565C678.47 659.099 672.604 656.44 668.91 651.558V651.52C673.268 649.68 677.652 647.878 681.575 645.334Z" fill="#DE5457" fill-opacity="0.7"/>
<path d="M785.758 584.745L785.796 584.77C783.227 588.706 780.48 592.502 777.591 596.131C773.873 595.965 768.454 596.528 764.85 595.659C767.329 598.381 768.824 602.815 771.304 605.525C769.131 609.461 766.601 613.308 763.802 617.027C745.092 614.087 726.638 609.525 708.707 603.416L708.592 603.339C710.381 600.835 712.439 598.547 714.854 596.553C721.628 590.994 730.421 588.604 738.574 585.256C743.264 583.326 747.737 581.077 751.495 577.703C751.968 577.281 752.415 576.846 752.849 576.399L752.939 576.489C763.879 579.236 774.818 581.984 785.758 584.745Z" fill="#DE5457" fill-opacity="0.7"/>
<path d="M806.934 531.337L806.883 531.644C794.052 540.896 781.234 550.149 768.403 559.402C765.732 561.331 763.048 563.261 760.377 565.191L760.326 565.165C763.93 557.497 766.115 548.807 769.719 540.973C770.805 538.609 772.019 536.321 773.438 534.161C774.179 533.037 774.959 531.963 775.789 530.928C786.295 529.292 796.468 529.496 806.934 531.337Z" fill="#DE5457" fill-opacity="0.7"/>
<path d="M828.328 453.098C827.919 465.175 824.584 477.047 818.769 487.553C809.542 486.85 800.34 485.866 791.189 484.6C795.279 482.709 799.369 480.805 803.228 478.53C813.606 472.421 822.36 463.564 828.328 453.098Z" fill="#F39C9E" fill-opacity="0.7"/>
<path d="M786.218 461.366C784.505 470.734 782.78 480.102 781.055 489.47L781.08 489.508C777.937 491.182 774.908 493.048 772.109 495.285C768.045 498.531 764.581 502.441 761.348 506.569C761.246 506.544 761.131 506.505 761.029 506.48C762.102 494.454 764.479 482.313 767.904 470.734C767.93 470.709 767.968 470.683 767.994 470.658C773.272 466.261 779.611 463.398 786.218 461.366Z" fill="#F39C9E" fill-opacity="0.7"/>
<path d="M795.011 513.841C791.023 516.921 786.985 519.937 783.253 523.234L783.151 523.119C781.745 522.915 780.365 522.646 778.972 522.352C770.703 520.64 762.511 518.48 754.485 515.873L754.383 515.796C756.696 512.716 758.958 509.585 761.348 506.569C772.416 509.687 783.649 512.116 795.011 513.841Z" fill="#F39C9E" fill-opacity="0.7"/>
<path d="M742.804 487.667L742.855 487.834C739.315 503.016 736.402 518.582 734.715 534.084C734.881 534.123 735.034 534.161 735.2 534.199C732.044 535.912 728.708 537.292 725.424 538.787C726.817 522.557 729.028 506.39 732.044 490.377C735.584 489.406 739.239 488.639 742.804 487.667Z" fill="#F39C9E" fill-opacity="0.7"/>
<path d="M725.424 538.788C728.708 537.292 732.044 535.912 735.2 534.2C746.523 536.986 757.974 539.209 769.515 540.884L769.719 540.973C766.115 548.807 763.93 557.498 760.326 565.166C759.201 567.594 757.923 569.92 756.415 572.08C737.667 569.984 719.085 566.418 700.886 561.396C700.873 561.191 700.86 560.974 700.86 560.769C705.73 554.162 710.637 547.414 717.615 542.89C720.094 541.293 722.74 540.002 725.424 538.788Z" fill="#F39C9E" fill-opacity="0.7"/>
<path d="M703.736 526.148L703.991 526.25C701.448 537.356 700.349 549.369 700.86 560.769L699.902 562.073C696.285 566.955 692.962 572.118 688.937 576.68C688.08 577.652 687.186 578.61 686.253 579.517C680.783 584.885 673.588 587.415 668.782 593.601L668.667 593.524C671.057 589.908 673.371 586.24 675.62 582.534C680.144 575.083 684.425 567.466 688.438 559.721C691.518 553.766 694.432 547.721 697.18 541.599C699.493 536.5 701.665 531.35 703.736 526.148Z" fill="#F39C9E" fill-opacity="0.7"/>
<path d="M706.253 606.854C702.458 613.154 699.697 620.324 696.375 627.021C693.32 633.181 689.793 638.919 684.527 643.2C683.582 643.967 682.598 644.683 681.575 645.334C666.329 643.494 651.236 640.248 636.577 635.673C644.833 626.318 652.616 616.528 659.875 606.368C661.6 603.978 663.287 601.563 664.923 599.135L665.217 599.339C678.649 602.982 692.4 605.474 706.253 606.854Z" fill="#F39C9E" fill-opacity="0.7"/>
<path d="M656.769 657.079L656.974 657.399C656.641 657.591 656.309 657.808 655.99 658.038C646.545 664.581 639.861 675.84 630.736 682C614.991 683.291 599.221 684.16 583.425 684.608C597.342 674.32 610.416 662.92 622.583 650.625L622.723 650.766C633.957 653.424 645.331 655.533 656.769 657.079Z" fill="#F39C9E" fill-opacity="0.7"/>
<path d="M675.53 582.482L675.62 582.534C673.37 586.24 671.057 589.908 668.667 593.524C667.453 595.403 666.201 597.282 664.923 599.135C663.287 601.563 661.6 603.978 659.875 606.368L659.798 606.304C657.229 606.637 654.673 606.943 652.104 607.25C657.587 600.068 662.597 592.528 667.479 584.885C669.524 584.374 671.543 583.799 673.511 583.147C674.188 582.93 674.853 582.7 675.53 582.482Z" fill="#DE5457" fill-opacity="0.7"/>
<path d="M733.245 393.811C733.449 393.696 733.667 393.594 733.884 393.479C733.091 402.911 732.056 412.33 730.74 421.736C726.727 423.282 722.599 424.547 718.407 425.518C717.193 425.8 706.598 428.062 706.586 428.458C706.586 428.407 706.586 428.368 706.598 428.317C714.816 416.394 723.864 404.955 733.334 393.977L733.245 393.811Z" fill="#DE5457" fill-opacity="0.7"/>
<path d="M730.74 421.736C729.398 431.551 727.749 441.34 725.794 451.066C712.183 454.478 698.407 457.2 684.515 459.232C684.502 459.079 684.489 458.938 684.476 458.785C689.869 451.487 695.403 444.267 700.656 436.88C702.049 434.925 703.416 432.956 704.771 430.963C705.372 430.081 705.972 429.186 706.598 428.317C706.586 428.368 706.586 428.407 706.586 428.458C706.598 428.062 717.193 425.8 718.407 425.518C722.599 424.547 726.727 423.282 730.74 421.736Z" fill="#DE5457" fill-opacity="0.7"/>
<path d="M711.966 503.527C709.448 511.157 706.714 518.697 703.736 526.148C701.665 531.35 699.493 536.5 697.18 541.599L696.809 541.433C674.265 548.142 650.482 549.318 626.966 549.51C634.455 536.065 642.251 522.8 650.379 509.726C652.514 506.288 654.673 502.85 656.859 499.438C656.859 499.591 656.872 499.732 656.884 499.885C671.07 499.63 685.23 498.518 699.276 496.537C704.592 495.783 709.947 494.901 714.957 492.933L715.289 493.035C714.241 496.55 713.129 500.051 711.966 503.527Z" fill="#DE5457" fill-opacity="0.7"/>
<path d="M674.176 473.277C668.258 481.904 662.495 490.633 656.859 499.438C655.708 483.68 656.066 467.462 658.086 451.794C666.623 442.772 675.62 434.183 685.102 426.221L685.154 426.285C683.914 436.944 683.582 448.088 684.476 458.785C681.856 462.338 679.262 465.903 676.744 469.533C675.888 470.785 675.019 472.025 674.176 473.277Z" fill="#DE5457" fill-opacity="0.7"/>
<path d="M667.479 584.885C662.597 592.527 657.587 600.068 652.104 607.25C633.395 609.474 614.736 611.02 595.809 610.611C598.403 604.962 601.074 599.365 603.809 593.793L605.227 590.917C616.755 590.866 628.295 590.201 639.759 588.962C648.82 587.978 658.469 587.096 667.479 584.885Z" fill="#DE5457" fill-opacity="0.7"/>
<path d="M626.966 549.51C624.104 554.66 621.292 559.823 618.519 565.025L618.238 564.872C612.461 548.973 609.33 532.104 609.049 515.196C613.049 508.844 617.228 502.607 621.56 496.499C622.532 514.097 624.18 532.104 626.877 549.51H626.966Z" fill="#DE5457" fill-opacity="0.7"/>
<path d="M557.06 686.652C557.047 686.115 557.034 685.566 557.021 685.016C555.82 624.95 576.805 566.341 609.049 515.196C613.049 508.844 617.228 502.607 621.56 496.499C624.41 492.486 627.311 488.537 630.276 484.652C638.954 473.252 648.22 462.223 658.086 451.794C666.623 442.771 675.62 434.183 685.103 426.221C689.959 422.132 694.956 418.196 700.068 414.438C702.739 412.483 705.436 410.579 708.171 408.738C716.222 403.281 724.567 398.284 733.245 393.811C733.449 393.696 733.667 393.594 733.884 393.479C733.091 402.911 732.056 412.33 730.74 421.736C729.398 431.551 727.749 441.34 725.794 451.066C724.963 455.168 724.094 459.27 723.161 463.347C720.874 473.341 718.254 483.246 715.289 493.035C714.241 496.55 713.129 500.051 711.966 503.528C709.449 511.157 706.714 518.697 703.736 526.148C701.665 531.35 699.493 536.5 697.18 541.599C694.432 547.721 691.518 553.766 688.438 559.721C684.425 567.466 680.144 575.083 675.62 582.534C673.371 586.24 671.057 589.908 668.668 593.524C667.453 595.403 666.201 597.282 664.923 599.135C663.287 601.563 661.6 603.978 659.875 606.368C652.616 616.528 644.833 626.318 636.577 635.673C632.053 640.798 627.401 645.782 622.583 650.625C610.416 662.92 597.342 674.32 583.425 684.607C581.188 686.282 578.926 687.917 576.652 689.515" stroke="#2E1A3B" stroke-miterlimit="10"/>
<path d="M733.334 393.977C723.864 404.955 714.816 416.393 706.598 428.317C705.972 429.186 705.372 430.081 704.771 430.963C703.416 432.956 702.049 434.924 700.656 436.88C695.403 444.267 689.869 451.487 684.476 458.785C681.856 462.338 679.262 465.903 676.744 469.533C675.888 470.785 675.019 472.025 674.176 473.277C668.258 481.904 662.495 490.632 656.859 499.438C654.673 502.85 652.513 506.288 650.379 509.726C642.251 522.8 634.455 536.065 626.966 549.51C624.103 554.66 621.292 559.823 618.519 565.025C613.956 573.587 609.521 582.214 605.227 590.917L603.809 593.793C601.074 599.365 598.403 604.962 595.809 610.611C584.728 634.625 575.041 659.303 568.741 684.927C568.153 687.304 567.603 689.668 567.079 692.058" stroke="#2E1A3B" stroke-miterlimit="10"/>
<path d="M711.468 504.524C711.621 504.179 711.787 503.847 711.966 503.528C715.8 496.384 724.273 492.511 731.75 490.454C731.852 490.428 731.941 490.402 732.043 490.377C735.584 489.406 739.239 488.639 742.804 487.668C747.162 486.479 751.38 484.971 755.099 482.441C759.878 479.182 763.457 474.453 767.904 470.734C767.93 470.708 767.968 470.683 767.994 470.657C773.272 466.261 779.611 463.398 786.218 461.366C790.129 460.152 794.141 459.232 798.065 458.465C798.551 458.363 799.049 458.274 799.535 458.184C809.324 456.318 818.449 455.194 828.354 452.216C828.341 452.51 828.341 452.804 828.328 453.098C827.919 465.175 824.583 477.047 818.769 487.553C814.986 494.415 810.129 500.69 804.353 506.071C801.401 508.818 798.231 511.349 795.011 513.841C791.023 516.921 786.985 519.937 783.253 523.234C780.556 525.611 778.026 528.129 775.789 530.928C774.959 531.963 774.179 533.037 773.438 534.161C772.019 536.321 770.805 538.609 769.719 540.973C766.115 548.807 763.93 557.497 760.326 565.165C759.201 567.594 757.923 569.92 756.415 572.079C755.354 573.613 754.178 575.057 752.849 576.399C752.415 576.846 751.967 577.281 751.495 577.703C747.737 581.077 743.264 583.326 738.574 585.256C730.42 588.604 721.628 590.994 714.854 596.553C712.439 598.547 710.381 600.834 708.592 603.339C707.761 604.477 706.982 605.653 706.253 606.854C702.458 613.154 699.697 620.324 696.374 627.021C693.32 633.181 689.793 638.919 684.527 643.2C683.582 643.967 682.598 644.683 681.575 645.334C677.652 647.878 673.268 649.68 668.897 651.52C664.782 653.245 660.68 654.983 656.974 657.399C656.641 657.59 656.309 657.808 655.99 658.038C646.545 664.581 639.861 675.84 630.736 682C627.644 684.083 624.282 685.591 620.448 686.128" stroke="#2E1A3B" stroke-miterlimit="10"/>
<path d="M655.555 681.067C662.137 680.326 668.655 679.074 675.032 677.31C683.301 675.048 691.339 671.968 698.994 668.121C706.535 664.338 713.704 659.827 720.35 654.651C719.609 652.133 720.03 648.44 719.289 645.935C721.653 647.187 725.027 647.954 727.392 649.207C732.555 646.229 737.667 642.714 742.536 638.817C750.459 632.465 757.77 625.053 763.802 617.027C766.601 613.308 769.131 609.461 771.304 605.525C768.824 602.815 767.329 598.381 764.85 595.659C768.454 596.528 773.872 595.965 777.591 596.131C780.48 592.502 783.227 588.706 785.796 584.77C789.157 579.658 792.237 574.303 794.985 568.795C800.902 556.91 805.273 544.257 807.599 531.452C807.382 531.413 807.152 531.375 806.934 531.337C796.467 529.496 786.295 529.292 775.789 530.928L775.291 531.005" stroke="#2E1A3B" stroke-miterlimit="10"/>
<path d="M828.341 453.072C828.341 453.072 828.328 453.085 828.328 453.098C822.36 463.564 813.605 472.421 803.228 478.53C799.368 480.805 795.279 482.709 791.189 484.6C787.777 486.172 784.365 487.731 781.08 489.508C777.936 491.182 774.908 493.048 772.109 495.284C768.045 498.53 764.581 502.441 761.348 506.569C758.958 509.585 756.696 512.716 754.383 515.796C749.514 522.276 744.427 528.474 737.641 532.768C736.836 533.279 736.018 533.752 735.2 534.199C732.043 535.912 728.708 537.292 725.423 538.787C722.74 540.002 720.094 541.292 717.615 542.89C710.637 547.414 705.729 554.162 700.86 560.769L699.902 562.073C696.285 566.955 692.962 572.118 688.937 576.68C688.08 577.651 687.186 578.61 686.253 579.517C680.783 584.885 673.588 587.415 668.782 593.601" stroke="#2E1A3B" stroke-miterlimit="10"/>
<path d="M806.883 531.644C794.052 540.896 781.234 550.149 768.403 559.402C765.732 561.331 763.048 563.261 760.377 565.191" stroke="#2E1A3B" stroke-miterlimit="10"/>
<path d="M730.893 421.684C730.893 421.684 730.791 421.723 730.74 421.736C726.727 423.282 722.599 424.547 718.407 425.518C717.193 425.8 706.598 428.062 706.586 428.458C706.586 428.407 706.586 428.368 706.598 428.317C706.752 425.199 707.161 422.196 707.276 419.077C707.416 415.627 707.71 412.163 708.17 408.738C708.183 408.598 708.209 408.47 708.222 408.329" stroke="#2E1A3B" stroke-miterlimit="10"/>
<path d="M700.579 436.829C700.413 429.378 700.234 421.902 700.068 414.438V414.413" stroke="#2E1A3B" stroke-miterlimit="10"/>
<path d="M726.075 450.989C725.986 451.014 725.884 451.04 725.794 451.066C712.183 454.478 698.407 457.2 684.515 459.232C684.502 459.079 684.489 458.938 684.476 458.785C683.582 448.088 683.914 436.944 685.154 426.285" stroke="#2E1A3B" stroke-miterlimit="10"/>
<path d="M723.085 463.334C707.135 468.293 690.777 471.45 674.176 473.277H674.15" stroke="#2E1A3B" stroke-miterlimit="10"/>
<path d="M714.957 492.933C709.947 494.901 704.592 495.783 699.275 496.537C685.23 498.518 671.07 499.63 656.884 499.885C656.871 499.732 656.859 499.591 656.859 499.438C655.708 483.68 656.066 467.462 658.086 451.794C658.086 451.717 658.086 451.628 658.111 451.551" stroke="#2E1A3B" stroke-miterlimit="10"/>
<path d="M696.809 541.433C674.265 548.142 650.481 549.318 626.966 549.51H626.877C624.18 532.104 622.532 514.097 621.56 496.498L621.522 495.77" stroke="#2E1A3B" stroke-miterlimit="10"/>
<path d="M618.237 564.872C612.461 548.973 609.33 532.104 609.049 515.196C609.036 515.055 609.036 514.927 609.036 514.787" stroke="#2E1A3B" stroke-miterlimit="10"/>
<path d="M675.53 582.482C674.853 582.7 674.188 582.93 673.511 583.147C671.543 583.799 669.524 584.374 667.479 584.885C658.469 587.096 648.82 587.978 639.759 588.962C628.295 590.202 616.755 590.866 605.228 590.917H604.895" stroke="#2E1A3B" stroke-miterlimit="10"/>
<path d="M659.798 606.304C657.229 606.636 654.673 606.943 652.105 607.25C633.395 609.474 614.736 611.02 595.809 610.611C595.694 610.598 595.579 610.598 595.464 610.598" stroke="#2E1A3B" stroke-miterlimit="10"/>
<path d="M672.131 577.537C670.584 579.99 669.038 582.444 667.479 584.885C662.597 592.528 657.587 600.068 652.105 607.25C650.303 609.614 648.449 611.94 646.52 614.215C644.807 616.247 643.018 618.241 640.858 619.787" stroke="#2E1A3B" stroke-miterlimit="10"/>
<path d="M695.403 519.797C693.486 521.496 691.556 523.183 689.639 524.883" stroke="#2E1A3B" stroke-miterlimit="10"/>
<path d="M693.78 514.391C691.748 516.282 689.703 518.174 687.671 520.078" stroke="#2E1A3B" stroke-miterlimit="10"/>
<path d="M818.768 487.553C809.541 486.85 800.34 485.866 791.189 484.6C791.164 484.6 791.138 484.588 791.113 484.588C793.924 475.859 796.518 466.862 799.535 458.197" stroke="#2E1A3B" stroke-miterlimit="10"/>
<path d="M786.294 460.945L786.218 461.366C784.505 470.734 782.78 480.102 781.055 489.47" stroke="#2E1A3B" stroke-miterlimit="10"/>
<path d="M795.611 513.931C795.407 513.905 795.215 513.867 795.011 513.841C783.649 512.116 772.416 509.688 761.348 506.569C761.246 506.544 761.131 506.505 761.029 506.48C762.102 494.454 764.479 482.313 767.904 470.734C767.943 470.568 767.994 470.415 768.045 470.249" stroke="#2E1A3B" stroke-miterlimit="10"/>
<path d="M783.151 523.119C781.745 522.915 780.365 522.646 778.972 522.353C770.703 520.64 762.511 518.48 754.485 515.873" stroke="#2E1A3B" stroke-miterlimit="10"/>
<path d="M769.514 540.884C757.974 539.209 746.523 536.986 735.2 534.2C735.034 534.161 734.88 534.123 734.714 534.085C736.401 518.582 739.315 503.016 742.855 487.834" stroke="#2E1A3B" stroke-miterlimit="10"/>
<path d="M732.069 490.236C732.069 490.236 732.056 490.326 732.043 490.377C729.027 506.39 726.816 522.557 725.423 538.788C725.398 538.954 725.385 539.12 725.372 539.286" stroke="#2E1A3B" stroke-miterlimit="10"/>
<path d="M756.466 572.08H756.415C737.667 569.984 719.084 566.418 700.886 561.395C700.873 561.191 700.86 560.974 700.86 560.769C700.349 549.369 701.448 537.356 703.991 526.25" stroke="#2E1A3B" stroke-miterlimit="10"/>
<path d="M744.018 555.504C741.501 556.13 738.881 556.36 736.299 556.194" stroke="#2E1A3B" stroke-miterlimit="10"/>
<path d="M741.948 550.647C739.98 551.12 738.025 551.593 736.056 552.053" stroke="#2E1A3B" stroke-miterlimit="10"/>
<path d="M738.561 585.23C721.73 584.834 704.963 581.958 688.962 576.706" stroke="#2E1A3B" stroke-miterlimit="10"/>
<path d="M706.317 606.854H706.253C692.4 605.474 678.649 602.982 665.217 599.339" stroke="#2E1A3B" stroke-miterlimit="10"/>
<path d="M681.972 645.386C681.844 645.373 681.703 645.36 681.575 645.335C666.329 643.494 651.236 640.248 636.577 635.673L636.462 635.635" stroke="#2E1A3B" stroke-miterlimit="10"/>
<path d="M656.769 657.079C645.331 655.533 633.957 653.424 622.723 650.766" stroke="#2E1A3B" stroke-miterlimit="10"/>
<path d="M673.383 621.998C670.738 622.292 668.092 622.522 665.447 622.675" stroke="#2E1A3B" stroke-miterlimit="10"/>
<path d="M671.568 618.011C669.524 617.666 667.415 617.819 665.434 618.42" stroke="#2E1A3B" stroke-miterlimit="10"/>
<path d="M795.049 568.808C795.049 568.808 795.01 568.795 794.985 568.795C785.962 566.456 777.106 563.389 768.569 559.645" stroke="#2E1A3B" stroke-miterlimit="10"/>
<path d="M785.758 584.744C774.818 581.984 763.878 579.236 752.939 576.489" stroke="#2E1A3B" stroke-miterlimit="10"/>
<path d="M783.956 537.267L780.965 543.593" stroke="#2E1A3B" stroke-miterlimit="10"/>
<path d="M779.406 537.599L777.221 542.468" stroke="#2E1A3B" stroke-miterlimit="10"/>
<path d="M764.032 617.065L763.802 617.027C745.092 614.087 726.638 609.525 708.707 603.416" stroke="#2E1A3B" stroke-miterlimit="10"/>
<path d="M742.574 638.817H742.536C726.944 637.13 711.583 633.257 697.052 627.353" stroke="#2E1A3B" stroke-miterlimit="10"/>
<path d="M730.574 622.688C727.162 622.637 723.736 622.586 720.324 622.535" stroke="#2E1A3B" stroke-miterlimit="10"/>
<path d="M724.069 618.318C722.101 618.228 720.133 618.139 718.152 618.062" stroke="#2E1A3B" stroke-miterlimit="10"/>
<path d="M699.352 668.275C699.237 668.223 699.109 668.172 698.994 668.121C694.023 665.936 689.051 663.75 684.08 661.565C678.47 659.099 672.604 656.44 668.91 651.558" stroke="#2E1A3B" stroke-miterlimit="10"/>
<path d="M683.543 676.16C680.706 676.556 677.869 676.939 675.032 677.31C660.309 679.24 645.536 680.799 630.736 682C614.991 683.291 599.221 684.16 583.425 684.607C578.53 684.773 573.635 684.876 568.741 684.927C564.83 684.991 560.932 685.016 557.021 685.016C554.887 685.016 552.766 685.003 550.631 684.991" stroke="#2E1A3B" stroke-miterlimit="10"/>
</g>
<path d="M588.499 512.295C588.499 512.295 602.595 593.742 605.726 612.541C607.847 625.283 613.56 711.228 613.56 711.228" stroke="#DD9EA0" stroke-width="25" stroke-miterlimit="10"/>
<path d="M548.344 469.75C532.65 469.801 520.918 474.53 505.889 466.683C493.479 460.203 483.536 448.612 480.226 434.886C478.705 428.56 479.587 421.966 478.297 415.729C477.159 410.195 474.079 405.403 471.932 400.035C467.395 388.661 464.622 376.392 465.772 364.085C467.574 344.915 482.041 322.831 503.115 322.857C516.611 314.051 532.701 307.917 548.817 307.879C580.613 307.802 613.534 334.231 607.886 368.596C606.314 378.181 601.905 387.166 600.614 396.789C598.837 410.08 603.119 423.857 599.847 436.867C594.058 459.948 569.699 469.686 548.331 469.75H548.344Z" fill="#641026"/>
<path d="M528.279 738.692C539.628 683.559 545.468 655.073 546.286 650.868L538.299 649.322L539.398 645.373L500.393 625.104L486.45 631.928C486.45 631.928 472.443 668.453 462.769 731.663" fill="#2E1A3B"/>
<path d="M613.419 721.414C609.777 661.118 607.272 646.638 606.16 640.465L591.821 631.941L547.181 642.996L541.724 643.584C541.851 644.708 544.126 667.367 550.069 727.765" fill="#2E1A3B"/>
<path d="M479.051 513.164C478.386 530.493 491.882 545.075 509.211 545.753C526.541 546.417 541.123 532.921 541.8 515.592C542.465 498.262 528.969 483.68 511.64 483.003C494.31 482.338 479.728 495.834 479.051 513.164Z" fill="#DBA0AC"/>
<path d="M547.078 513.164C546.414 530.493 559.91 545.075 577.239 545.753C594.569 546.417 609.151 532.921 609.828 515.592C610.493 498.262 596.997 483.68 579.667 483.003C562.338 482.338 547.756 495.834 547.078 513.164Z" fill="#DBA0AC"/>
<path d="M601.023 367.791C608.333 402.374 584.895 436.611 548.663 444.267C512.432 451.922 477.146 430.094 469.836 395.511C462.526 360.928 485.965 326.691 522.196 319.035C558.427 311.38 593.713 333.208 601.023 367.791Z" fill="#641026"/>
<path d="M520.266 519.285H564.038V402.527H520.266V519.285Z" fill="#DBA0AC"/>
<path d="M555.245 451.73C528.739 457.328 502.706 440.382 497.096 413.876L491.652 388.099C486.054 361.58 503 335.547 529.519 329.95C556.025 324.352 582.057 341.298 587.668 367.804L593.112 393.581C598.71 420.1 581.763 446.133 555.245 451.73Z" fill="#DBA0AC"/>
<path d="M478.003 424.036C482.68 432.547 493.364 435.653 501.876 430.975C510.387 426.298 513.493 415.614 508.815 407.102C504.138 398.591 493.454 395.485 484.942 400.163C476.431 404.84 473.325 415.524 478.003 424.036Z" fill="#DBA0AC"/>
<path d="M611.528 397.338C610.697 407.013 602.186 414.17 592.511 413.339C582.837 412.508 575.68 403.984 576.511 394.31C577.341 384.635 585.866 377.478 595.527 378.309C605.202 379.14 612.359 387.664 611.528 397.338Z" fill="#DBA0AC"/>
<path d="M570.006 400.942C570.594 405.607 574.862 408.904 579.527 408.317C584.192 407.729 587.489 403.46 586.901 398.795C586.313 394.131 582.045 390.833 577.38 391.421C572.715 392.009 569.418 396.278 570.006 400.942Z" fill="#D67D9B"/>
<path d="M514.515 407.972C515.103 412.636 519.372 415.933 524.036 415.346C528.701 414.758 531.998 410.489 531.41 405.824C530.822 401.16 526.554 397.863 521.889 398.45C517.224 399.038 513.927 403.307 514.515 407.972Z" fill="#D67D9B"/>
<path d="M546.133 384.367C546.797 389.198 547.462 394.028 548.139 398.859C549.302 399.217 550.452 399.268 551.552 399.818C552.114 400.099 552.663 400.406 553.111 400.853C554.593 402.323 554.427 404.917 553.2 406.617C551.973 408.316 549.967 409.262 547.96 409.876" stroke="#C9778B" stroke-miterlimit="10"/>
<path d="M550.644 373.018C554.836 374.603 559.373 372.66 563.386 370.539C567.386 368.405 571.603 365.989 575.987 366.603" stroke="#641026" stroke-width="3" stroke-miterlimit="10" stroke-linecap="round"/>
<path d="M536.177 371.076C527.308 368.111 516.879 370.475 510.144 376.967" stroke="#641026" stroke-width="3" stroke-miterlimit="10" stroke-linecap="round"/>
<path d="M535.973 390.399C535.18 392.405 533.008 393.709 530.848 393.671C528.688 393.645 526.643 392.393 525.416 390.616C524.177 391.345 522.745 391.945 521.506 392.661" stroke="#2E1A3B" stroke-miterlimit="10"/>
<path d="M559.82 387.472C560.817 389.389 563.117 390.45 565.252 390.195C567.386 389.939 569.29 388.482 570.325 386.591C571.629 387.178 573.111 387.626 574.428 388.214" stroke="#2E1A3B" stroke-miterlimit="10"/>
<path d="M526.209 409.058C532.88 410.655 538.874 414.898 542.593 420.662" stroke="#C9778B" stroke-miterlimit="10"/>
<path d="M591.911 378.373L585.751 380.801L577.75 354.704C577.75 354.704 566.568 358.717 539.781 344.787C539.781 344.787 520.534 369.951 497.607 371.702L501.454 398.68L491.064 398.374C491.064 398.374 471.561 337.477 528.701 326.997C590.467 315.662 591.898 378.399 591.898 378.399L591.911 378.373Z" fill="#641026"/>
<path d="M484.38 411.729C486.821 410.004 490.169 409.927 492.994 410.962C495.805 411.997 498.17 413.991 500.24 416.151C500.981 416.93 501.71 417.761 502.067 418.771" stroke="#C9778B" stroke-miterlimit="10"/>
<path d="M590.262 402.387C590.939 395.511 595.668 389.185 602.071 386.591" stroke="#C9778B" stroke-miterlimit="10"/>
<path d="M520.215 478.99L492.559 489.751L492.201 602.726C492.201 602.726 533.685 628.644 591.808 603.416L601.547 492.486L563.986 479.846C563.986 479.846 561.75 493.444 541.57 492.677C521.391 491.898 520.215 479.003 520.215 479.003V478.99Z" fill="#DBA0AC"/>
<path d="M563.999 479.846C563.999 479.846 565.52 528.449 542.529 527.822C519.537 527.196 520.228 478.99 520.228 478.99L504.559 482.862C504.559 482.862 498.987 500.524 496.942 521.075C496.942 521.075 476.341 537.867 490.591 561.843L492.227 602.739C492.227 602.739 483.051 625.129 484.354 639.673C484.354 639.673 531.308 650.191 541.557 678.409H545.583C545.583 678.409 570.44 636.312 606.186 640.478C606.186 640.478 604.09 611.007 591.847 598.01C591.847 598.01 595.962 576.45 596.818 559.095C596.818 559.095 613.764 539.503 589.01 516.78L578.913 484.255C578.913 484.255 569.022 481.214 564.025 479.859L563.999 479.846Z" fill="#D14672"/>
<path d="M532.867 555.683C529.979 559.057 525.544 561.037 521.122 560.935" stroke="#801A3D" stroke-miterlimit="10"/>
<path d="M558.721 555.478C560.791 557.625 563.194 559.453 565.827 560.871" stroke="#801A3D" stroke-miterlimit="10"/>
<path d="M509.301 311.572C509.454 315.534 509.608 319.496 509.761 323.47" stroke="#641026" stroke-miterlimit="10"/>
<path d="M503.677 315.943C504.189 320.173 504.687 324.403 505.198 328.646" stroke="#641026" stroke-miterlimit="10"/>
<path d="M497.837 328.757C512.41 326.981 522.784 313.727 521.007 299.154C519.231 284.58 505.977 274.207 491.404 275.983C476.831 277.76 466.457 291.014 468.233 305.587C470.01 320.16 483.264 330.534 497.837 328.757Z" fill="#641026"/>
<path d="M483.37 279.302C464.737 285.386 460.034 311.559 473.402 325.247C479.574 331.573 489.977 333.911 497.684 329.579" stroke="#641026" stroke-miterlimit="10"/>
<path d="M495.089 367.331C493.019 375.958 497.006 382.948 499.524 390.859C501.39 396.725 503.767 402.182 505.019 408.24C506.31 414.464 505.39 418.847 504.725 425.148C503.78 434.107 507.703 442.771 511.524 450.925" stroke="#641026" stroke-miterlimit="10"/>
<path d="M492.201 602.726C492.201 602.726 546.554 622.292 591.808 597.997C591.808 597.997 603.758 608.068 606.148 640.465L545.545 678.396H540.919L484.329 639.66C484.329 639.66 483.345 618.011 492.201 602.726Z" fill="#2E1A3B"/>
<path d="M541.404 677.182C539.73 655.034 538.58 632.848 537.979 610.649" stroke="#E28C8D" stroke-miterlimit="10"/>
<path d="M545.647 677.22C546.567 654.919 547.692 632.631 549.021 610.355" stroke="#E28C8D" stroke-miterlimit="10"/>
<path d="M587.847 600.055C591.745 604.758 594.186 610.496 596.192 616.273C602.39 634.088 605.023 653.143 603.898 671.981L609.739 722.155" stroke="#E28C8D" stroke-miterlimit="10"/>
<path d="M496.789 604.157C496.789 604.157 487.626 624.938 490.374 643.788L469.44 733.274" stroke="#E28C8D" stroke-miterlimit="10"/>
<path d="M472.456 382.642C478.693 383.715 484.929 384.801 491.153 385.875" stroke="#801A3D" stroke-miterlimit="10"/>
<path d="M474.207 376.507C480.009 377.146 485.811 377.785 491.613 378.424" stroke="#801A3D" stroke-miterlimit="10"/>
<path d="M600.55 343.228C603.681 339.483 605.917 334.934 606.199 330.205C606.672 322.397 601.355 314.383 595.348 309.872C587.335 303.853 574.952 301.616 565.085 301.386C554.018 301.131 542.848 304.121 533.557 310.179C527.806 313.923 523.41 320.275 522.669 327.176C521.876 334.576 527.384 341.17 533.314 344.979C537.851 347.893 543.04 349.631 548.216 351.139C555.82 353.35 563.641 355.101 571.565 355.139C579.488 355.177 587.565 353.388 594.16 349.004C596.46 347.471 598.671 345.503 600.55 343.241V343.228Z" fill="#641026"/>
<path d="M534.171 335.036C547.04 347.317 566.683 352.008 583.693 346.832" stroke="#801A3D" stroke-miterlimit="10"/>
<path d="M554.964 338.844C562.823 343.586 572.919 344.429 581.457 341.043" stroke="#801A3D" stroke-miterlimit="10"/>
<path d="M588.422 364.762C590.722 365.836 593.022 366.896 595.31 367.97" stroke="#801A3D" stroke-miterlimit="10"/>
<path d="M591.911 361.81C593.93 362.257 595.911 362.832 597.841 363.548" stroke="#801A3D" stroke-miterlimit="10"/>
<path d="M489.607 364.059C497.275 365.631 504.853 361.555 511.575 357.554C518.771 353.273 526.196 348.634 530.579 341.49" stroke="#801A3D" stroke-miterlimit="10"/>
<path d="M472.929 296.594C473.197 301.399 474.13 306.243 476.328 310.524C478.527 314.805 482.079 318.511 486.565 320.262" stroke="#801A3D" stroke-miterlimit="10"/>
<path d="M481.198 303.674C481.824 308.492 485.134 312.863 489.594 314.792" stroke="#801A3D" stroke-miterlimit="10"/>
<path d="M531.934 301.655C532.433 305.961 533.199 310.23 534.234 314.435" stroke="#641026" stroke-miterlimit="10"/>
<path d="M536.982 302.332V312.748" stroke="#641026" stroke-miterlimit="10"/>
<path d="M531.909 348.072C548.702 359.42 570.76 362.577 590.058 356.404" stroke="#641026" stroke-miterlimit="10"/>
<path d="M576.255 457.43C577.393 461.085 578.53 464.753 579.667 468.408" stroke="#641026" stroke-miterlimit="10"/>
<path d="M580.779 456.037C582.006 459.143 583.655 462.082 585.648 464.766" stroke="#641026" stroke-miterlimit="10"/>
<path d="M503.844 472.229C505.058 469.009 506.285 465.801 507.499 462.58" stroke="#641026" stroke-miterlimit="10"/>
<path d="M508.93 476.319C510.528 472.664 512.138 468.996 513.735 465.341" stroke="#641026" stroke-miterlimit="10"/>
<path d="M584.831 367.919C586.99 373.926 585.866 380.533 586.16 386.91C586.377 391.536 587.361 396.124 589.074 400.431C591.221 405.837 594.582 411.32 593.508 417.045" stroke="#641026" stroke-miterlimit="10"/>
<path d="M520.33 446.312C526.528 451.769 537.366 453.238 545.289 453.379C551.73 453.494 558.286 452.229 563.897 449.046" stroke="#C9778B" stroke-miterlimit="10"/>
<path d="M599.144 598.01C602.275 596.54 605.7 595.684 609.164 595.505" stroke="#C9778B" stroke-miterlimit="10"/>
<path d="M527.525 521.47C535.295 501.393 546.721 486.568 559.897 469.737C560.421 469.072 560.958 468.37 561.034 467.526C561.162 466.171 560.05 465.008 558.887 464.293C554.171 461.379 547.986 462.606 542.925 464.893C537.736 467.232 532.982 470.644 529.468 475.117C526.17 479.309 524.036 484.319 520.649 488.421C516.087 493.942 507.167 499.425 500.904 492.767C494.885 486.364 491.473 478.939 489.837 470.261C488.405 462.708 488.227 454.989 487.805 447.308C487.179 435.896 485.326 424.675 484.226 413.352C483.293 403.741 484.687 393.428 480.047 384.597C479.102 382.807 477.9 381.044 476.124 380.073C474.347 379.114 471.855 379.204 470.552 380.75C469.747 381.708 469.517 382.999 469.325 384.239C468.149 391.753 467.14 399.524 468.494 407.077C469.772 414.17 470.335 421.147 470.462 428.419C470.692 441.583 470.795 454.81 470.769 467.973C470.769 469.686 470.59 471.692 469.159 472.625C467.83 473.494 465.951 472.932 464.839 471.807C463.727 470.67 463.191 469.111 462.705 467.603C456.174 447.551 450.142 427.218 445.784 406.642C445.043 403.115 444.289 399.588 443.369 396.099C442.41 392.482 441.235 388.814 438.96 385.849C437.618 384.098 434.41 380.954 432.046 381.018C430.614 381.057 429.375 382.143 428.748 383.421C428.122 384.699 427.994 386.169 427.918 387.6C427.56 395.217 428.787 402.783 430.052 410.259C431.241 417.352 431.943 424.47 433.26 431.525C436.097 446.746 442.091 461.136 446.295 475.986C446.704 477.418 446.525 479.616 445.043 479.552C444.251 479.642 444.174 479.258 443.382 479.348C431.867 458.312 431.33 433.173 424.608 410.157C423.611 406.757 418.307 392.712 412.467 397.671C411.061 398.859 410.626 400.84 410.409 402.668C409.553 409.824 410.678 417.058 411.802 424.176C413.553 435.32 413.86 445.57 417.655 456.267C421.592 467.334 424.263 479.603 425.196 491.361C424.275 491.527 423.458 490.786 422.819 490.108C413.809 480.549 405.451 470.376 397.821 459.692C396.121 457.302 394.421 454.861 392.147 452.995C390.447 451.602 387.622 450.299 385.475 449.8C384.351 449.545 383.009 449.851 382.421 450.835C381.923 451.666 382.063 452.74 382.28 453.685C384.491 463.667 392.108 473.354 397.028 482.249C400.006 487.642 402.997 493.022 405.974 498.415C408.62 503.195 412.071 508.026 414.23 512.972C419.087 524.142 420.199 537.139 424.007 548.717C429.541 565.51 439.292 582.674 458.833 582.942C465.517 583.032 472.124 581.626 478.629 580.105C492.393 576.91 502.987 572.041 510.643 559.823C518.093 547.925 522.49 534.468 527.525 521.458V521.47Z" fill="#DBA0AC"/>
<path d="M416.582 496.805C421.477 493.942 426.819 491.552 431.624 488.715C436.416 485.865 440.123 481.661 445.311 479.284C448.442 477.852 451.791 476.97 455.126 476.101C459.075 475.066 463.012 474.044 466.961 473.009C472.379 471.59 478.079 470.172 483.498 471.565" stroke="#C9778B" stroke-miterlimit="10"/>
<path d="M419.445 515.975C441.465 510.403 461.031 497.968 480.175 485.725" stroke="#C9778B" stroke-miterlimit="10"/>
<path d="M440.263 522.774C457.376 515.055 474.488 507.336 491.588 499.604" stroke="#C9778B" stroke-miterlimit="10"/>
<path d="M490.706 508.371C486.118 522.02 487.933 537.676 495.511 549.919" stroke="#C9778B" stroke-miterlimit="10"/>
<path d="M440.11 436.752C442.372 436.126 444.647 435.499 446.909 434.886" stroke="#C9778B" stroke-miterlimit="10"/>
<path d="M436.11 416.585C438.934 415.575 441.963 415.128 444.953 415.269" stroke="#C9778B" stroke-miterlimit="10"/>
<path d="M474.181 408.189C476.418 408.15 478.654 408.406 480.827 408.955" stroke="#C9778B" stroke-miterlimit="10"/>
<path d="M418.754 424.815C420.007 424.419 421.259 424.01 422.499 423.614" stroke="#C9778B" stroke-miterlimit="10"/>
<path d="M392.747 468.446C393.948 467.731 395.047 466.836 395.98 465.801" stroke="#C9778B" stroke-miterlimit="10"/>
<path d="M531.41 481.635C533.135 483.258 534.874 484.894 536.599 486.517" stroke="#C9778B" stroke-miterlimit="10"/>
<path d="M496.074 486.492C498.821 490.236 501.991 494.249 506.54 495.169C511.128 496.089 515.767 493.47 518.911 490.006C522.055 486.543 524.126 482.262 526.848 478.453C532.944 469.89 542.72 462.9 553.507 462.619C555.462 462.568 557.507 462.746 559.156 463.782C560.817 464.817 561.942 466.9 561.328 468.753C560.996 469.763 560.216 470.568 559.462 471.322C555.066 475.846 551.015 480.715 547.385 485.865C542.273 493.112 536.599 500.69 533.251 508.882C529.493 518.097 525.723 527.311 521.966 536.525C515.742 551.785 507.23 570.073 490.693 576.412" stroke="#C9778B" stroke-miterlimit="10"/>
<path d="M313.677 651.136V706.934C302.316 710.678 291.862 714.372 279.248 713.988C271.529 713.771 263.58 711.381 258.11 705.873L271.567 681.681L258.11 649.794C263.567 655.29 271.516 657.693 279.248 657.935C291.811 658.293 302.252 654.651 313.575 650.881L313.665 651.136H313.677Z" fill="#F08184"/>
<path d="M370.408 642.344V661.961C335.493 656.21 313.677 651.136 313.677 651.136L313.588 650.881C315.952 650.101 318.316 649.309 320.809 648.568C336.822 643.673 353.615 640.376 370.408 642.344Z" fill="#F08184"/>
<path d="M764.223 648.58C766.332 649.207 768.364 649.884 770.37 650.536L770.179 651.136C770.179 651.136 749.769 657.399 714.611 663.942V642.344C731.404 640.388 748.197 643.673 764.211 648.568L764.223 648.58Z" fill="#F08184"/>
<path d="M770.384 650.536C782.141 654.421 792.825 658.293 805.797 657.948C813.529 657.705 821.452 655.316 826.935 649.807L813.478 681.693L826.935 705.886C821.465 711.381 813.542 713.784 805.797 714.001C792.966 714.372 782.384 710.563 770.78 706.755H770.205V651.149L770.396 650.549L770.384 650.536Z" fill="#F08184"/>
<path d="M770.192 651.136V716.123C770.192 716.123 745.833 723.599 704.464 730.73C681.077 734.743 652.219 738.654 619.285 740.993C616.883 741.184 614.455 741.35 612.001 741.478C607.387 741.798 602.723 742.041 597.981 742.258C595.732 742.373 593.444 742.475 591.157 742.565C586.543 742.756 581.878 742.897 577.137 742.999C574.964 743.076 572.766 743.101 570.542 743.152C565.916 743.216 561.239 743.267 556.523 743.267H556.165C553.992 743.267 551.845 743.268 549.673 743.242C544.982 743.216 540.292 743.127 535.653 743.025C533.148 742.986 530.631 742.91 528.126 742.807C523.435 742.667 518.758 742.501 514.106 742.309C511.908 742.207 509.71 742.092 507.537 741.989C502.821 741.734 498.118 741.478 493.492 741.172C491.204 741.031 488.929 740.865 486.693 740.737C481.977 740.405 477.287 740.034 472.673 739.664C469.964 739.433 467.255 739.203 464.583 738.961C432.416 736.085 403.112 732.136 379.047 728.353C339.148 722.053 313.716 716.136 313.716 716.136V651.149C313.716 651.149 335.531 656.223 370.446 661.974C416.301 669.54 484.801 678.294 556.178 678.294C621.496 678.294 676.68 670.971 714.663 663.955C749.82 657.411 770.23 651.149 770.23 651.149L770.192 651.136Z" fill="#F36669"/>
<path d="M770.192 706.755V716.136C770.192 716.136 745.833 723.612 704.464 730.743C681.077 734.756 652.219 738.667 619.285 741.006C616.883 741.197 614.455 741.363 612.001 741.491C607.387 741.811 602.723 742.053 597.981 742.271C595.732 742.386 593.444 742.488 591.157 742.577C586.543 742.769 581.878 742.91 577.137 743.012C574.964 743.089 572.766 743.114 570.542 743.165C565.916 743.229 561.239 743.28 556.523 743.28H556.165C553.992 743.28 551.845 743.28 549.673 743.255C544.982 743.229 540.292 743.14 535.653 743.038C533.148 742.999 530.631 742.923 528.126 742.82C523.435 742.68 518.758 742.514 514.106 742.322C511.908 742.22 509.71 742.105 507.537 742.002C502.821 741.747 498.118 741.491 493.492 741.184C491.204 741.044 488.929 740.878 486.693 740.75C481.977 740.418 477.287 740.047 472.673 739.676C469.964 739.446 467.254 739.216 464.583 738.973C432.416 736.098 403.112 732.149 379.047 728.366C339.148 722.066 313.716 716.148 313.716 716.148V651.162C313.716 651.162 335.531 656.236 370.446 661.987C416.301 669.553 484.801 678.307 556.178 678.307C621.496 678.307 676.68 670.984 714.662 663.968C749.82 657.424 770.23 651.162 770.23 651.162V706.768L770.192 706.755Z" stroke="#0C0328" stroke-miterlimit="10"/>
<path d="M770.767 706.755C782.371 710.564 792.953 714.372 805.784 714.001C813.516 713.784 821.44 711.394 826.922 705.886L813.465 681.694L826.922 649.807C821.452 655.303 813.529 657.705 805.784 657.948C792.812 658.306 782.128 654.421 770.371 650.536C768.364 649.884 766.332 649.207 764.223 648.581C748.21 643.686 731.417 640.389 714.624 642.357V664.517" stroke="#0C0328" stroke-miterlimit="10"/>
<path d="M314.265 706.755C314.074 706.832 313.882 706.896 313.69 706.947C302.329 710.691 291.875 714.385 279.261 714.001C271.542 713.784 263.593 711.394 258.123 705.886L271.58 681.694L258.123 649.807C263.58 655.303 271.529 657.705 279.261 657.948C291.824 658.306 302.265 654.664 313.588 650.894C315.952 650.114 318.317 649.322 320.809 648.581C336.822 643.686 353.615 640.389 370.408 642.357V662.856" stroke="#0C0328" stroke-miterlimit="10"/>
<path d="M323.071 670.051C326.866 673.105 330.662 676.172 334.458 679.227" stroke="#2E1A3B" stroke-miterlimit="10"/>
<path d="M329.346 666.626C332.272 668.338 334.982 670.46 337.359 672.888" stroke="#2E1A3B" stroke-miterlimit="10"/>
<path d="M748.568 700.672C751.84 703.1 754.983 705.694 757.987 708.442" stroke="#2E1A3B" stroke-miterlimit="10"/>
<path d="M752.223 696.096C754.741 697.95 757.246 699.803 759.763 701.643" stroke="#2E1A3B" stroke-miterlimit="10"/>
<path d="M778.601 696.442C786.844 700.672 796.212 705.03 805.043 702.218" stroke="#2E1A3B" stroke-miterlimit="10"/>
<path d="M272.743 663.955C281.037 667.393 293.447 666.83 301.613 663.38" stroke="#2E1A3B" stroke-miterlimit="10"/>
<path d="M462.51 718.168C461.342 718.168 460.286 717.968 459.342 717.568C458.414 717.168 457.678 716.592 457.134 715.84C456.59 715.088 456.31 714.2 456.294 713.176H459.894C459.942 713.864 460.182 714.408 460.614 714.808C461.062 715.208 461.67 715.408 462.438 715.408C463.222 715.408 463.838 715.224 464.286 714.856C464.734 714.472 464.958 713.976 464.958 713.368C464.958 712.872 464.806 712.464 464.502 712.144C464.198 711.824 463.814 711.576 463.35 711.4C462.902 711.208 462.278 711 461.478 710.776C460.39 710.456 459.502 710.144 458.814 709.84C458.142 709.52 457.558 709.048 457.062 708.424C456.582 707.784 456.342 706.936 456.342 705.88C456.342 704.888 456.59 704.024 457.086 703.288C457.582 702.552 458.278 701.992 459.174 701.608C460.07 701.208 461.094 701.008 462.246 701.008C463.974 701.008 465.374 701.432 466.446 702.28C467.534 703.112 468.134 704.28 468.246 705.784H464.55C464.518 705.208 464.27 704.736 463.806 704.368C463.358 703.984 462.758 703.792 462.006 703.792C461.35 703.792 460.822 703.96 460.422 704.296C460.038 704.632 459.846 705.12 459.846 705.76C459.846 706.208 459.99 706.584 460.278 706.888C460.582 707.176 460.95 707.416 461.382 707.608C461.83 707.784 462.454 707.992 463.254 708.232C464.342 708.552 465.23 708.872 465.918 709.192C466.606 709.512 467.198 709.992 467.694 710.632C468.19 711.272 468.438 712.112 468.438 713.152C468.438 714.048 468.206 714.88 467.742 715.648C467.278 716.416 466.598 717.032 465.702 717.496C464.806 717.944 463.742 718.168 462.51 718.168ZM482.751 701.248V703.96H478.287V718H474.927V703.96H470.463V701.248H482.751ZM492.979 718.168C491.411 718.168 489.971 717.8 488.659 717.064C487.347 716.328 486.307 715.312 485.539 714.016C484.771 712.704 484.387 711.224 484.387 709.576C484.387 707.944 484.771 706.48 485.539 705.184C486.307 703.872 487.347 702.848 488.659 702.112C489.971 701.376 491.411 701.008 492.979 701.008C494.563 701.008 496.003 701.376 497.299 702.112C498.611 702.848 499.643 703.872 500.395 705.184C501.163 706.48 501.547 707.944 501.547 709.576C501.547 711.224 501.163 712.704 500.395 714.016C499.643 715.312 498.611 716.328 497.299 717.064C495.987 717.8 494.547 718.168 492.979 718.168ZM492.979 715.168C493.987 715.168 494.875 714.944 495.643 714.496C496.411 714.032 497.011 713.376 497.443 712.528C497.875 711.68 498.091 710.696 498.091 709.576C498.091 708.456 497.875 707.48 497.443 706.648C497.011 705.8 496.411 705.152 495.643 704.704C494.875 704.256 493.987 704.032 492.979 704.032C491.971 704.032 491.075 704.256 490.291 704.704C489.523 705.152 488.923 705.8 488.491 706.648C488.059 707.48 487.843 708.456 487.843 709.576C487.843 710.696 488.059 711.68 488.491 712.528C488.923 713.376 489.523 714.032 490.291 714.496C491.075 714.944 491.971 715.168 492.979 715.168ZM516.263 706.432C516.263 707.328 516.047 708.168 515.615 708.952C515.199 709.736 514.535 710.368 513.623 710.848C512.727 711.328 511.591 711.568 510.215 711.568H507.407V718H504.047V701.248H510.215C511.511 701.248 512.615 701.472 513.527 701.92C514.439 702.368 515.119 702.984 515.567 703.768C516.031 704.552 516.263 705.44 516.263 706.432ZM510.071 708.856C510.999 708.856 511.687 708.648 512.135 708.232C512.583 707.8 512.807 707.2 512.807 706.432C512.807 704.8 511.895 703.984 510.071 703.984H507.407V708.856H510.071ZM539.415 701.248L533.271 718H529.191L523.047 701.248H526.647L531.255 714.568L535.839 701.248H539.415ZM544.789 701.248V718H541.429V701.248H544.789ZM555.885 718.168C554.317 718.168 552.877 717.8 551.565 717.064C550.253 716.328 549.213 715.312 548.445 714.016C547.677 712.704 547.293 711.224 547.293 709.576C547.293 707.944 547.677 706.48 548.445 705.184C549.213 703.872 550.253 702.848 551.565 702.112C552.877 701.376 554.317 701.008 555.885 701.008C557.469 701.008 558.909 701.376 560.205 702.112C561.517 702.848 562.549 703.872 563.301 705.184C564.069 706.48 564.453 707.944 564.453 709.576C564.453 711.224 564.069 712.704 563.301 714.016C562.549 715.312 561.517 716.328 560.205 717.064C558.893 717.8 557.453 718.168 555.885 718.168ZM555.885 715.168C556.893 715.168 557.781 714.944 558.549 714.496C559.317 714.032 559.917 713.376 560.349 712.528C560.781 711.68 560.997 710.696 560.997 709.576C560.997 708.456 560.781 707.48 560.349 706.648C559.917 705.8 559.317 705.152 558.549 704.704C557.781 704.256 556.893 704.032 555.885 704.032C554.877 704.032 553.981 704.256 553.197 704.704C552.429 705.152 551.829 705.8 551.397 706.648C550.965 707.48 550.749 708.456 550.749 709.576C550.749 710.696 550.965 711.68 551.397 712.528C551.829 713.376 552.429 714.032 553.197 714.496C553.981 714.944 554.877 715.168 555.885 715.168ZM570.313 715.336H575.833V718H566.953V701.248H570.313V715.336ZM581.329 703.96V708.16H586.969V710.824H581.329V715.264H587.689V718H577.969V701.224H587.689V703.96H581.329ZM605.07 718H601.71L594.102 706.504V718H590.742V701.224H594.102L601.71 712.744V701.224H605.07V718ZM607.574 709.6C607.574 707.952 607.942 706.48 608.678 705.184C609.43 703.872 610.446 702.856 611.726 702.136C613.022 701.4 614.47 701.032 616.07 701.032C617.942 701.032 619.582 701.512 620.99 702.472C622.398 703.432 623.382 704.76 623.942 706.456H620.078C619.694 705.656 619.15 705.056 618.446 704.656C617.758 704.256 616.958 704.056 616.046 704.056C615.07 704.056 614.198 704.288 613.43 704.752C612.678 705.2 612.086 705.84 611.654 706.672C611.238 707.504 611.03 708.48 611.03 709.6C611.03 710.704 611.238 711.68 611.654 712.528C612.086 713.36 612.678 714.008 613.43 714.472C614.198 714.92 615.07 715.144 616.046 715.144C616.958 715.144 617.758 714.944 618.446 714.544C619.15 714.128 619.694 713.52 620.078 712.72H623.942C623.382 714.432 622.398 715.768 620.99 716.728C619.598 717.672 617.958 718.144 616.07 718.144C614.47 718.144 613.022 717.784 611.726 717.064C610.446 716.328 609.43 715.312 608.678 714.016C607.942 712.72 607.574 711.248 607.574 709.6ZM630.172 703.96V708.16H635.812V710.824H630.172V715.264H636.532V718H626.812V701.224H636.532V703.96H630.172Z" fill="white"/>
</svg>
