<svg width="88" height="88" viewBox="0 0 88 88" fill="none" xmlns="http://www.w3.org/2000/svg">
<g clip-path="url(#clip0_64_439)">
<path d="M53.6812 45.6737C49.9578 41.8154 46.2628 37.9879 42.2165 33.796C45.8149 30.5611 49.2471 26.7749 53.3299 23.9315C66.4035 14.8275 85.7321 23.7789 87.7664 39.5716C88.7965 47.5709 86.4063 54.2406 80.7771 59.8696C73.7511 66.8954 66.737 73.9318 59.7241 80.9718C50.487 90.2449 36.5166 90.3585 27.144 81.2178C24.6193 78.7564 22.1253 76.2631 19.6914 73.6148C24.8268 76.0076 30.0753 77.0721 35.6939 75.9698C40.4438 75.0389 44.4642 72.8389 47.8551 69.4514C55.0166 62.2967 62.1486 55.1112 69.277 47.9222C72.0893 45.0858 72.259 41.2737 69.7426 38.7295C67.2167 36.177 63.4592 36.339 60.5751 39.1541C58.4582 41.2216 56.3732 43.3223 54.2705 45.4052C54.208 45.4667 54.1031 45.4844 53.6824 45.6725L53.6812 45.6737Z" fill="#F36669"/>
<path d="M68.1692 13.9488C64.6874 13.1989 61.2493 12.0764 57.7429 11.7831C51.0022 11.2189 45.182 13.7193 40.3991 18.4422C33.194 25.5544 26.1799 32.8629 18.91 39.9064C15.5898 43.1236 16.3677 47.4881 18.2783 49.3783C20.8371 51.9094 24.5145 51.6764 27.6568 48.6946C28.6268 47.7744 29.5921 46.8435 30.4891 45.8547C31.32 44.938 32.059 43.9374 32.8676 42.9367C36.9751 47.2102 40.7091 51.0945 44.5138 55.0521C38.2056 62.5428 31.0595 68.6354 19.9508 67.5436C10.676 66.6317 1.66411 58.3427 0.301599 49.04C-0.898262 40.8538 1.47907 33.9783 7.27918 28.1861C14.1094 21.3661 20.8713 14.4775 27.7393 7.69653C38.2964 -2.72627 51.7506 -2.52993 62.1451 8.08803C64.1429 10.1284 66.2362 12.0741 68.168 13.9488H68.1692Z" fill="#F36669"/>
</g>
<defs>
<clipPath id="clip0_64_439">
<rect width="88" height="88" fill="white"/>
</clipPath>
</defs>
</svg>
