<svg width="225" height="240" viewBox="0 0 225 240" fill="none" xmlns="http://www.w3.org/2000/svg">
<path d="M224.1 128C224.1 189.7 174.2 239.6 112.5 239.6C50.8999 239.6 0.899902 189.7 0.899902 128C0.899902 66.2999 50.8999 16.3999 112.5 16.3999C174.2 16.3999 224.1 66.2999 224.1 128Z" fill="#FCE8E3"/>
<path d="M185.5 186.9C217.1 165.6 198.3 130.5 169.7 83.5C165.6 76.7 162.9 69.2 161.3 61.4C156.7 38.6 136.5 21.5 112.4 21.5C87.9999 21.5 67.7999 38.9 63.2999 62C61.7999 70 59.1999 77.8 55.3999 85C29.1999 134.7 3.49993 174.7 40.9999 186.9H185.5Z" fill="#4C224B"/>
<path d="M138.6 180H86.2998V113.3H138.6V180Z" fill="#E2988F"/>
<path d="M208.4 185.1C183.8 174.7 138.9 166.9 138.9 166.9C121.7 181.5 99.8997 181.4 86.2997 166.9C86.2997 166.9 40.7997 173.7 15.1997 182.7C33.4997 215.3 67.6997 237.7 107.3 239.5C109.1 239.6 110.9 239.6 112.7 239.6C153.4 239.6 189 217.7 208.4 185.1Z" fill="#F4BA5D"/>
<path d="M86.2995 159.4L75.9995 168.6C75.9995 168.6 81.9995 194.5 94.2995 195C106.6 195.5 112.4 177.8 112.4 177.8C100.666 174.667 91.9662 168.533 86.2995 159.4Z" fill="white"/>
<path d="M138.6 159.4L148.9 168.6C148.9 168.6 142.9 194.5 130.6 195C118.3 195.5 112.5 177.8 112.5 177.8C124.233 174.667 132.933 168.533 138.6 159.4Z" fill="white"/>
<path d="M136.5 24.5C136.5 37.7 125.7 48.5 112.5 48.5C99.1995 48.5 88.4995 37.7 88.4995 24.5C88.4995 11.2 99.1995 0.5 112.5 0.5C125.7 0.5 136.5 11.2 136.5 24.5Z" fill="#4C224B"/>
<path d="M112.4 32.5C78.6999 32.6 70.9999 57.8 71.6999 83.2C71.6999 101.5 70.3999 107.5 72.0999 112C73.0999 118.5 86.1999 151.4 112.4 151.4C138.6 151.4 150.6 120.2 152.9 112C154.6 107.5 153.1 101.5 153.1 83.2C153.8 57.8 146.1 32.6 112.4 32.5Z" fill="#E2988F"/>
<path d="M112.4 152.2C102.6 152.2 93.5997 147.7 85.6997 139L86.8997 138C94.3997 146.4 103 150.7 112.4 150.7C122 150.7 130.6 146.4 138 138L139.2 139C131.4 147.7 122.4 152.2 112.4 152.2Z" fill="#C46966"/>
<path d="M73.1997 83.8001C73.1997 83.8001 66.3997 75.1002 59.4997 80.2002C52.4997 85.3002 59.2997 114.3 73.1997 109.2C87.0997 104.1 73.1997 83.8001 73.1997 83.8001Z" fill="#E2988F"/>
<path d="M151.7 83.8001C151.7 83.8001 158.5 75.1002 165.5 80.2002C172.4 85.3002 165.6 114.3 151.7 109.2C137.8 104.1 151.7 83.8001 151.7 83.8001Z" fill="#E2988F"/>
<path d="M70.7996 109.9L69.0996 97.4002L70.5996 97.2002L72.2996 109.7L70.7996 109.9Z" fill="#C46966"/>
<path d="M154.4 109.9L153 109.7L154.1 97.2998L155.6 97.3998L154.4 109.9Z" fill="#C46966"/>
<path d="M62.8999 95.3002C61.3999 90.8002 61.2999 87.6002 62.6999 85.7002C63.8999 84.2002 65.5999 84.3002 65.6999 84.3002L65.5999 85.8002C65.5999 85.8002 64.5999 85.7002 63.8999 86.7002C63.1999 87.6002 62.6999 89.8002 64.2999 94.8002L62.8999 95.3002Z" fill="#C46966"/>
<path d="M162.5 95.3002L161.1 94.8002C162.8 89.8002 162.3 87.6002 161.6 86.7002C160.9 85.7002 159.9 85.8002 159.8 85.8002V84.3002C159.8 84.3002 161.6 84.2002 162.8 85.7002C164.2 87.6002 164.1 90.8002 162.5 95.3002Z" fill="#C46966"/>
<path d="M162.3 108C162.3 109.8 160.9 111.1 159.2 111.1C157.5 111.1 156.1 109.8 156.1 108C156.1 106.3 157.5 104.9 159.2 104.9C160.9 104.9 162.3 106.3 162.3 108Z" fill="white"/>
<path d="M69.0999 108C69.0999 109.8 67.6999 111.1 65.9999 111.1C64.2999 111.1 62.8999 109.8 62.8999 108C62.8999 106.3 64.2999 104.9 65.9999 104.9C67.6999 104.9 69.0999 106.3 69.0999 108Z" fill="white"/>
<path d="M69.9995 70.9999C96.7995 76.6999 125 77.0999 154.9 70.9999C154.9 70.9999 155.4 29.6999 113.6 28.3999C71.7995 26.9999 69.9995 70.9999 69.9995 70.9999Z" fill="#4C224B"/>
<path d="M135.9 28.1999C120.3 22.0999 104.5 22.0999 88.8999 28.1999L88.3999 26.7999C104.3 20.5999 120.5 20.5999 136.4 26.7999L135.9 28.1999Z" fill="#703870"/>
<path d="M156.1 70.5C155 58.8 150.9 48.5 143.9 40L145.1 39C152.3 47.8 156.5 58.3 157.6 70.3L156.1 70.5Z" fill="#703870"/>
<path d="M69.8999 70.5L68.3999 70.3C69.4999 58.3 73.6999 47.8 80.8999 39L82.0999 40C75.0999 48.5 70.9999 58.8 69.8999 70.5Z" fill="#703870"/>
<path d="M83.4995 73.3L81.9995 73.2C82.4995 66.7 83.7995 60 85.9995 53.5L87.3995 53.9C85.2995 60.4 83.9995 66.9 83.4995 73.3Z" fill="#703870"/>
<path d="M137.2 73.9999H135.7C135.9 69.4999 135.1 64.2999 133.6 58.2999L135 57.8999C136.6 63.9999 137.4 69.3999 137.2 73.9999Z" fill="#703870"/>
<path d="M132.1 53.2999C131 49.7999 130.1 47.4999 130.1 47.4999L131.5 46.8999C131.5 46.9999 132.4 49.2999 133.6 52.7999L132.1 53.2999Z" fill="#703870"/>
</svg>
