<svg width="206" height="57" viewBox="0 0 206 57" fill="none" xmlns="http://www.w3.org/2000/svg">
<path d="M171.741 28.8314C172.808 25.2334 174.573 19.3156 175.566 15.7176C176.705 11.5042 178.176 5.91777 178.985 1.60963C178.985 0.804818 178.213 0 177.661 0C177.367 0 177.22 0.0946832 177.11 0.42608C176.889 1.04153 176.779 1.70432 176.595 2.31977C175.455 6.62791 173.139 14.5341 171.484 18.8895C171.447 18.9842 171.447 19.0789 171.447 19.2209C171.447 19.789 171.852 20.4992 171.815 20.7359C171.374 22.2982 170.05 26.7483 169.388 29.0208C169.351 29.2575 169.278 29.4942 169.204 29.7782C164.571 29.8256 157.805 30.157 151.003 30.9618C151.076 30.5831 151.187 30.2517 151.297 29.8729C153.761 21.2093 155.82 13.3505 155.82 10.4153C155.82 5.06561 152.4 2.31977 147.142 2.31977C134.53 2.31977 110.923 14.392 110.923 30.0623C110.923 34.0864 112.283 37.0216 114.343 39.8621C114.784 40.4776 115.666 41.7085 116.328 41.7085C116.659 41.7085 116.88 41.4244 116.88 40.9983C116.88 40.6669 116.769 40.3829 116.622 40.1462C116.181 39.436 115.629 38.9153 115.151 38.2525C113.791 36.3588 112.945 33.897 112.945 31.2932C112.945 15.8123 137.692 4.16611 147.142 4.16611C154.68 4.16611 154.496 8.94768 152.915 15.1022C151.554 20.5465 150.047 25.9435 148.502 31.2932C144.531 31.814 140.633 32.5241 137.177 33.4709C136.773 33.5656 136.625 33.755 136.625 34.1811C136.625 34.9859 137.398 36.1221 137.949 36.1221C145.745 36.6902 142.913 49.4253 142.068 55.3904C142.068 56.2425 142.619 57 143.281 57C143.575 57 143.685 56.858 143.796 56.5266C144.825 52.0764 147.693 42.3713 150.12 33.9444C155.636 33.1395 162.291 32.2874 168.506 32.098C166.557 39.0573 164.314 47.1528 164.314 50.7508C164.314 52.4552 164.829 54.6329 166.446 54.6329C168.358 54.6329 173.874 41.3297 173.874 36.9269C173.874 35.3173 173.47 33.6603 172.477 33.0449C172.256 32.9028 171.962 32.7608 171.741 32.7608C171.558 32.7608 171.41 32.9502 171.41 33.1869C171.41 33.6603 171.778 33.897 172.072 34.0864C172.587 34.4651 172.661 35.2226 172.661 36.3115C172.661 39.7201 167.035 52.5498 166.042 52.5498C165.968 52.5498 165.932 52.3605 165.932 51.8397C165.932 48.4311 168.8 38.7259 170.785 32.0507C172.109 32.0507 173.396 32.098 174.646 32.1454C177.294 32.2874 178.103 32.9028 178.397 32.9028C178.728 32.9028 178.985 32.7608 178.985 32.2874C178.985 29.7782 173.212 29.7782 171.484 29.7782C171.558 29.4468 171.668 29.1155 171.741 28.8314ZM145.046 43.2708C144.825 40.2409 143.281 37.3057 141.516 35.4593C143.134 35.1279 145.23 34.7492 147.62 34.3704C146.517 38.1578 145.414 41.8032 145.046 43.2708Z" fill="black"/>
<path d="M182.035 39.6254C181.299 39.6254 181.152 39.436 181.152 38.3472C181.152 37.8738 181.189 37.353 181.299 36.7849C181.63 36.8796 181.924 36.8796 182.182 36.8796C184.388 36.8796 187.808 33.9444 187.808 30.8671C187.808 29.2101 186.521 28.0266 185.344 28.0266C181.777 28.0266 179.24 33.1395 179.24 37.3056C179.24 40.2409 180.674 41.9925 182.954 41.9925C187.146 41.9925 191.999 37.0689 194.426 33.0922C194.5 32.9975 194.537 32.9028 194.537 32.8081C194.537 32.2874 194.095 31.814 193.691 31.814C193.617 31.814 193.544 31.8613 193.47 31.956C189.462 36.2168 186.006 39.6254 182.035 39.6254ZM181.814 34.8912C182.623 32.4767 184.167 30.3937 185.785 30.3463C185.859 30.3463 185.859 30.3937 185.859 30.441C185.859 31.7193 184.241 34.4178 181.814 34.8912Z" fill="black"/>
<path d="M200.374 38.0158C202.286 38.0158 204.75 34.8439 205.889 33.0449C205.963 32.9502 206 32.9028 206 32.7608C206 32.2874 205.559 31.7666 205.154 31.7666C204.786 31.7666 201.918 36.1694 199.749 36.1694C199.491 36.1694 199.344 35.9327 199.344 35.3646C199.344 33.3289 200.595 31.0091 200.595 30.441C200.595 29.6836 199.859 28.7841 199.234 28.7841C198.535 28.7841 195.042 34.1337 194.674 35.0332C194.932 34.0864 195.778 31.4352 195.778 30.5831C195.778 29.7782 195.005 28.9734 194.454 28.9734C194.123 28.9734 193.865 29.1154 193.865 29.4942C193.865 30.2517 192.762 33.8023 192.137 36.0274C191.88 36.9743 190.924 40.4302 190.924 41.2351C190.924 42.0399 191.696 42.8447 192.248 42.8447C192.542 42.8447 192.652 42.7027 192.836 42.3713C194.27 39.4361 195.888 36.2168 197.69 33.3762C197.653 33.5656 197.653 33.755 197.653 33.9444C197.653 36.1221 198.535 38.0158 200.374 38.0158Z" fill="black"/>
<path d="M0.0523672 31.9234C1.43243 38.9504 7.95636 41 12.222 41C17.3659 41 24.5171 38.2477 24.5171 29.2883C24.5171 20.5045 18.3696 20.0946 12.6402 19.3919C7.78908 18.8649 3.60707 18.3378 3.60707 13.2432C3.60707 7.91441 9.04368 6.33333 11.8456 6.33333C14.8567 6.33333 19.3314 7.0946 20.586 11.545C21.2133 13.536 24.0571 12.482 23.4298 10.1396C21.6733 3.46396 16.1949 2 11.8038 2C6.70176 2 0.345108 5.45496 0.345108 13.1847C0.345108 21.9099 6.53448 22.6712 12.3056 23.3153C16.9059 23.8423 21.297 24.2523 21.297 29.3468C21.297 35.2613 15.7767 36.7838 12.222 36.7838C8.8764 36.7838 4.23437 35.7297 3.14705 30.8694C2.81249 28.4685 -0.449474 29.3468 0.0523672 31.9234Z" fill="#F36669"/>
<path d="M42.3527 10.4324C40.3035 9.67117 38.0452 9.61261 36.0797 10.4324C28.3012 13.4775 26.3356 26.9459 30.8522 35.2613C32.8177 38.7162 36.0797 40.473 39.3417 40.473C42.06 40.5315 44.8619 39.4775 46.7856 36.9595C48.4166 34.6171 46.242 32.2162 44.7783 34.0901C43.1473 35.8468 41.1399 36.5495 39.2162 36.5495C35.0342 36.5495 32.1068 32.5676 31.5631 27.7658H48.0821C49.7967 27.7658 50.2149 26.3604 50.1313 25.0721V25.1306C50.0476 17.6351 47.1202 12.2477 42.3945 10.4324H42.3527ZM36.9997 14.2973C38.4216 13.7117 40.1363 13.7117 41.5163 14.2387H41.4745C44.7365 15.4099 46.9111 19.2162 47.2038 24.1937H31.4377C31.6886 19.4505 33.6541 15.527 36.9997 14.2973Z" fill="#F36669"/>
<path d="M71.3399 16.991C72.5109 18.9234 74.7692 16.464 73.5564 14.5315C71.2981 10.9595 68.8725 9.55405 65.8615 9.55405C59.5048 9.55405 55.1137 15.4685 54.7792 24.1351C54.6119 28.4099 55.4901 32.5676 57.2465 35.6126C59.3375 39.009 62.5159 40.8243 65.6524 40.8243C68.7471 40.8243 71.8836 39.1261 73.9328 35.6126C75.3546 33.3288 72.8454 31.045 71.7999 33.036C70.3362 35.8468 67.9107 36.9009 65.6942 36.9009C63.4359 36.9009 61.1358 35.5541 59.6721 33.036C58.4175 30.9279 57.8738 27.9414 57.8738 25.3063C57.8738 18.6306 60.9685 13.4189 65.5269 13.4189C67.6179 13.4189 69.7507 14.4144 71.3399 16.991Z" fill="#F36669"/>
<path d="M82.2167 12.0721C82.2167 10.7838 81.5894 10.0225 80.6694 10.0225C79.7075 10.0225 79.1639 10.7838 79.1639 12.0721V27.5901C79.1639 36.0225 83.8059 40.7072 88.657 40.7072C91.919 40.7072 95.1391 38.8333 96.6447 34.5586V38.2477C96.6447 41.0586 99.6557 41 99.6557 38.3063V12.0721C99.6557 10.7838 99.0284 10.0225 98.0665 10.0225C97.1047 10.0225 96.561 10.7838 96.561 12.0721V25.6577C96.561 32.0405 92.7554 36.7252 88.6988 36.7252C85.3114 36.7252 82.2167 32.9775 82.2167 27.5901V12.0721Z" fill="#F36669"/>
<path d="M109.55 12.2477C109.55 9.43693 106.581 9.67117 106.581 12.2477V38.1892C106.581 39.4189 107.208 40.2387 108.129 40.2387C108.923 40.2387 109.634 39.4189 109.634 38.1892V24.955C109.634 19.0405 111.474 14.2387 115.782 14.2387C116.743 14.2387 117.371 13.536 117.371 12.2477C117.371 10.9009 116.743 10.1982 115.782 10.1982C113.398 10.1982 110.889 11.2523 109.55 15.1757V12.2477Z" fill="#F36669"/>
<path d="M133.77 10.4324C131.721 9.67117 129.463 9.61261 127.497 10.4324C119.719 13.4775 117.753 26.9459 122.27 35.2613C124.235 38.7162 127.497 40.473 130.759 40.473C133.478 40.5315 136.28 39.4775 138.203 36.9595C139.834 34.6171 137.66 32.2162 136.196 34.0901C134.565 35.8468 132.558 36.5495 130.634 36.5495C126.452 36.5495 123.524 32.5676 122.981 27.7658H139.5C141.214 27.7658 141.633 26.3604 141.549 25.0721V25.1306C141.465 17.6351 138.538 12.2477 133.812 10.4324H133.77ZM128.417 14.2973C129.839 13.7117 131.554 13.7117 132.934 14.2387H132.892C136.154 15.4099 138.329 19.2162 138.622 24.1937H122.855C123.106 19.4505 125.072 15.527 128.417 14.2973Z" fill="#F36669"/>
</svg>
