<svg width="138" height="44" viewBox="0 0 138 44" fill="none" xmlns="http://www.w3.org/2000/svg">
<path d="M28.3341 31.552C25.7741 31.872 37.4221 9.76 39.2781 9.76C39.4381 9.76 39.8221 9.696 40.1421 9.984C40.0461 9.184 38.1261 7.84 37.2301 7.84C35.8221 7.84 22.7661 19.808 17.2621 26.848C19.9501 22.4 27.8861 11.2 27.8861 5.44C27.8861 2.72 25.5181 1.472 22.8301 1.472C15.2781 1.472 0.910125 12.064 0.910125 17.12C0.910125 17.824 1.42213 19.104 2.86213 19.104C3.63013 19.104 5.00613 18.336 5.00613 18.144C5.00613 18.016 4.65413 18.272 4.01413 18.272C3.24613 18.272 3.15013 18.016 3.15013 17.6C3.15013 15.616 15.3101 2.304 23.3101 2.304C24.6221 2.304 26.0941 2.624 26.0941 4.128C26.0941 8 12.1421 28.32 12.1421 32.384C12.1421 32.896 12.9101 33.536 13.5181 33.536C14.1581 33.536 14.4781 32.96 14.4461 32.96C14.3181 33.024 14.1581 33.056 14.0301 33.056C13.9021 33.056 13.6781 33.024 13.6781 32.928C13.6781 30.08 30.2541 14.592 34.1901 11.936C31.7901 15.36 26.0621 25.024 26.0621 30.464C26.0621 31.616 26.6701 32.928 28.5901 32.64C30.0301 32.416 34.0941 29.248 38.6381 24.352C45.0701 17.504 52.2061 7.904 52.2061 2.752C52.2061 2.208 52.1101 1.696 51.9501 1.248C51.7261 0.575998 50.8621 0.0319996 49.7741 0.0639992C48.6541 0.0959988 47.0861 1.216 46.5421 1.632C46.7341 1.504 47.7581 1.12 48.5261 1.12C48.9421 1.12 49.2941 1.248 49.4221 1.568C49.5501 1.92 49.6141 2.368 49.6141 2.848C49.6141 7.36 43.7261 16.416 38.1261 23.04C33.9341 28 30.0941 31.328 28.3341 31.552ZM56.2101 16C56.3381 16 56.4341 16 56.2741 15.904C56.0501 15.712 55.5381 15.36 54.3221 15.36C49.2661 15.36 42.2581 20.576 42.2581 25.792C42.2581 27.008 43.2181 28.224 44.6901 28.32C48.0821 28.512 54.7061 23.904 55.5701 19.648C55.7301 19.712 56.0501 19.776 56.5301 19.776C57.0421 19.776 57.7141 19.712 58.4181 19.488C59.9861 18.976 61.2661 17.92 61.4261 17.472C61.0741 17.44 59.8901 18.688 57.7461 18.88C56.4661 18.976 55.6981 18.24 55.0901 17.248C55.0261 17.152 54.6741 16.896 54.3541 16.928C53.9381 16.96 52.9781 17.92 52.8821 18.24C52.7541 18.56 53.0741 19.52 53.2341 19.808C51.0901 23.072 46.5141 28.192 44.7221 27.456C42.9301 26.688 49.6181 15.904 55.4101 15.904C55.6341 15.904 55.8901 15.968 56.2101 16ZM70.3369 28.224C72.2249 28.224 77.5049 22.88 80.2889 19.84C80.3849 19.744 80.2249 19.488 80.0009 19.648C77.9529 21.6 73.2809 26.112 71.2009 26.592C71.2009 25.184 76.1929 18.24 76.9929 17.6C77.4089 17.248 76.3529 15.52 75.6489 15.52C74.3049 15.52 68.2249 21.44 65.2169 25.248C65.2169 24.128 68.0969 19.52 69.7289 17.792C70.0489 17.472 68.9929 15.872 68.3529 15.872C68.2889 15.872 68.2249 15.872 68.1609 15.904C66.8169 16.192 59.9049 22.432 57.8569 25.152C58.5929 23.904 61.4089 19.712 62.7849 18.144C63.2009 17.632 63.6489 17.312 63.8729 17.344C64.1289 17.376 64.2569 17.536 64.2569 17.408C64.2569 16.608 63.0409 15.36 62.2409 15.36C62.1449 15.36 61.9529 15.392 61.8249 15.52C61.4729 15.808 61.0249 16.256 60.5769 16.8C58.8169 18.88 56.8969 21.824 55.5209 24.416C54.6889 25.888 54.5609 26.752 54.6249 26.976C54.8809 27.872 55.7129 28.864 56.6729 28.64C56.1929 28.416 56.3529 27.776 57.2489 26.72C57.4729 26.432 57.8249 26.016 58.3689 25.408C60.7049 22.784 63.6809 19.776 66.9129 17.824C64.7689 19.776 62.3049 24.384 62.3049 25.6C62.3049 26.24 63.3289 27.264 63.7769 27.264C64.6729 27.264 68.0009 21.728 73.8249 17.696C72.1609 19.232 68.6729 24.576 68.6729 26.4C68.6729 27.008 69.6009 28.224 70.3369 28.224ZM83.6249 25.344C83.4969 25.824 83.3689 26.208 83.3689 26.528C83.3689 27.104 83.9769 27.776 84.4249 28.032C84.6489 28.16 84.8089 28.224 84.9689 28.224C86.8889 28.224 92.1049 22.88 94.8889 19.84C94.9849 19.744 94.8249 19.488 94.6649 19.648C92.6809 21.504 88.1049 25.888 86.0889 26.464C86.0889 26.208 86.2169 25.824 86.4089 25.376C87.3689 23.328 90.2489 19.84 90.4089 20.16C90.5369 19.776 89.4489 18.016 88.8089 18.336C88.0089 18.784 85.9289 20.8 85.3529 21.312C83.6889 22.72 79.2089 25.952 78.1529 26.304C78.0569 26.336 77.9929 26.336 77.9289 26.304C77.6409 26.144 80.0409 22.112 83.0809 19.52C85.1609 17.76 87.4969 16.416 89.3529 16.32C90.3129 16.256 90.9209 16.736 90.9209 17.696C90.9209 18.176 90.7289 18.56 90.5689 18.848C90.5369 18.88 90.6009 18.912 90.6649 18.88C90.9849 18.464 91.2729 17.92 91.2729 17.376C91.2729 15.872 89.6729 15.36 88.4569 15.36C82.5689 15.36 75.2409 22.496 75.2409 25.984C75.2409 26.624 76.0729 27.84 76.6489 28.128C76.7129 28.16 76.8729 28.224 76.9369 28.224C78.2809 28.224 84.5209 22.848 85.4809 21.888C84.8729 22.688 84.0089 24.16 83.6249 25.344ZM107.042 17.6C107.458 17.248 106.434 15.52 105.666 15.52C104.578 15.52 98.9464 19.84 95.3624 23.36C94.6904 24 94.0824 24.64 93.7304 25.152C94.2104 24.256 95.8744 21.888 97.3784 19.904C98.3384 18.656 99.5224 17.312 99.9384 17.344C100.194 17.376 100.322 17.536 100.322 17.408C100.322 16.608 99.1064 15.36 98.3064 15.36C98.2104 15.36 98.0184 15.392 97.8904 15.52C97.0584 16.16 95.6504 17.856 94.4984 19.488C93.4424 20.96 92.2264 22.848 91.4584 24.352C90.6584 25.824 90.4984 26.688 90.5624 26.912C90.8184 27.84 91.5864 28.864 92.5464 28.64C92.0664 28.416 92.2904 27.552 93.1544 26.528C93.5064 26.08 93.8904 25.6 94.3064 25.184C96.6744 22.624 101.378 18.752 104.002 17.568C102.338 19.072 98.6264 24.416 98.6264 26.24C98.6264 26.592 98.8504 27.072 99.2024 27.488C99.5224 27.872 99.8744 28.16 100.194 28.16C102.114 28.16 107.33 22.88 110.114 19.84C110.21 19.744 110.05 19.488 109.858 19.648C107.81 21.568 103.234 25.952 101.218 26.496C101.282 24.992 106.242 18.24 107.042 17.6ZM107.004 28.224C108.988 28.064 114.076 22.848 116.86 19.84C116.956 19.744 116.796 19.488 116.572 19.648C114.62 21.536 109.948 25.984 107.996 26.496C108.38 25.184 112.764 17.888 114.076 18.016C114.332 18.048 114.492 18.208 114.492 18.08C114.492 17.28 113.212 16 112.476 16C112.348 16 112.156 16.032 111.996 16.192C109.948 17.824 105.308 24.8 105.308 26.656C105.308 27.232 106.108 28.032 106.62 28.192C106.78 28.224 106.876 28.224 107.004 28.224ZM115.452 11.104C114.62 11.36 113.404 13.44 113.436 14.368C113.468 14.944 114.14 15.616 114.588 15.04C114.972 14.496 116.444 13.184 116.988 12.96C117.34 12.8 117.596 12.928 117.66 12.928C117.788 12.928 117.596 12.448 117.308 12.128C116.892 11.648 116.188 11.008 115.452 11.104ZM124.271 8.032C121.807 11.2 118.575 15.84 115.535 20.704C114.575 20.704 113.327 22.4 114.191 23.104C108.975 31.936 105.263 40.32 105.359 42.112C105.391 42.656 106.159 43.744 106.799 43.712H106.895C108.271 43.648 116.271 37.312 118.031 28.192C118.127 27.616 118.191 26.976 118.191 26.368C118.191 25.056 117.967 23.808 117.743 23.168C118.223 23.072 119.311 22.528 119.919 22.208C122.575 20.8 125.647 18.848 126.639 17.888C126.639 17.888 126.639 17.856 126.639 17.824C126.639 17.76 126.575 17.664 126.479 17.664C126.415 17.664 126.383 17.696 126.351 17.76C124.751 19.104 120.143 21.44 117.807 22.208L117.775 22.144C121.327 16.608 123.599 13.152 126.031 10.112C127.375 8.384 129.487 5.376 130.575 5.888C131.183 6.24 129.903 4.384 128.079 4.48C127.823 4.48 127.407 4.736 126.895 5.12C126.159 5.76 125.231 6.784 124.271 8.032ZM107.471 41.792C107.407 41.792 107.407 41.632 107.535 41.376C108.879 38.048 113.359 29.12 117.039 23.232C117.455 23.776 117.647 24.96 117.647 25.984C117.647 26.4 117.615 26.784 117.551 27.104C116.463 33.824 111.567 38.848 107.791 41.664C107.599 41.792 107.535 41.824 107.471 41.792ZM136.096 18.112C136.544 17.632 136.96 17.344 137.216 17.376C137.44 17.408 137.568 17.568 137.568 17.44C137.568 16.64 136.32 15.36 135.584 15.36C135.424 15.36 135.296 15.392 135.104 15.552C133.344 16.96 130.848 19.712 129.152 21.344C127.648 22.816 124.384 25.696 122.848 26.336C122.848 25.408 124.416 22.592 126.048 20.48C127.136 19.04 128.448 17.504 128.96 17.568C129.216 17.6 129.312 17.76 129.312 17.632C129.312 16.8 128.096 15.552 127.328 15.552C127.232 15.552 127.04 15.584 126.88 15.744C126.08 16.384 124.768 17.824 123.68 19.392C121.856 21.92 120.096 25.152 120.096 26.528C120.096 27.296 121.088 28.16 121.6 28.16C121.664 28.16 121.76 28.16 121.856 28.16C123.776 27.776 128.288 22.976 131.52 19.68C127.008 24.864 122.656 33.344 120.992 36.992C120.416 38.336 119.744 39.744 119.648 40.704C119.552 41.28 120.032 43.04 121.312 42.912C121.472 42.912 121.6 42.88 121.664 42.816C122.016 41.28 126.24 34.56 130.816 30.912C130.816 30.912 130.816 30.72 130.656 30.72C129.728 31.008 125.088 35.264 122.56 38.752C124.448 35.2 129.536 26.08 132.032 22.976C133.44 21.248 134.752 19.52 136.096 18.112Z" fill="#F36669"/>
</svg>
