<svg width="32" height="32" viewBox="0 0 32 32" fill="none" xmlns="http://www.w3.org/2000/svg">
<path d="M11.9998 23.0001C11.4476 23.0001 10.9998 23.4478 10.9998 24.0001C10.9998 24.5524 11.4476 25.0001 11.9998 25.0001H19.9998C20.5521 25.0001 20.9998 24.5524 20.9998 24.0001C20.9998 23.4478 20.5521 23.0001 19.9998 23.0001H11.9998Z" fill="#A0A0A0"/>
<path fill-rule="evenodd" clip-rule="evenodd" d="M15.9998 1.66675C15.0557 1.66675 14.1979 1.93717 13.2672 2.38973C12.3676 2.82721 11.3284 3.4722 10.0303 4.27785L7.27488 5.98795C6.04662 6.75023 5.06309 7.36062 4.30504 7.94116C3.52004 8.54234 2.9171 9.1546 2.48158 9.95026C2.04698 10.7442 1.85126 11.5891 1.75742 12.5877C1.66648 13.5555 1.66649 14.7389 1.6665 16.2231V18.3732C1.66649 20.9117 1.66647 22.9155 1.87011 24.4822C2.079 26.0894 2.51792 27.3868 3.50965 28.4127C4.50595 29.4432 5.77378 29.9036 7.34331 30.1219C8.86449 30.3335 10.8073 30.3334 13.2556 30.3334H18.744C21.1923 30.3334 23.1352 30.3335 24.6564 30.1219C26.2259 29.9036 27.4937 29.4432 28.49 28.4127C29.4818 27.3868 29.9207 26.0894 30.1296 24.4822C30.3332 22.9155 30.3332 20.9117 30.3332 18.3732V16.223C30.3332 14.7389 30.3332 13.5554 30.2423 12.5877C30.1484 11.5891 29.9527 10.7442 29.5181 9.95026C29.0826 9.1546 28.4796 8.54234 27.6946 7.94116C26.9366 7.36062 25.9531 6.75024 24.7248 5.98797L21.9693 4.27783C20.6713 3.4722 19.632 2.8272 18.7324 2.38973C17.8018 1.93717 16.944 1.66675 15.9998 1.66675ZM11.0392 6.00557C12.3936 5.16503 13.3458 4.57546 14.1419 4.18834C14.9175 3.81118 15.4667 3.66675 15.9998 3.66675C16.5329 3.66675 17.0822 3.81118 17.8578 4.18834C18.6538 4.57546 19.6061 5.16502 20.9605 6.00557L23.6271 7.66058C24.9082 8.45567 25.8077 9.01521 26.4786 9.52901C27.1314 10.0289 27.507 10.4415 27.7637 10.9106C28.0214 11.3813 28.1718 11.9316 28.251 12.7748C28.3322 13.6382 28.3332 14.7278 28.3332 16.272V18.3C28.3332 20.928 28.3312 22.8016 28.1463 24.2244C27.9646 25.6219 27.6225 26.4326 27.0521 27.0226C26.4863 27.6078 25.716 27.9553 24.3809 28.141C23.0134 28.3311 21.2099 28.3334 18.6665 28.3334H13.3332C10.7898 28.3334 8.98628 28.3311 7.6188 28.141C6.28365 27.9553 5.51335 27.6078 4.94756 27.0226C4.37719 26.4326 4.03506 25.6219 3.85343 24.2244C3.66849 22.8016 3.6665 20.928 3.6665 18.3V16.272C3.6665 14.7278 3.66752 13.6382 3.74865 12.7748C3.82788 11.9316 3.9783 11.3813 4.23596 10.9106C4.49271 10.4415 4.86827 10.0289 5.52106 9.52901C6.19197 9.01521 7.09143 8.45567 8.37254 7.66058L11.0392 6.00557Z" fill="#A0A0A0"/>
</svg>
